{
.appVersion = "3414";
.storedFileType = org.unifiedfontobject.ufo;
.formatVersion = 3;
date = "2025-07-27 12:27:10 +0000";
familyName = "經典草書黑體";
featurePrefixes = (
{
code = "languagesystem DFLT dflt;";
name = Languagesystems;
}
);
fontMaster = (
{
customParameters = (
{
name = typoAscender;
value = 880;
},
{
name = typoDescender;
value = -120;
},
{
name = typoLineGap;
value = 200;
},
{
name = hheaAscender;
value = 1040;
},
{
name = hheaDescender;
value = -260;
},
{
name = winAscent;
value = 1040;
},
{
name = winDescent;
value = 260;
},
{
name = strikeoutPosition;
value = 240;
},
{
name = strikeoutSize;
value = 50;
}
);
id = m01;
metricValues = (
{
over = 16;
pos = 880;
},
{
over = -16;
},
{
over = -16;
},
{
over = -16;
},
{
over = -16;
pos = -120;
},
{
}
);
name = Regular;
}
);
glyphs = (
{
glyphname = uni3405;
lastChange = "2025-08-20 21:38:19 +0000";
layers = (
{
.lastUpdate = 777603456.36;
layerId = m01;
shapes = (
{
closed = 1;
nodes = (
(954,10,l),
(790,216,o),
(469,581,o),
(253,581,cs),
(154,581,o),
(66,498,o),
(66,297,cs),
(66,118,o),
(130,19,o),
(254,19,cs),
(488,19,o),
(687,315,o),
(884,783,c),
(793,809,l),
(611,376,o),
(435,107,o),
(254,107,cs),
(184,107,o),
(150,194,o),
(150,297,cs),
(150,426,o),
(184,492,o),
(253,492,cs),
(412,492,o),
(726,151,o),
(884,-50,c)
);
}
);
width = 1000;
}
);
unicode = (13317,20034);
},
{
glyphname = uni340C;
lastChange = "2025-08-20 16:43:06 +0000";
layers = (
{
.lastUpdate = 777603456.36;
layerId = m01;
shapes = (
{
closed = 1;
nodes = (
(788,-62,ls),
(892,-62,o),
(919,-8,o),
(932,147,c),
(857,166,l),
(851,38,o),
(838,15,o),
(784,15,cs),
(425,15,ls),
(373,15,o),
(359,28,o),
(359,80,cs),
(359,570,l),
(281,570,l),
(281,82,ls),
(281,-34,o),
(315,-62,o),
(425,-62,cs)
);
},
{
closed = 1;
nodes = (
(748,199,o),
(807,253,o),
(807,366,cs),
(807,429,o),
(751,518,o),
(598,519,cs),
(404,520,o),
(223,396,o),
(76,256,c),
(120,193,l),
(265,341,o),
(443,443,o),
(598,443,cs),
(698,443,o),
(725,402,o),
(725,362,cs),
(725,308,o),
(684,248,o),
(574,195,c),
(613,127,l)
);
},
{
closed = 1;
nodes = (
(204,548,o),
(274,692,o),
(315,833,c),
(243,850,l),
(202,709,o),
(131,574,o),
(48,489,c),
(113,446,l)
);
},
{
closed = 1;
nodes = (
(907,636,l),
(907,713,l),
(207,713,l),
(207,636,l)
);
}
);
width = 1000;
}
);
unicode = 13324;
},
{
glyphname = uni342C;
lastChange = "2025-08-20 16:43:06 +0000";
layers = (
{
.lastUpdate = 777603456.36;
layerId = m01;
shapes = (
{
closed = 1;
nodes = (
(582,-71,o),
(637,15,o),
(637,168,cs),
(637,294,o),
(545,434,o),
(425,511,c),
(364,458,l),
(476,379,o),
(555,267,o),
(555,168,cs),
(555,60,o),
(524,1,o),
(443,1,cs),
(395,1,o),
(354,8,o),
(310,21,c),
(310,-59,l),
(350,-67,o),
(389,-71,o),
(454,-71,cs)
);
},
{
closed = 1;
nodes = (
(196,114,o),
(278,197,o),
(337,283,c),
(264,319,l),
(214,241,o),
(135,161,o),
(52,98,c),
(106,50,l)
);
},
{
closed = 1;
nodes = (
(473,496,o),
(535,626,o),
(601,818,c),
(520,843,l),
(467,652,o),
(392,534,o),
(232,416,c),
(290,366,l)
);
},
{
closed = 1;
nodes = (
(936,85,l),
(902,184,o),
(845,290,o),
(785,371,c),
(713,340,l),
(772,257,o),
(826,148,o),
(858,50,c)
);
},
{
closed = 1;
nodes = (
(905,591,l),
(905,664,l),
(85,664,l),
(85,591,l)
);
}
);
width = 1000;
}
);
unicode = 13356;
},
{
glyphname = uni3431;
lastChange = "2025-08-20 16:43:06 +0000";
layers = (
{
.lastUpdate = 777603456.36;
layerId = m01;
shapes = (
{
closed = 1;
nodes = (
(530,-73,o),
(555,-39,o),
(555,23,cs),
(555,550,l),
(474,550,l),
(474,27,ls),
(474,6,o),
(463,-2,o),
(443,-2,cs),
(414,-3,o),
(353,4,o),
(285,23,c),
(285,-60,l),
(343,-69,o),
(395,-73,o),
(454,-73,cs)
);
},
{
closed = 1;
nodes = (
(196,158,o),
(258,300,o),
(291,414,c),
(207,431,l),
(182,327,o),
(131,197,o),
(42,115,c),
(105,72,l)
);
},
{
closed = 1;
nodes = (
(211,548,o),
(281,692,o),
(322,833,c),
(243,850,l),
(202,709,o),
(131,574,o),
(48,489,c),
(120,446,l)
);
},
{
closed = 1;
nodes = (
(976,90,l),
(942,182,o),
(865,328,o),
(777,437,c),
(699,412,l),
(785,300,o),
(861,156,o),
(892,64,c)
);
},
{
closed = 1;
nodes = (
(907,633,l),
(907,713,l),
(207,713,l),
(207,633,l)
);
}
);
width = 1000;
}
);
unicode = 13361;
},
{
glyphname = uni34BC;
lastChange = "2025-08-20 16:43:06 +0000";
layers = (
{
.lastUpdate = 777603456.36;
layerId = m01;
shapes = (
{
closed = 1;
nodes = (
(817,-60,o),
(917,66,o),
(917,241,cs),
(917,407,o),
(790,473,o),
(588,473,cs),
(527,473,o),
(476,469,o),
(435,463,c),
(513,525,o),
(674,659,o),
(802,775,c),
(753,823,l),
(726,815,l),
(246,815,l),
(246,741,l),
(648,741,l),
(568,655,o),
(417,520,o),
(305,442,cs),
(286,428,o),
(193,394,o),
(136,367,c),
(180,306,l),
(289,360,o),
(430,404,o),
(569,404,cs),
(725,404,o),
(836,358,o),
(836,239,cs),
(836,109,o),
(766,12,o),
(646,12,cs),
(588,12,o),
(529,20,o),
(473,41,c),
(473,-41,l),
(527,-55,o),
(589,-60,o),
(654,-60,cs)
);
},
{
closed = 1;
nodes = (
(363,31,o),
(593,226,o),
(690,336,c),
(625,382,l),
(537,273,o),
(348,108,o),
(279,108,cs),
(259,108,o),
(241,140,o),
(234,182,c),
(160,166,l),
(179,79,o),
(203,31,o),
(260,31,cs)
);
},
{
closed = 1;
nodes = (
(634,130,l),
(577,198,o),
(469,289,o),
(390,341,c),
(337,289,l),
(415,238,o),
(524,139,o),
(577,75,c)
);
},
{
closed = 1;
nodes = (
(918,561,l),
(918,636,l),
(82,636,l),
(82,561,l)
);
}
);
width = 1000;
}
);
unicode = (13500,182063,150535,22791);
},
{
glyphname = uni34DE;
lastChange = "2025-08-20 16:43:06 +0000";
layers = (
{
.lastUpdate = 777603456.36;
layerId = m01;
shapes = (
{
closed = 1;
nodes = (
(421,147,o),
(487,229,o),
(487,336,cs),
(487,428,o),
(423,491,o),
(292,491,cs),
(174,491,o),
(99,446,o),
(99,351,cs),
(99,269,o),
(147,204,o),
(246,204,cs),
(304,204,o),
(338,253,o),
(338,308,cs),
(338,841,l),
(268,841,l),
(268,359,ls),
(268,293,o),
(254,276,o),
(228,276,cs),
(208,276,o),
(166,302,o),
(166,346,cs),
(166,386,o),
(200,418,o),
(292,418,cs),
(369,418,o),
(418,371,o),
(418,332,cs),
(418,271,o),
(379,197,o),
(266,76,c),
(335,64,l)
);
},
{
closed = 1;
nodes = (
(549,115,l),
(533,190,l),
(50,16,l),
(70,-66,l)
);
},
{
closed = 1;
nodes = (
(543,601,l),
(543,682,l),
(61,682,l),
(63,601,l)
);
},
{
closed = 1;
nodes = (
(830,32,o),
(939,172,o),
(941,434,cs),
(942,581,o),
(892,660,o),
(779,660,cs),
(724,660,o),
(677,642,o),
(635,614,c),
(648,540,l),
(694,569,o),
(736,582,o),
(779,582,cs),
(833,582,o),
(862,539,o),
(862,434,cs),
(862,256,o),
(764,66,o),
(637,-20,c),
(708,-87,l)
);
},
{
closed = 1;
nodes = (
(671,484,o),
(714,636,o),
(727,838,c),
(651,840,l),
(641,660,o),
(598,514,o),
(536,424,c),
(602,382,l)
);
}
);
width = 1000;
}
);
unicode = 13534;
},
{
glyphname = uni3537;
lastChange = "2025-08-20 16:43:06 +0000";
layers = (
{
.lastUpdate = 777603456.36;
layerId = m01;
shapes = (
{
closed = 1;
nodes = (
(924,51,l),
(695,3,o),
(383,21,o),
(245,66,cs),
(161,93,o),
(122,154,o),
(117,318,c),
(41,303,l),
(45,125,o),
(101,26,o),
(216,-13,cs),
(359,-61,o),
(687,-81,o),
(921,-34,c)
);
},
{
closed = 1;
nodes = (
(847,96,o),
(883,121,o),
(883,183,cs),
(883,474,ls),
(883,574,o),
(829,610,o),
(733,610,cs),
(465,610,ls),
(371,610,o),
(317,595,o),
(278,569,c),
(278,604,l),
(201,604,l),
(201,138,l),
(278,138,l),
(278,507,l),
(320,530,o),
(374,537,o),
(460,537,cs),
(733,537,ls),
(785,537,o),
(807,513,o),
(807,467,cs),
(807,188,ls),
(807,172,o),
(800,164,o),
(784,164,cs),
(750,164,o),
(711,168,o),
(660,183,c),
(660,107,l),
(706,98,o),
(749,96,o),
(795,96,cs)
);
},
{
closed = 1;
nodes = (
(706,313,l),
(706,387,l),
(380,387,l),
(380,313,l)
);
},
{
closed = 1;
nodes = (
(580,387,l),
(580,732,l),
(505,732,l),
(505,387,l)
);
},
{
closed = 1;
nodes = (
(885,732,l),
(885,804,l),
(189,804,l),
(189,732,l)
);
}
);
width = 1000;
}
);
unicode = 13623;
},
{
glyphname = uni3685;
lastChange = "2025-08-20 16:43:06 +0000";
layers = (
{
.lastUpdate = 777603456.36;
layerId = m01;
shapes = (
{
closed = 1;
nodes = (
(415,467,o),
(695,591,o),
(814,747,c),
(763,796,l),
(740,783,l),
(266,783,l),
(266,718,l),
(682,718,l),
(589,616,o),
(341,511,o),
(64,462,c),
(108,398,l)
);
},
{
closed = 1;
nodes = (
(920,-54,l),
(920,13,l),
(78,13,l),
(78,-54,l)
);
},
{
closed = 1;
nodes = (
(206,249,o),
(276,341,o),
(328,427,c),
(255,438,l),
(204,356,o),
(146,281,o),
(75,215,c),
(135,173,l)
);
},
{
closed = 1;
nodes = (
(609,13,l),
(673,49,o),
(722,91,o),
(722,151,cs),
(722,219,o),
(644,269,o),
(512,269,cs),
(360,269,o),
(276,235,o),
(276,165,cs),
(276,107,o),
(333,59,o),
(440,59,cs),
(511,59,o),
(549,103,o),
(549,142,cs),
(549,327,l),
(474,327,l),
(474,162,ls),
(474,135,o),
(451,122,o),
(423,122,cs),
(399,122,o),
(353,141,o),
(353,165,cs),
(353,191,o),
(393,207,o),
(512,207,cs),
(597,207,o),
(643,178,o),
(643,149,cs),
(643,114,o),
(623,71,o),
(514,13,c)
);
},
{
closed = 1;
nodes = (
(807,327,l),
(807,390,l),
(243,390,l),
(243,327,l)
);
},
{
closed = 1;
nodes = (
(208,606,o),
(318,724,o),
(369,833,c),
(293,850,l),
(242,741,o),
(131,630,o),
(48,580,c),
(117,543,l)
);
},
{
closed = 1;
nodes = (
(914,466,l),
(768,523,o),
(528,595,o),
(305,639,c),
(269,581,l),
(494,536,o),
(727,467,o),
(870,408,c)
);
}
);
width = 1000;
}
);
unicode = 13957;
},
{
glyphname = uni3687;
lastChange = "2025-08-20 16:43:06 +0000";
layers = (
{
.lastUpdate = 777603456.361;
layerId = m01;
shapes = (
{
closed = 1;
nodes = (
(923,7,l),
(727,55,o),
(523,196,o),
(358,196,cs),
(256,196,o),
(173,142,o),
(173,63,cs),
(173,-20,o),
(268,-64,o),
(353,-64,cs),
(469,-64,o),
(808,72,o),
(808,226,cs),
(808,338,o),
(702,369,o),
(576,369,cs),
(493,369,o),
(424,357,o),
(368,340,c),
(393,361,o),
(411,384,o),
(432,414,c),
(364,451,l),
(298,365,o),
(207,294,o),
(94,237,c),
(136,176,l),
(194,209,o),
(259,248,o),
(284,256,cs),
(371,283,o),
(468,295,o),
(569,295,cs),
(656,295,o),
(727,275,o),
(727,226,cs),
(727,140,o),
(435,7,o),
(344,7,cs),
(297,7,o),
(251,22,o),
(251,62,cs),
(251,105,o),
(292,124,o),
(350,124,cs),
(493,124,o),
(697,-14,o),
(886,-71,c)
);
},
{
closed = 1;
nodes = (
(763,447,l),
(763,512,l),
(237,512,l),
(237,447,l)
);
},
{
closed = 1;
nodes = (
(373,557,o),
(614,634,o),
(813,800,c),
(745,840,l),
(553,675,o),
(331,617,o),
(88,568,c),
(126,506,l)
);
},
{
closed = 1;
nodes = (
(864,558,l),
(668,663,o),
(373,757,o),
(173,805,c),
(129,750,l),
(334,699,o),
(623,605,o),
(812,498,c)
);
}
);
width = 1000;
}
);
unicode = 13959;
},
{
glyphname = uni3749;
lastChange = "2025-08-20 16:43:06 +0000";
layers = (
{
.lastUpdate = 777603456.361;
layerId = m01;
shapes = (
{
closed = 1;
nodes = (
(914,447,o),
(925,484,o),
(925,540,cs),
(925,638,o),
(809,679,o),
(617,679,cs),
(426,679,o),
(271,627,o),
(164,540,c),
(164,663,l),
(81,663,l),
(81,419,l),
(164,419,l),
(164,483,l),
(271,564,o),
(453,600,o),
(617,600,cs),
(781,600,o),
(838,567,o),
(838,539,cs),
(838,500,o),
(830,466,o),
(806,431,c),
(890,398,l)
);
},
{
closed = 1;
nodes = (
(899,68,l),
(899,146,l),
(101,146,l),
(101,68,l)
);
},
{
closed = 1;
nodes = (
(572,667,l),
(554,714,o),
(531,767,o),
(500,817,c),
(431,786,l),
(461,739,o),
(484,689,o),
(500,636,c)
);
}
);
width = 1000;
}
);
unicode = 14153;
},
{
glyphname = uni3760;
lastChange = "2025-08-20 20:40:14 +0000";
layers = (
{
.lastUpdate = 777603456.361;
layerId = m01;
shapes = (
{
closed = 1;
nodes = (
(894,252,l),
(894,327,l),
(106,327,l),
(106,252,l)
);
},
{
closed = 1;
nodes = (
(772,437,l),
(772,513,l),
(228,513,l),
(228,437,l)
);
},
{
closed = 1;
nodes = (
(919,505,o),
(929,549,o),
(929,600,cs),
(929,690,o),
(815,731,o),
(617,731,cs),
(426,731,o),
(264,680,o),
(157,601,c),
(157,720,l),
(79,720,l),
(79,469,l),
(157,469,l),
(157,545,l),
(264,617,o),
(453,649,o),
(617,649,cs),
(794,649,o),
(847,617,o),
(847,593,cs),
(847,557,o),
(842,526,o),
(816,489,c),
(890,461,l)
);
},
{
closed = 1;
nodes = (
(576,686,l),
(559,739,o),
(529,799,o),
(498,847,c),
(426,824,l),
(454,778,o),
(487,714,o),
(501,664,c)
);
},
{
closed = 1;
nodes = (
(215,-6,o),
(339,77,o),
(414,165,c),
(333,202,l),
(276,127,o),
(161,41,o),
(50,-10,c),
(106,-67,l)
);
},
{
closed = 1;
nodes = (
(945,-12,l),
(877,53,o),
(756,141,o),
(656,209,c),
(596,161,l),
(694,91,o),
(813,2,o),
(878,-64,c)
);
}
);
width = 1000;
}
);
unicode = (14176,20901);
},
{
glyphname = uni3775;
lastChange = "2025-08-20 16:43:06 +0000";
layers = (
{
.lastUpdate = 777603456.361;
layerId = m01;
shapes = (
{
closed = 1;
nodes = (
(717,-60,o),
(897,54,o),
(897,231,cs),
(897,380,o),
(800,489,o),
(587,489,cs),
(530,489,o),
(475,484,o),
(415,466,c),
(546,547,o),
(663,631,o),
(805,747,c),
(751,811,l),
(728,800,l),
(151,800,l),
(151,723,l),
(651,723,l),
(568,646,o),
(402,526,o),
(286,455,cs),
(262,440,o),
(231,430,o),
(197,419,c),
(253,350,l),
(332,395,o),
(455,420,o),
(550,420,cs),
(728,420,o),
(811,340,o),
(811,232,cs),
(811,80,o),
(631,17,o),
(473,17,cs),
(387,17,o),
(328,50,o),
(328,102,cs),
(328,141,o),
(367,173,o),
(415,173,cs),
(494,173,o),
(547,125,o),
(560,5,c),
(636,22,l),
(616,169,o),
(544,239,o),
(416,239,cs),
(316,239,o),
(248,172,o),
(248,96,cs),
(248,5,o),
(338,-60,o),
(486,-60,cs)
);
}
);
width = 1000;
}
);
unicode = 14197;
},
{
glyphname = uni382F;
lastChange = "2025-08-20 16:43:06 +0000";
layers = (
{
.lastUpdate = 777603456.361;
layerId = m01;
shapes = (
{
closed = 1;
nodes = (
(798,-29,o),
(870,51,o),
(870,123,cs),
(870,223,o),
(802,270,o),
(648,270,cs),
(523,270,o),
(401,217,o),
(335,176,c),
(420,287,o),
(452,348,o),
(481,539,c),
(399,549,l),
(379,395,o),
(350,283,o),
(247,152,cs),
(229,130,o),
(190,108,o),
(151,77,c),
(210,28,l),
(358,127,o),
(526,194,o),
(648,194,cs),
(733,194,o),
(781,168,o),
(781,123,cs),
(781,76,o),
(713,18,o),
(608,-1,c),
(651,-70,l)
);
},
{
closed = 1;
nodes = (
(731,353,o),
(857,442,o),
(857,600,cs),
(857,732,o),
(757,800,o),
(553,800,cs),
(372,800,o),
(205,734,o),
(132,661,c),
(172,595,l),
(259,678,o),
(391,723,o),
(553,723,cs),
(708,723,o),
(772,682,o),
(772,600,cs),
(772,475,o),
(669,440,o),
(411,466,c),
(411,388,l)
);
}
);
vertWidth = 1000;
width = 1000;
}
);
note = cid11920;
unicode = (14383,21488);
},
{
glyphname = uni3840;
lastChange = "2025-08-20 16:43:06 +0000";
layers = (
{
.lastUpdate = 777603456.361;
layerId = m01;
shapes = (
{
closed = 1;
nodes = (
(773,-71,o),
(904,48,o),
(904,248,cs),
(904,465,o),
(736,560,o),
(588,559,cs),
(408,558,o),
(308,529,o),
(89,416,c),
(128,342,l),
(339,473,o),
(443,480,o),
(577,480,cs),
(682,480,o),
(825,406,o),
(825,248,cs),
(825,89,o),
(716,2,o),
(599,2,cs),
(551,2,o),
(511,6,o),
(464,17,c),
(464,-58,l),
(509,-67,o),
(548,-71,o),
(606,-71,cs)
);
},
{
closed = 1;
nodes = (
(254,194,o),
(292,261,o),
(326,327,c),
(252,347,l),
(223,285,o),
(185,222,o),
(134,167,c),
(197,137,l)
);
},
{
closed = 1;
nodes = (
(496,86,l),
(496,390,l),
(419,390,l),
(419,86,l)
);
},
{
closed = 1;
nodes = (
(324,615,l),
(299,669,o),
(251,738,o),
(191,797,c),
(120,773,l),
(178,713,o),
(225,641,o),
(249,585,c)
);
},
{
closed = 1;
nodes = (
(764,182,l),
(733,235,o),
(688,298,o),
(640,354,c),
(575,319,l),
(627,259,o),
(667,199,o),
(700,142,c)
);
},
{
closed = 1;
nodes = (
(540,498,l),
(540,840,l),
(458,840,l),
(458,498,l)
);
},
{
closed = 1;
nodes = (
(789,633,o),
(839,706,o),
(882,781,c),
(801,805,l),
(772,737,o),
(722,659,o),
(673,603,c),
(738,579,l)
);
}
);
width = 1000;
}
);
unicode = 14400;
},
{
glyphname = uni386D;
lastChange = "2025-08-20 16:43:06 +0000";
layers = (
{
.lastUpdate = 777603456.361;
layerId = m01;
shapes = (
{
closed = 1;
nodes = (
(924,51,l),
(695,3,o),
(383,21,o),
(245,66,cs),
(161,94,o),
(122,154,o),
(117,318,c),
(41,303,l),
(45,125,o),
(101,26,o),
(216,-13,cs),
(359,-61,o),
(687,-81,o),
(921,-34,c)
);
},
{
closed = 1;
nodes = (
(917,295,l),
(917,369,l),
(161,369,l),
(161,295,l)
);
},
{
closed = 1;
nodes = (
(537,81,o),
(583,92,o),
(583,173,cs),
(583,840,l),
(502,840,l),
(502,173,ls),
(502,154,o),
(499,147,o),
(479,147,cs),
(434,147,o),
(388,155,o),
(339,166,c),
(339,91,l),
(396,83,o),
(451,79,o),
(494,80,cs)
);
},
{
closed = 1;
nodes = (
(397,614,l),
(377,668,o),
(323,753,o),
(274,813,c),
(208,787,l),
(256,723,o),
(307,640,o),
(326,587,c)
);
},
{
closed = 1;
nodes = (
(888,484,l),
(888,554,l),
(170,554,l),
(170,484,l)
);
},
{
closed = 1;
nodes = (
(774,643,o),
(822,724,o),
(860,795,c),
(787,819,l),
(761,756,o),
(712,666,o),
(673,612,c),
(735,590,l)
);
}
);
width = 1000;
}
);
unicode = 14445;
},
{
glyphname = uni3886;
lastChange = "2025-08-20 16:43:06 +0000";
layers = (
{
.lastUpdate = 777603456.362;
layerId = m01;
shapes = (
{
closed = 1;
nodes = (
(189,75,o),
(197,296,o),
(197,452,cs),
(197,656,l),
(942,656,l),
(942,729,l),
(596,729,l),
(541,848,l),
(468,828,l),
(511,729,l),
(121,729,l),
(121,452,ls),
(121,306,o),
(114,102,o),
(36,-44,c),
(107,-78,l)
);
},
{
closed = 1;
nodes = (
(910,-52,l),
(910,18,l),
(218,18,l),
(218,-52,l)
);
},
{
closed = 1;
nodes = (
(590,18,l),
(643,54,o),
(666,104,o),
(666,167,cs),
(666,233,o),
(617,281,o),
(557,281,cs),
(477,281,o),
(420,242,o),
(420,179,cs),
(420,112,o),
(477,80,o),
(547,80,cs),
(565,80,o),
(580,88,o),
(594,97,c),
(571,51,o),
(524,32,o),
(443,18,c)
);
},
{
closed = 1;
nodes = (
(513,136,o),
(486,152,o),
(486,179,cs),
(486,208,o),
(514,226,o),
(546,226,cs),
(573,226,o),
(599,207,o),
(599,184,cs),
(599,153,o),
(574,136,o),
(545,136,cs)
);
},
{
closed = 1;
nodes = (
(635,477,l),
(558,477,l),
(558,255,l),
(635,202,l)
);
},
{
closed = 1;
nodes = (
(729,335,o),
(893,353,o),
(893,480,cs),
(893,554,o),
(834,619,o),
(634,619,cs),
(463,619,o),
(346,570,o),
(246,511,c),
(266,454,l),
(365,509,o),
(503,549,o),
(634,549,cs),
(756,549,o),
(812,521,o),
(812,480,cs),
(812,425,o),
(693,394,o),
(410,414,c),
(410,345,l)
);
}
);
width = 1000;
}
);
unicode = 14470;
},
{
glyphname = uni38CE;
lastChange = "2025-08-20 16:43:06 +0000";
layers = (
{
.lastUpdate = 777603456.362;
layerId = m01;
shapes = (
{
closed = 1;
nodes = (
(820,444,o),
(865,541,o),
(865,624,cs),
(865,708,o),
(775,769,o),
(621,769,cs),
(481,769,o),
(390,734,o),
(294,674,c),
(324,721,o),
(350,774,o),
(368,831,c),
(294,846,l),
(252,722,o),
(171,601,o),
(78,523,c),
(136,483,l),
(187,531,o),
(217,566,o),
(243,600,c),
(357,669,o),
(504,699,o),
(613,699,cs),
(722,699,o),
(778,660,o),
(778,624,cs),
(778,562,o),
(725,506,o),
(357,539,c),
(357,474,l)
);
},
{
closed = 1;
nodes = (
(910,-7,l),
(694,27,o),
(527,50,o),
(364,67,c),
(521,95,o),
(674,124,o),
(781,147,c),
(751,221,l),
(719,212,l),
(552,232,o),
(429,244,o),
(288,256,c),
(244,195,l),
(402,183,o),
(478,177,o),
(583,166,c),
(487,142,o),
(372,114,o),
(245,89,cs),
(215,83,o),
(188,88,o),
(146,90,c),
(102,27,l),
(366,2,o),
(622,-31,o),
(875,-71,c)
);
},
{
closed = 1;
nodes = (
(558,254,o),
(705,312,o),
(843,377,c),
(780,422,l),
(751,407,l),
(557,407,l),
(557,614,l),
(478,614,l),
(478,407,l),
(174,407,l),
(174,340,l),
(614,341,l),
(538,307,o),
(464,275,o),
(339,230,c),
(425,211,l)
);
}
);
width = 1000;
}
);
unicode = 14542;
},
{
glyphname = uni3B0E;
lastChange = "2025-08-20 16:43:06 +0000";
layers = (
{
.lastUpdate = 777603456.362;
layerId = m01;
shapes = (
{
closed = 1;
nodes = (
(852,60,o),
(897,130,o),
(897,205,cs),
(897,294,o),
(845,358,o),
(700,358,cs),
(539,358,o),
(438,276,o),
(438,180,cs),
(438,105,o),
(479,60,o),
(552,60,cs),
(650,60,o),
(709,126,o),
(709,249,cs),
(709,369,o),
(610,441,o),
(457,441,cs),
(243,441,o),
(115,334,o),
(115,208,cs),
(115,144,o),
(153,80,o),
(227,80,cs),
(398,80,o),
(489,414,o),
(495,684,c),
(421,688,l),
(415,431,o),
(344,146,o),
(220,146,cs),
(194,146,o),
(179,167,o),
(179,208,cs),
(179,272,o),
(259,373,o),
(457,373,cs),
(581,373,o),
(644,315,o),
(644,249,cs),
(644,169,o),
(611,130,o),
(552,130,cs),
(523,130,o),
(504,147,o),
(504,180,cs),
(504,230,o),
(571,295,o),
(700,295,cs),
(812,295,o),
(822,244,o),
(822,205,cs),
(822,148,o),
(781,82,o),
(706,60,c),
(766,-1,l)
);
},
{
closed = 1;
nodes = (
(878,-39,l),
(878,29,l),
(122,29,l),
(122,-39,l)
);
},
{
closed = 1;
nodes = (
(209,519,l),
(209,803,l),
(130,803,l),
(130,519,l)
);
},
{
closed = 1;
nodes = (
(706,489,o),
(835,526,o),
(835,672,cs),
(835,784,o),
(697,817,o),
(539,817,cs),
(367,817,o),
(268,780,o),
(158,721,c),
(190,662,l),
(281,710,o),
(399,749,o),
(539,749,cs),
(673,749,o),
(752,709,o),
(752,669,cs),
(752,602,o),
(685,550,o),
(306,583,c),
(306,510,l)
);
}
);
width = 1000;
}
);
unicode = 15118;
},
{
glyphname = uni3C7F;
lastChange = "2025-08-21 23:09:05 +0000";
layers = (
{
.lastUpdate = 777603456.362;
layerId = m01;
shapes = (
{
closed = 1;
nodes = (
(748,50,o),
(895,281,o),
(911,650,c),
(849,674,l),
(830,658,l),
(612,658,l),
(612,588,l),
(829,588,l),
(808,303,o),
(704,114,o),
(486,-24,c),
(539,-78,l)
);
},
{
closed = 1;
nodes = (
(366,-70,o),
(516,54,o),
(516,253,cs),
(516,411,o),
(405,467,o),
(175,424,c),
(185,362,l),
(392,396,o),
(439,343,o),
(439,252,cs),
(439,117,o),
(321,4,o),
(230,4,cs),
(172,4,o),
(151,24,o),
(151,56,cs),
(151,123,o),
(254,221,o),
(450,278,c),
(420,335,l),
(206,277,o),
(70,156,o),
(70,57,cs),
(70,-14,o),
(112,-70,o),
(230,-70,cs)
);
},
{
closed = 1;
nodes = (
(198,336,o),
(246,424,o),
(280,506,c),
(210,531,l),
(183,448,o),
(139,361,o),
(103,309,c),
(164,286,l)
);
},
{
closed = 1;
nodes = (
(950,-23,l),
(873,102,o),
(736,264,o),
(609,390,c),
(556,349,l),
(681,219,o),
(811,46,o),
(884,-75,c)
);
},
{
closed = 1;
nodes = (
(446,498,l),
(446,573,l),
(313,573,l),
(313,848,l),
(241,848,l),
(241,573,l),
(108,573,l),
(108,498,l)
);
},
{
closed = 1;
nodes = (
(481,654,l),
(481,724,l),
(73,724,l),
(73,654,l)
);
},
{
closed = 1;
nodes = (
(624,532,o),
(660,654,o),
(681,811,c),
(602,818,l),
(583,663,o),
(553,554,o),
(507,455,c),
(580,431,l)
);
}
);
width = 1000;
}
);
unicode = (15487,197966);
},
{
glyphname = uni3F0C;
lastChange = "2025-08-20 16:43:06 +0000";
layers = (
{
.lastUpdate = 777603456.362;
layerId = m01;
shapes = (
{
closed = 1;
nodes = (
(345,-41,o),
(398,96,o),
(398,283,cs),
(398,452,o),
(358,537,o),
(254,542,c),
(323,598,o),
(409,679,o),
(465,758,c),
(404,793,l),
(388,788,l),
(81,788,l),
(81,715,l),
(344,715,l),
(306,665,o),
(243,603,o),
(189,559,cs),
(176,549,o),
(162,545,o),
(149,545,c),
(149,482,l),
(168,485,o),
(185,486,o),
(199,486,cs),
(309,486,o),
(320,407,o),
(320,283,cs),
(320,143,o),
(291,39,o),
(203,39,cs),
(162,39,o),
(140,61,o),
(140,95,cs),
(140,317,o),
(484,621,o),
(901,729,c),
(881,805,l),
(457,699,o),
(65,368,o),
(65,89,cs),
(65,5,o),
(124,-41,o),
(203,-41,cs)
);
},
{
closed = 1;
nodes = (
(532,139,o),
(562,310,o),
(576,452,c),
(508,461,l),
(494,327,o),
(465,158,o),
(429,28,c),
(494,3,l)
);
},
{
closed = 1;
nodes = (
(747,-55,o),
(779,-43,o),
(819,-12,c),
(819,86,l),
(778,48,o),
(748,30,o),
(720,30,cs),
(707,30,o),
(700,35,o),
(700,59,cs),
(700,573,l),
(630,573,l),
(630,48,ls),
(630,-26,o),
(671,-55,o),
(710,-55,cs)
);
},
{
closed = 1;
nodes = (
(966,25,l),
(929,227,o),
(891,406,o),
(848,567,c),
(783,540,l),
(828,370,o),
(863,205,o),
(899,-8,c)
);
}
);
width = 1000;
}
);
unicode = 16140;
},
{
glyphname = uni4343;
lastChange = "2025-08-20 16:43:06 +0000";
layers = (
{
.lastUpdate = 777603456.362;
layerId = m01;
shapes = (
{
closed = 1;
nodes = (
(782,-80,ls),
(862,-80,o),
(887,-33,o),
(898,107,c),
(818,119,l),
(817,38,o),
(801,-5,o),
(766,-5,cs),
(424,-5,ls),
(393,-5,o),
(384,1,o),
(384,10,cs),
(384,22,o),
(409,42,o),
(730,240,c),
(680,297,l),
(644,283,l),
(539,283,l),
(734,427,l),
(685,491,l),
(659,479,l),
(272,457,o),
(73,376,o),
(73,256,cs),
(73,192,o),
(115,160,o),
(187,160,cs),
(324,160,o),
(374,247,o),
(700,712,c),
(641,764,l),
(619,752,l),
(332,752,l),
(332,679,l),
(583,679,l),
(337,316,o),
(259,225,o),
(187,225,cs),
(158,225,o),
(144,239,o),
(144,256,cs),
(144,322,o),
(312,394,o),
(601,403,c),
(422,265,l),
(465,208,l),
(557,210,l),
(290,53,o),
(271,27,o),
(271,-13,cs),
(271,-52,o),
(307,-80,o),
(360,-80,cs)
);
},
{
closed = 1;
nodes = (
(283,569,o),
(369,693,o),
(445,823,c),
(368,850,l),
(306,729,o),
(211,604,o),
(104,513,c),
(165,457,l)
);
},
{
closed = 1;
nodes = (
(955,244,l),
(935,300,o),
(894,368,o),
(855,418,c),
(794,382,l),
(832,330,o),
(872,259,o),
(889,203,c)
);
}
);
width = 1000;
}
);
unicode = (17219,15890);
},
{
glyphname = uni4674;
lastChange = "2025-08-20 16:43:06 +0000";
layers = (
{
.lastUpdate = 777603456.362;
layerId = m01;
shapes = (
{
closed = 1;
nodes = (
(396,501,l),
(388,584,o),
(385,671,o),
(389,753,c),
(930,753,l),
(930,819,l),
(69,819,l),
(69,753,l),
(310,753,l),
(309,668,o),
(315,579,o),
(326,494,c)
);
},
{
closed = 1;
nodes = (
(910,-29,l),
(694,4,o),
(527,26,o),
(364,42,c),
(521,64,o),
(674,89,o),
(781,109,c),
(751,180,l),
(719,171,l),
(552,190,o),
(429,202,o),
(288,213,c),
(244,155,l),
(402,143,o),
(478,137,o),
(583,127,c),
(487,108,o),
(372,84,o),
(245,63,cs),
(215,58,o),
(188,62,o),
(146,64,c),
(102,4,l),
(366,-20,o),
(622,-52,o),
(875,-90,c)
);
},
{
closed = 1;
nodes = (
(897,267,l),
(645,338,o),
(425,367,o),
(257,367,cs),
(121,367,o),
(84,333,o),
(84,292,cs),
(84,244,o),
(127,217,o),
(239,217,cs),
(459,217,o),
(674,370,o),
(750,430,c),
(660,472,l),
(641,459,l),
(333,459,l),
(333,397,l),
(585,397,l),
(543,382,o),
(372,273,o),
(239,273,cs),
(182,273,o),
(158,279,o),
(158,292,cs),
(158,302,o),
(182,314,o),
(257,314,cs),
(413,314,o),
(624,279,o),
(872,209,c)
);
},
{
closed = 1;
nodes = (
(496,451,o),
(657,634,o),
(745,761,c),
(674,793,l),
(587,654,o),
(433,503,o),
(279,433,c),
(325,384,l)
);
},
{
closed = 1;
nodes = (
(180,497,l),
(180,562,l),
(298,628,o),
(467,650,o),
(604,650,cs),
(730,650,o),
(819,632,o),
(819,610,cs),
(819,589,o),
(779,569,o),
(678,574,c),
(678,506,l),
(836,504,o),
(908,544,o),
(908,610,cs),
(908,678,o),
(782,713,o),
(605,713,cs),
(439,713,o),
(268,670,o),
(180,608,c),
(180,696,l),
(109,696,l),
(109,497,l)
);
}
);
width = 1000;
}
);
unicode = 18036;
},
{
glyphname = uni470C;
lastChange = "2025-08-20 16:43:06 +0000";
layers = (
{
.lastUpdate = 777603456.362;
layerId = m01;
shapes = (
{
closed = 1;
nodes = (
(292,-59,o),
(364,66,o),
(364,213,cs),
(364,354,o),
(310,399,o),
(237,398,c),
(295,435,o),
(343,480,o),
(386,541,c),
(336,581,l),
(311,569,l),
(94,569,l),
(94,500,l),
(262,500,l),
(235,447,o),
(193,404,o),
(124,390,c),
(124,326,l),
(151,336,o),
(181,341,o),
(215,341,cs),
(273,341,o),
(295,302,o),
(295,213,cs),
(295,103,o),
(249,11,o),
(180,11,cs),
(152,11,o),
(134,31,o),
(134,71,cs),
(134,220,o),
(364,339,o),
(491,339,cs),
(567,339,o),
(600,305,o),
(600,227,cs),
(600,113,o),
(562,63,o),
(525,63,cs),
(496,63,o),
(480,93,o),
(480,134,cs),
(480,295,o),
(640,448,o),
(782,483,c),
(782,36,l),
(700,36,l),
(700,-34,l),
(938,-34,l),
(938,36,l),
(856,36,l),
(856,550,l),
(799,562,l),
(777,550,l),
(599,518,o),
(415,312,o),
(415,136,cs),
(415,58,o),
(450,-6,o),
(525,-6,cs),
(618,-6,o),
(675,88,o),
(674,227,cs),
(673,336,o),
(637,410,o),
(491,410,cs),
(331,410,o),
(65,265,o),
(65,71,cs),
(65,-13,o),
(109,-59,o),
(180,-59,cs)
);
},
{
closed = 1;
nodes = (
(917,649,l),
(917,723,l),
(81,723,l),
(81,649,l)
);
},
{
closed = 1;
nodes = (
(572,717,l),
(543,762,o),
(514,802,o),
(485,837,c),
(419,805,l),
(451,770,o),
(482,728,o),
(507,684,c)
);
}
);
width = 1000;
}
);
unicode = (18188,196700);
},
{
glyphname = uni49F9;
lastChange = "2025-08-20 16:43:06 +0000";
layers = (
{
.lastUpdate = 777603456.362;
layerId = m01;
shapes = (
{
closed = 1;
nodes = (
(189,71,o),
(197,286,o),
(197,438,cs),
(197,640,l),
(942,640,l),
(942,711,l),
(606,711,l),
(593,747,o),
(565,804,o),
(541,848,c),
(468,828,l),
(487,793,o),
(507,747,o),
(521,711,c),
(121,711,l),
(121,438,ls),
(121,296,o),
(114,97,o),
(36,-45,c),
(107,-78,l)
);
},
{
closed = 1;
nodes = (
(955,-33,l),
(955,39,l),
(209,39,l),
(209,-33,l)
);
},
{
closed = 1;
nodes = (
(377,146,l),
(377,517,l),
(301,517,l),
(301,146,l)
);
},
{
closed = 1;
nodes = (
(605,39,l),
(686,82,o),
(749,149,o),
(749,245,cs),
(749,299,o),
(701,354,o),
(613,354,cs),
(519,354,o),
(479,303,o),
(479,254,cs),
(479,200,o),
(532,160,o),
(647,160,cs),
(809,160,o),
(906,248,o),
(906,376,cs),
(906,476,o),
(824,553,o),
(657,553,cs),
(502,553,o),
(431,480,o),
(377,405,c),
(377,312,l),
(431,405,o),
(528,484,o),
(657,484,cs),
(755,484,o),
(825,443,o),
(825,376,cs),
(825,293,o),
(778,214,o),
(647,214,cs),
(580,214,o),
(547,231,o),
(547,256,cs),
(547,278,o),
(571,297,o),
(613,297,cs),
(652,297,o),
(676,272,o),
(676,243,cs),
(676,167,o),
(636,105,o),
(515,39,c)
);
}
);
width = 1000;
}
);
unicode = (18937,24212);
},
{
glyphname = uni4E00;
lastChange = "2025-08-20 16:43:06 +0000";
layers = (
{
.lastUpdate = 777603456.362;
layerId = m01;
shapes = (
{
closed = 1;
nodes = (
(937,348,l),
(937,432,l),
(63,432,l),
(63,348,l)
);
}
);
width = 1000;
}
);
unicode = 19968;
},
{
glyphname = uni4E01;
lastChange = "2025-08-20 16:43:06 +0000";
layers = (
{
.lastUpdate = 777603456.362;
layerId = m01;
shapes = (
{
closed = 1;
nodes = (
(522,-60,o),
(572,-48,o),
(572,43,cs),
(572,670,l),
(928,670,l),
(928,750,l),
(72,750,l),
(72,670,l),
(486,670,l),
(486,43,ls),
(486,21,o),
(477,13,o),
(454,13,cs),
(401,13,o),
(346,22,o),
(287,35,c),
(287,-49,l),
(355,-58,o),
(420,-62,o),
(471,-61,cs)
);
}
);
vertWidth = 1000;
width = 1000;
}
);
note = cid09482;
unicode = 19969;
},
{
glyphname = uni4E02;
lastChange = "2025-08-20 16:43:06 +0000";
layers = (
{
.lastUpdate = 777603456.362;
layerId = m01;
shapes = (
{
closed = 1;
nodes = (
(731,-64,o),
(834,33,o),
(834,232,cs),
(834,430,o),
(696,489,o),
(530,489,cs),
(494,489,o),
(467,487,o),
(437,479,c),
(522,539,o),
(588,595,o),
(653,665,c),
(899,665,l),
(899,743,l),
(101,743,l),
(100,665,l),
(548,665,l),
(495,601,o),
(423,534,o),
(320,470,cs),
(301,458,o),
(273,448,o),
(201,422,c),
(228,355,l),
(325,396,o),
(427,418,o),
(519,418,cs),
(642,418,o),
(752,368,o),
(752,232,cs),
(752,69,o),
(672,11,o),
(585,11,cs),
(539,11,o),
(481,18,o),
(411,35,c),
(411,-46,l),
(470,-59,o),
(529,-64,o),
(595,-64,cs)
);
},
{
closed = 1;
nodes = (
(0,0,o),
(0,0,o)
);
}
);
width = 1000;
}
);
unicode = 19970;
},
{
glyphname = uni4E03;
lastChange = "2025-08-20 16:43:06 +0000";
layers = (
{
.lastUpdate = 777603456.362;
layerId = m01;
shapes = (
{
closed = 1;
nodes = (
(782,-65,ls),
(885,-65,o),
(905,-11,o),
(917,163,c),
(839,188,l),
(832,48,o),
(824,16,o),
(770,16,cs),
(563,16,ls),
(508,16,o),
(498,29,o),
(498,79,cs),
(498,816,l),
(416,816,l),
(416,75,ls),
(416,-36,o),
(440,-65,o),
(542,-65,cs)
);
},
{
closed = 1;
nodes = (
(891,432,l),
(888,511,l),
(68,465,l),
(71,386,l)
);
}
);
width = 1000;
}
);
unicode = 19971;
},
{
glyphname = uni4E07;
lastChange = "2025-08-20 16:43:06 +0000";
layers = (
{
.lastUpdate = 777603456.362;
layerId = m01;
shapes = (
{
closed = 1;
nodes = (
(798,-70,o),
(850,43,o),
(850,204,cs),
(850,319,o),
(752,511,o),
(625,720,c),
(554,681,l),
(675,487,o),
(768,311,o),
(768,204,cs),
(768,67,o),
(723,8,o),
(615,8,cs),
(558,8,o),
(493,26,o),
(434,54,c),
(434,-39,l),
(504,-63,o),
(574,-70,o),
(660,-70,cs)
);
},
{
closed = 1;
nodes = (
(330,121,o),
(447,269,o),
(532,484,c),
(460,515,l),
(377,321,o),
(267,169,o),
(46,-11,c),
(101,-72,l)
);
},
{
closed = 1;
nodes = (
(936,661,l),
(936,744,l),
(68,744,l),
(68,661,l)
);
}
);
width = 1000;
}
);
unicode = 19975;
},
{
glyphname = uni4E08;
lastChange = "2025-08-20 16:43:06 +0000";
layers = (
{
.lastUpdate = 777603456.362;
layerId = m01;
shapes = (
{
closed = 1;
nodes = (
(964,10,l),
(653,124,o),
(539,370,o),
(297,370,cs),
(158,370,o),
(66,290,o),
(66,141,cs),
(66,19,o),
(127,-72,o),
(254,-72,cs),
(532,-72,o),
(576,394,o),
(576,826,c),
(491,826,l),
(491,411,o),
(442,10,o),
(254,10,cs),
(181,10,o),
(149,62,o),
(149,141,cs),
(149,229,o),
(188,288,o),
(297,288,cs),
(476,288,o),
(625,41,o),
(925,-73,c)
);
},
{
closed = 1;
nodes = (
(0,0,o),
(0,0,o)
);
},
{
closed = 1;
nodes = (
(926,541,l),
(926,626,l),
(74,626,l),
(74,541,l)
);
}
);
width = 1000;
}
);
unicode = 19976;
},
{
glyphname = uni4E09;
lastChange = "2025-08-20 16:43:06 +0000";
layers = (
{
.lastUpdate = 777603456.363;
layerId = m01;
shapes = (
{
closed = 1;
nodes = (
(923,-9,l),
(923,73,l),
(77,73,l),
(77,-9,l)
);
},
{
closed = 1;
nodes = (
(805,340,l),
(805,421,l),
(195,421,l),
(195,340,l)
);
},
{
closed = 1;
nodes = (
(873,666,l),
(873,746,l),
(127,746,l),
(127,666,l)
);
}
);
vertWidth = 1000;
width = 1000;
}
);
note = cid09492;
unicode = 19977;
},
{
glyphname = uni4E0A;
lastChange = "2025-08-20 16:43:06 +0000";
layers = (
{
.lastUpdate = 777603456.363;
layerId = m01;
shapes = (
{
closed = 1;
nodes = (
(780,458,o),
(843,578,o),
(902,701,c),
(821,738,l),
(766,611,o),
(704,492,o),
(614,361,c),
(685,317,l)
);
},
{
closed = 1;
nodes = (
(843,13,l),
(843,92,l),
(157,92,l),
(157,13,l)
);
},
{
closed = 1;
nodes = (
(388,350,l),
(326,475,o),
(251,607,o),
(177,721,c),
(99,682,l),
(175,571,o),
(247,447,o),
(313,315,c)
);
}
);
vertWidth = 1000;
width = 1000;
}
);
note = uni4E0A;
unicode = 19978;
},
{
glyphname = uni4E0B;
lastChange = "2025-08-20 16:43:06 +0000";
layers = (
{
.lastUpdate = 777603456.363;
layerId = m01;
shapes = (
{
closed = 1;
nodes = (
(894,37,l),
(830,159,o),
(740,293,o),
(662,395,c),
(593,348,l),
(671,250,o),
(753,121,o),
(813,-3,c)
);
},
{
closed = 1;
nodes = (
(262,112,o),
(339,237,o),
(387,347,c),
(309,383,l),
(268,277,o),
(189,156,o),
(101,63,c),
(165,7,l)
);
},
{
closed = 1;
nodes = (
(710,606,l),
(623,670,o),
(464,751,o),
(345,803,c),
(301,735,l),
(426,686,o),
(566,607,o),
(655,540,c)
);
}
);
vertWidth = 1000;
width = 1000;
}
);
note = cid09494;
unicode = 19979;
},
{
glyphname = uni4E0C;
lastChange = "2025-08-20 16:43:06 +0000";
layers = (
{
.lastUpdate = 777603456.363;
layerId = m01;
shapes = (
{
closed = 1;
nodes = (
(924,32,l),
(860,183,o),
(770,350,o),
(692,476,c),
(622,428,l),
(700,307,o),
(782,147,o),
(842,-7,c)
);
},
{
closed = 1;
nodes = (
(236,132,o),
(313,291,o),
(361,432,c),
(279,463,l),
(238,327,o),
(159,171,o),
(71,53,c),
(139,-3,l)
);
},
{
closed = 1;
nodes = (
(927,620,l),
(927,705,l),
(73,705,l),
(73,620,l)
);
}
);
width = 1000;
}
);
unicode = 19980;
},
{
glyphname = uni4E0D;
lastChange = "2025-08-20 16:43:06 +0000";
layers = (
{
.lastUpdate = 777603456.363;
layerId = m01;
shapes = (
{
closed = 1;
nodes = (
(526,-73,o),
(551,-37,o),
(551,28,cs),
(551,530,l),
(470,530,l),
(470,32,ls),
(470,10,o),
(459,2,o),
(439,1,cs),
(410,0,o),
(349,8,o),
(281,28,c),
(281,-59,l),
(339,-69,o),
(391,-73,o),
(450,-73,cs)
);
},
{
closed = 1;
nodes = (
(194,169,o),
(256,318,o),
(289,438,c),
(205,456,l),
(180,347,o),
(129,210,o),
(40,124,c),
(103,79,l)
);
},
{
closed = 1;
nodes = (
(976,98,l),
(942,195,o),
(865,348,o),
(777,462,c),
(699,436,l),
(785,319,o),
(861,167,o),
(892,71,c)
);
},
{
closed = 1;
nodes = (
(721,646,l),
(634,700,o),
(462,781,o),
(353,813,c),
(309,749,l),
(424,720,o),
(577,641,o),
(666,584,c)
);
}
);
vertWidth = 1000;
width = 1000;
}
);
note = cid09496;
unicode = 19981;
},
{
glyphname = uni4E0E;
lastChange = "2025-08-20 16:43:06 +0000";
layers = (
{
.lastUpdate = 777603456.363;
layerId = m01;
shapes = (
{
closed = 1;
nodes = (
(910,21,l),
(694,77,o),
(507,117,o),
(344,143,c),
(501,188,o),
(674,240,o),
(781,276,c),
(751,362,l),
(719,350,l),
(552,382,o),
(429,401,o),
(288,420,c),
(244,343,l),
(402,325,o),
(490,314,o),
(595,296,c),
(499,258,o),
(372,215,o),
(245,175,cs),
(215,166,o),
(188,173,o),
(146,176,c),
(102,98,l),
(366,57,o),
(622,5,o),
(875,-59,c)
);
},
{
closed = 1;
nodes = (
(413,367,l),
(413,578,l),
(861,578,l),
(861,658,l),
(413,658,l),
(413,825,l),
(329,825,l),
(329,367,l)
);
}
);
width = 1000;
}
);
unicode = 19982;
},
{
glyphname = uni4E0F;
lastChange = "2025-08-20 16:43:06 +0000";
layers = (
{
.lastUpdate = 777603456.363;
layerId = m01;
shapes = (
{
closed = 1;
nodes = (
(825,-64,o),
(888,1,o),
(888,316,cs),
(888,488,o),
(836,576,o),
(682,576,cs),
(575,576,o),
(494,557,o),
(407,519,c),
(431,451,l),
(513,488,o),
(600,504,o),
(682,504,cs),
(786,504,o),
(808,445,o),
(808,316,cs),
(808,66,o),
(751,6,o),
(608,6,cs),
(562,6,o),
(504,13,o),
(434,30,c),
(434,-46,l),
(493,-59,o),
(552,-64,o),
(618,-64,cs)
);
},
{
closed = 1;
nodes = (
(513,181,ls),
(575,181,o),
(624,213,o),
(624,270,cs),
(624,325,o),
(590,388,o),
(560,429,c),
(490,403,l),
(523,364,o),
(543,322,o),
(543,288,cs),
(543,264,o),
(523,256,o),
(502,256,cs),
(242,256,ls),
(212,256,o),
(200,268,o),
(200,287,cs),
(200,331,o),
(236,434,o),
(355,633,c),
(283,664,l),
(157,458,o),
(117,353,o),
(117,272,cs),
(117,221,o),
(151,181,o),
(237,181,cs)
);
},
{
closed = 1;
nodes = (
(899,718,l),
(899,795,l),
(101,795,l),
(101,718,l)
);
}
);
width = 1000;
}
);
unicode = (19983,19984);
},
{
glyphname = uni4E11;
lastChange = "2025-08-20 16:43:06 +0000";
layers = (
{
.lastUpdate = 777603456.363;
layerId = m01;
shapes = (
{
closed = 1;
nodes = (
(806,110,o),
(888,197,o),
(888,490,cs),
(888,709,o),
(795,807,o),
(582,807,cs),
(411,807,o),
(255,780,o),
(131,746,c),
(146,673,l),
(276,707,o),
(422,734,o),
(582,734,cs),
(755,734,o),
(811,642,o),
(811,494,cs),
(811,289,o),
(766,185,o),
(680,185,cs),
(626,185,o),
(548,192,o),
(486,206,c),
(486,129,l),
(546,117,o),
(621,110,o),
(680,110,cs)
);
},
{
closed = 1;
nodes = (
(877,-30,l),
(877,43,l),
(123,43,l),
(123,-30,l)
);
},
{
closed = 1;
nodes = (
(354,231,o),
(489,413,o),
(498,641,c),
(416,648,l),
(409,433,o),
(290,275,o),
(93,162,c),
(159,112,l)
);
},
{
closed = 1;
nodes = (
(618,416,l),
(514,454,o),
(331,502,o),
(182,535,c),
(146,472,l),
(297,436,o),
(484,384,o),
(581,345,c)
);
}
);
width = 1000;
}
);
unicode = 19985;
},
{
glyphname = uni4E14;
lastChange = "2025-08-20 16:43:06 +0000";
layers = (
{
.lastUpdate = 777603456.363;
layerId = m01;
shapes = (
{
closed = 1;
nodes = (
(288,40,l),
(288,640,l),
(375,688,o),
(463,710,o),
(574,710,cs),
(673,710,o),
(700,667,o),
(700,615,cs),
(700,558,o),
(675,503,o),
(621,441,c),
(676,400,l),
(742,475,o),
(780,534,o),
(780,612,cs),
(780,732,o),
(706,788,o),
(571,788,cs),
(460,788,o),
(374,756,o),
(288,705,c),
(288,782,l),
(210,782,l),
(210,40,l)
);
},
{
closed = 1;
nodes = (
(947,-36,l),
(947,40,l),
(54,40,l),
(54,-36,l)
);
},
{
closed = 1;
nodes = (
(630,40,l),
(718,117,o),
(807,209,o),
(807,316,cs),
(807,432,o),
(699,467,o),
(498,442,c),
(498,375,l),
(658,386,o),
(724,373,o),
(724,316,cs),
(724,222,o),
(637,129,o),
(533,40,c)
);
}
);
vertWidth = 1000;
width = 1000;
}
);
note = cid09510;
unicode = 19988;
},
{
glyphname = uni4E15;
lastChange = "2025-08-20 16:43:06 +0000";
layers = (
{
.lastUpdate = 777603456.363;
layerId = m01;
shapes = (
{
closed = 1;
nodes = (
(526,100,o),
(551,131,o),
(551,187,cs),
(551,596,l),
(470,596,l),
(470,197,ls),
(470,179,o),
(459,172,o),
(439,171,cs),
(410,170,o),
(349,177,o),
(281,194,c),
(281,115,l),
(334,105,o),
(386,100,o),
(450,100,cs)
);
},
{
closed = 1;
nodes = (
(888,-43,l),
(888,32,l),
(112,32,l),
(112,-43,l)
);
},
{
closed = 1;
nodes = (
(197,301,o),
(266,425,o),
(299,528,c),
(217,546,l),
(192,452,o),
(130,339,o),
(52,261,c),
(113,220,l)
);
},
{
closed = 1;
nodes = (
(964,239,l),
(930,322,o),
(853,453,o),
(765,551,c),
(689,526,l),
(775,425,o),
(851,295,o),
(882,213,c)
);
},
{
closed = 1;
nodes = (
(721,675,l),
(634,721,o),
(462,791,o),
(353,818,c),
(309,758,l),
(424,733,o),
(577,666,o),
(666,617,c)
);
}
);
width = 1000;
}
);
unicode = 19989;
},
{
glyphname = uni4E16;
lastChange = "2025-08-20 16:43:06 +0000";
layers = (
{
.lastUpdate = 777603456.363;
layerId = m01;
shapes = (
{
closed = 1;
nodes = (
(886,169,o),
(919,209,o),
(932,380,c),
(860,394,l),
(853,267,o),
(842,247,o),
(807,247,cs),
(586,247,o),
(413,536,o),
(392,837,c),
(320,837,l),
(344,477,o),
(547,169,o),
(806,169,cs)
);
},
{
closed = 1;
nodes = (
(874,-17,l),
(874,64,l),
(126,64,l),
(126,-17,l)
);
},
{
closed = 1;
nodes = (
(364,237,o),
(670,323,o),
(843,528,c),
(781,561,l),
(618,372,o),
(307,296,o),
(102,263,c),
(145,190,l)
);
},
{
closed = 1;
nodes = (
(901,649,l),
(891,719,l),
(81,626,l),
(91,552,l)
);
}
);
vertWidth = 1000;
width = 1000;
}
);
note = cid09514;
unicode = 19990;
},
{
glyphname = uni4E18;
lastChange = "2025-08-20 16:43:06 +0000";
layers = (
{
.lastUpdate = 777603456.363;
layerId = m01;
shapes = (
{
closed = 1;
nodes = (
(258,167,l),
(258,689,l),
(469,699,o),
(695,721,o),
(853,761,c),
(795,831,l),
(654,795,o),
(394,771,o),
(174,761,c),
(174,167,l)
);
},
{
closed = 1;
nodes = (
(900,-47,l),
(900,33,l),
(100,33,l),
(100,-47,l)
);
},
{
closed = 1;
nodes = (
(795,116,o),
(848,222,o),
(848,349,cs),
(848,473,o),
(767,560,o),
(583,560,cs),
(429,560,o),
(337,512,o),
(258,454,c),
(258,381,l),
(370,452,o),
(470,480,o),
(583,480,cs),
(676,480,o),
(762,436,o),
(762,349,cs),
(762,234,o),
(721,155,o),
(608,43,c),
(678,0,l)
);
}
);
width = 1000;
}
);
unicode = 19992;
},
{
glyphname = uni4E19;
lastChange = "2025-08-20 16:43:06 +0000";
layers = (
{
.lastUpdate = 777603456.363;
layerId = m01;
shapes = (
{
closed = 1;
nodes = (
(183,-82,l),
(183,468,l),
(233,494,o),
(298,503,o),
(401,503,cs),
(730,503,ls),
(793,503,o),
(819,475,o),
(819,421,cs),
(819,23,ls),
(819,5,o),
(811,-5,o),
(791,-5,cs),
(751,-5,o),
(703,0,o),
(642,17,c),
(642,-60,l),
(697,-70,o),
(749,-73,o),
(805,-73,cs),
(861,-73,o),
(893,-43,o),
(893,29,cs),
(893,417,ls),
(893,534,o),
(839,577,o),
(730,577,cs),
(408,577,ls),
(294,577,o),
(230,559,o),
(183,529,c),
(183,569,l),
(109,569,l),
(109,-82,l)
);
},
{
closed = 1;
nodes = (
(697,229,l),
(697,303,l),
(305,303,l),
(305,229,l)
);
},
{
closed = 1;
nodes = (
(540,303,l),
(540,726,l),
(462,726,l),
(462,303,l)
);
},
{
closed = 1;
nodes = (
(925,726,l),
(925,804,l),
(75,804,l),
(75,726,l)
);
}
);
width = 1000;
}
);
unicode = 19993;
},
{
glyphname = uni4E26;
lastChange = "2025-08-20 16:43:06 +0000";
layers = (
{
.lastUpdate = 777603456.363;
layerId = m01;
shapes = (
{
closed = 1;
nodes = (
(926,-39,l),
(926,40,l),
(678,40,l),
(735,149,o),
(794,291,o),
(838,421,c),
(768,443,l),
(724,302,o),
(658,148,o),
(592,40,c),
(76,40,l),
(76,-39,l)
);
},
{
closed = 1;
nodes = (
(349,144,l),
(327,218,o),
(271,336,o),
(218,424,c),
(157,399,l),
(207,307,o),
(262,187,o),
(283,110,c)
);
},
{
closed = 1;
nodes = (
(572,166,l),
(558,239,o),
(518,360,o),
(479,452,c),
(416,429,l),
(453,335,o),
(492,213,o),
(504,137,c)
);
},
{
closed = 1;
nodes = (
(395,652,l),
(373,703,o),
(320,779,o),
(274,837,c),
(212,804,l),
(257,746,o),
(307,665,o),
(328,614,c)
);
},
{
closed = 1;
nodes = (
(906,521,l),
(906,600,l),
(664,600,l),
(706,662,o),
(755,743,o),
(793,813,c),
(716,840,l),
(685,767,o),
(629,666,o),
(583,600,c),
(95,600,l),
(95,521,l)
);
}
);
vertWidth = 1000;
width = 1000;
}
);
note = cid09534;
unicode = 20006;
},
{
glyphname = uni4E28;
lastChange = "2025-08-20 16:43:06 +0000";
layers = (
{
.lastUpdate = 777603456.363;
layerId = m01;
shapes = (
{
closed = 1;
nodes = (
(544,-51,l),
(544,817,l),
(458,817,l),
(458,-51,l)
);
}
);
width = 1000;
}
);
unicode = 20008;
},
{
glyphname = uni4E29;
lastChange = "2025-08-20 16:43:06 +0000";
layers = (
{
.lastUpdate = 777603456.363;
layerId = m01;
shapes = (
{
closed = 1;
nodes = (
(275,128,l),
(642,202,l),
(642,273,l),
(328,211,l),
(328,749,l),
(250,749,l),
(250,244,ls),
(250,210,o),
(239,196,o),
(213,182,c),
(255,113,l)
);
},
{
closed = 1;
nodes = (
(699,-79,l),
(699,840,l),
(620,840,l),
(620,-79,l)
);
}
);
width = 1000;
}
);
unicode = 20009;
},
{
glyphname = uni4E2A;
lastChange = "2025-08-20 16:43:06 +0000";
layers = (
{
.lastUpdate = 777603456.364;
layerId = m01;
shapes = (
{
closed = 1;
nodes = (
(332,490,o),
(474,614,o),
(593,810,c),
(526,841,l),
(426,664,o),
(254,538,o),
(35,436,c),
(91,367,l)
);
},
{
closed = 1;
nodes = (
(539,-79,l),
(539,456,l),
(461,456,l),
(461,-79,l)
);
},
{
closed = 1;
nodes = (
(969,434,l),
(830,547,o),
(664,647,o),
(494,712,c),
(446,657,l),
(621,586,o),
(779,483,o),
(914,366,c)
);
}
);
vertWidth = 1000;
width = 1000;
}
);
note = cid09540;
unicode = 20010;
},
{
glyphname = uni4E2B;
lastChange = "2025-08-20 16:43:06 +0000";
layers = (
{
.lastUpdate = 777603456.364;
layerId = m01;
shapes = (
{
closed = 1;
nodes = (
(544,-51,l),
(544,406,l),
(688,527,o),
(781,627,o),
(868,733,c),
(792,782,l),
(703,669,o),
(594,556,o),
(458,444,c),
(458,-51,l)
);
},
{
closed = 1;
nodes = (
(436,541,l),
(381,609,o),
(292,701,o),
(207,781,c),
(138,723,l),
(228,646,o),
(306,565,o),
(362,492,c)
);
}
);
width = 1000;
}
);
unicode = 20011;
},
{
glyphname = uni4E2D;
lastChange = "2025-08-21 02:59:00 +0000";
layers = (
{
.lastUpdate = 777603456.364;
layerId = m01;
shapes = (
{
closed = 1;
nodes = (
(171,186,l),
(171,396,l),
(295,523,o),
(468,575,o),
(607,575,cs),
(740,575,o),
(814,530,o),
(814,436,cs),
(814,269,o),
(605,275,o),
(306,320,c),
(306,232,l),
(658,189,o),
(900,202,o),
(900,436,cs),
(900,595,o),
(783,659,o),
(607,659,cs),
(460,659,o),
(297,609,o),
(171,467,c),
(171,661,l),
(96,661,l),
(96,186,l)
);
},
{
closed = 1;
nodes = (
(537,-79,l),
(537,840,l),
(458,840,l),
(458,-79,l)
);
}
);
vertWidth = 1000;
width = 1000;
}
);
note = cid09544;
unicode = 20013;
},
{
glyphname = uni4E30;
lastChange = "2025-08-20 16:43:06 +0000";
layers = (
{
.lastUpdate = 777603456.364;
layerId = m01;
shapes = (
{
closed = 1;
nodes = (
(540,-78,l),
(540,145,l),
(948,145,l),
(948,220,l),
(540,220,l),
(540,382,l),
(852,382,l),
(852,455,l),
(540,455,l),
(540,613,l),
(860,613,l),
(860,688,l),
(540,688,l),
(540,841,l),
(460,841,l),
(460,688,l),
(140,688,l),
(140,613,l),
(460,613,l),
(460,455,l),
(148,455,l),
(148,382,l),
(460,382,l),
(460,220,l),
(52,220,l),
(52,145,l),
(460,145,l),
(460,-78,l)
);
},
{
closed = 1;
nodes = (
(0,0,o),
(0,0,o)
);
}
);
width = 1000;
}
);
unicode = 20016;
},
{
glyphname = uni4E36;
lastChange = "2025-08-20 16:43:06 +0000";
layers = (
{
.lastUpdate = 777603456.364;
layerId = m01;
shapes = (
{
closed = 1;
nodes = (
(693,244,l),
(613,340,o),
(496,463,o),
(376,567,c),
(317,513,l),
(435,408,o),
(554,279,o),
(629,188,c)
);
}
);
width = 1000;
}
);
unicode = 20022;
},
{
glyphname = uni4E38;
lastChange = "2025-08-20 16:43:06 +0000";
layers = (
{
.lastUpdate = 777603456.364;
layerId = m01;
shapes = (
{
closed = 1;
nodes = (
(843,-61,ls),
(929,-61,o),
(947,2,o),
(954,187,c),
(873,201,l),
(869,40,o),
(864,16,o),
(827,16,cs),
(731,16,ls),
(708,16,o),
(701,21,o),
(701,33,cs),
(701,53,o),
(707,103,o),
(797,607,c),
(726,633,l),
(704,624,l),
(98,624,l),
(98,543,l),
(699,543,l),
(626,129,o),
(618,73,o),
(618,24,cs),
(618,-47,o),
(643,-61,o),
(725,-61,cs)
);
},
{
closed = 1;
nodes = (
(402,101,o),
(442,350,o),
(483,830,c),
(400,834,l),
(359,354,o),
(325,145,o),
(53,-17,c),
(111,-76,l)
);
},
{
closed = 1;
nodes = (
(588,281,l),
(484,324,o),
(301,378,o),
(152,416,c),
(116,350,l),
(267,308,o),
(454,250,o),
(551,206,c)
);
}
);
width = 1000;
}
);
unicode = 20024;
},
{
glyphname = uni4E39;
lastChange = "2025-08-20 16:43:06 +0000";
layers = (
{
.lastUpdate = 777603456.364;
layerId = m01;
shapes = (
{
closed = 1;
nodes = (
(294,99,o),
(297,229,o),
(297,427,cs),
(297,698,l),
(358,717,o),
(409,722,o),
(491,722,cs),
(640,722,ls),
(688,722,o),
(723,696,o),
(723,648,cs),
(723,42,ls),
(723,23,o),
(713,15,o),
(700,15,cs),
(671,15,o),
(632,20,o),
(584,36,c),
(584,-42,l),
(627,-53,o),
(667,-59,o),
(701,-59,cs),
(771,-59,o),
(800,-39,o),
(800,36,cs),
(800,652,ls),
(800,741,o),
(748,797,o),
(644,797,cs),
(489,797,ls),
(406,797,o),
(356,787,o),
(294,761,c),
(294,790,l),
(220,790,l),
(220,427,ls),
(220,246,o),
(213,119,o),
(96,-16,c),
(160,-62,l)
);
},
{
closed = 1;
nodes = (
(952,266,l),
(952,342,l),
(50,342,l),
(50,266,l)
);
},
{
closed = 1;
nodes = (
(662,472,l),
(571,538,o),
(494,588,o),
(410,640,c),
(356,583,l),
(447,526,o),
(521,475,o),
(606,408,c)
);
}
);
width = 1000;
}
);
unicode = 20025;
},
{
glyphname = uni4E3B;
lastChange = "2025-08-20 16:43:06 +0000";
layers = (
{
.lastUpdate = 777603456.364;
layerId = m01;
shapes = (
{
closed = 1;
nodes = (
(609,526,l),
(897,526,l),
(897,599,l),
(103,599,l),
(103,526,l),
(530,526,l),
(530,387,l),
(609,312,l)
);
},
{
closed = 1;
nodes = (
(950,-46,l),
(950,27,l),
(58,27,l),
(58,-46,l)
);
},
{
closed = 1;
nodes = (
(500,27,l),
(584,71,o),
(656,152,o),
(656,268,cs),
(656,371,o),
(590,419,o),
(481,419,cs),
(374,419,o),
(308,361,o),
(308,281,cs),
(308,192,o),
(387,140,o),
(481,140,cs),
(509,140,o),
(532,148,o),
(552,161,c),
(521,102,o),
(434,45,o),
(353,27,c)
);
},
{
closed = 1;
nodes = (
(423,217,o),
(391,242,o),
(391,281,cs),
(391,315,o),
(424,346,o),
(481,346,cs),
(535,346,o),
(568,317,o),
(568,284,cs),
(568,238,o),
(531,217,o),
(481,217,cs)
);
},
{
closed = 1;
nodes = (
(673,735,l),
(603,762,o),
(452,810,o),
(348,836,c),
(321,772,l),
(419,749,o),
(573,693,o),
(644,663,c)
);
}
);
vertWidth = 1000;
width = 1000;
}
);
note = cid09562;
unicode = 20027;
},
{
glyphname = uni4E3D;
lastChange = "2025-08-20 16:43:06 +0000";
layers = (
{
.lastUpdate = 777603456.364;
layerId = m01;
shapes = (
{
closed = 1;
nodes = (
(815,-60,o),
(932,54,o),
(932,231,cs),
(932,380,o),
(854,487,o),
(730,487,cs),
(697,487,o),
(670,481,o),
(643,471,c),
(725,552,o),
(828,660,o),
(896,748,c),
(836,808,l),
(822,797,l),
(488,797,l),
(488,720,l),
(773,720,l),
(718,646,o),
(613,526,o),
(541,455,cs),
(526,440,o),
(508,430,o),
(487,419,c),
(522,350,l),
(573,395,o),
(650,416,o),
(710,416,cs),
(802,416,o),
(853,340,o),
(853,232,cs),
(853,80,o),
(761,17,o),
(661,17,cs),
(607,17,o),
(575,46,o),
(575,98,cs),
(575,137,o),
(594,173,o),
(625,173,cs),
(674,173,o),
(707,125,o),
(716,5,c),
(772,22,l),
(759,169,o),
(705,239,o),
(625,239,cs),
(557,239,o),
(511,179,o),
(511,98,cs),
(511,7,o),
(572,-60,o),
(669,-60,cs)
);
},
{
closed = 1;
nodes = (
(349,-62,o),
(412,119,o),
(412,262,cs),
(412,383,o),
(351,505,o),
(201,561,c),
(175,498,l),
(295,448,o),
(335,349,o),
(335,262,cs),
(335,155,o),
(295,20,o),
(201,20,cs),
(166,20,o),
(140,43,o),
(140,104,cs),
(140,220,o),
(235,308,o),
(425,441,c),
(379,496,l),
(192,370,o),
(59,245,o),
(59,104,cs),
(59,-17,o),
(119,-62,o),
(201,-62,cs)
);
},
{
closed = 1;
nodes = (
(322,582,o),
(396,687,o),
(434,760,c),
(382,799,l),
(366,791,l),
(76,791,l),
(76,714,l),
(321,714,l),
(290,651,o),
(246,582,o),
(211,533,c),
(262,509,l)
);
}
);
width = 1000;
}
);
unicode = 20029;
},
{
glyphname = uni4E3F;
lastChange = "2025-08-20 16:43:06 +0000";
layers = (
{
.lastUpdate = 777603456.364;
layerId = m01;
shapes = (
{
closed = 1;
nodes = (
(649,150,o),
(721,545,o),
(730,813,c),
(646,813,l),
(638,551,o),
(588,220,o),
(193,-7,c),
(254,-66,l)
);
}
);
width = 1000;
}
);
unicode = 20031;
},
{
glyphname = uni4E45;
lastChange = "2025-08-20 16:43:06 +0000";
layers = (
{
.lastUpdate = 777603456.364;
layerId = m01;
shapes = (
{
closed = 1;
nodes = (
(418,66,o),
(652,374,o),
(725,657,c),
(671,684,l),
(656,678,l),
(324,678,l),
(324,602,l),
(626,602,l),
(536,311,o),
(289,94,o),
(44,-10,c),
(93,-83,l)
);
},
{
closed = 1;
nodes = (
(253,439,o),
(372,633,o),
(436,821,c),
(356,840,l),
(285,645,o),
(169,469,o),
(33,360,c),
(100,305,l)
);
},
{
closed = 1;
nodes = (
(951,-14,l),
(819,130,o),
(690,244,o),
(545,348,c),
(494,289,l),
(629,190,o),
(756,72,o),
(886,-74,c)
);
}
);
vertWidth = 1000;
width = 1000;
}
);
note = cid09574;
unicode = 20037;
},
{
glyphname = uni4E47;
lastChange = "2025-08-20 16:43:06 +0000";
layers = (
{
.lastUpdate = 777603456.364;
layerId = m01;
shapes = (
{
closed = 1;
nodes = (
(782,-61,ls),
(885,-61,o),
(905,-7,o),
(917,167,c),
(839,189,l),
(832,52,o),
(824,20,o),
(770,20,cs),
(563,20,ls),
(508,20,o),
(498,33,o),
(498,83,cs),
(498,732,l),
(416,732,l),
(416,79,ls),
(416,-32,o),
(440,-61,o),
(542,-61,cs)
);
},
{
closed = 1;
nodes = (
(891,382,l),
(888,463,l),
(68,427,l),
(71,346,l)
);
},
{
closed = 1;
nodes = (
(340,665,o),
(630,699,o),
(833,749,c),
(792,823,l),
(617,775,o),
(328,742,o),
(80,726,c),
(97,651,l)
);
}
);
width = 1000;
}
);
unicode = 20039;
},
{
glyphname = uni4E48;
lastChange = "2025-08-20 16:43:06 +0000";
layers = (
{
.lastUpdate = 777603456.364;
layerId = m01;
shapes = (
{
closed = 1;
nodes = (
(402,165,o),
(559,395,o),
(642,556,c),
(560,591,l),
(480,423,o),
(328,198,o),
(185,44,c),
(258,8,l)
);
},
{
closed = 1;
nodes = (
(829,21,l),
(817,95,l),
(113,50,l),
(124,-33,l)
);
},
{
closed = 1;
nodes = (
(924,-23,l),
(870,79,o),
(758,218,o),
(653,319,c),
(588,277,l),
(677,187,o),
(796,36,o),
(849,-69,c)
);
},
{
closed = 1;
nodes = (
(308,476,o),
(421,623,o),
(521,792,c),
(440,824,l),
(352,663,o),
(237,523,o),
(98,399,c),
(162,342,l)
);
}
);
vertWidth = 1000;
width = 1000;
}
);
note = cid09578;
unicode = 20040;
},
{
glyphname = uni4E4B;
lastChange = "2025-08-20 16:43:06 +0000";
layers = (
{
.lastUpdate = 777603456.364;
layerId = m01;
shapes = (
{
closed = 1;
nodes = (
(571,226,o),
(743,378,o),
(880,557,c),
(804,606,l),
(787,595,l),
(150,595,l),
(150,513,l),
(733,513,l),
(632,393,o),
(481,253,o),
(329,150,c),
(401,107,l)
);
},
{
closed = 1;
nodes = (
(0,0,o),
(0,0,o)
);
},
{
closed = 1;
nodes = (
(0,0,o),
(0,0,o)
);
},
{
closed = 1;
nodes = (
(949,20,l),
(667,99,o),
(386,159,o),
(119,204,c),
(77,129,l),
(363,78,o),
(641,17,o),
(916,-61,c)
);
},
{
closed = 1;
nodes = (
(597,652,l),
(574,698,o),
(525,774,o),
(477,835,c),
(406,799,l),
(454,739,o),
(502,659,o),
(522,611,c)
);
}
);
vertWidth = 1000;
width = 1000;
}
);
note = cid09583;
unicode = 20043;
},
{
glyphname = uni4E4D;
lastChange = "2025-08-20 16:43:06 +0000";
layers = (
{
.lastUpdate = 777603456.364;
layerId = m01;
shapes = (
{
closed = 1;
nodes = (
(759,-65,ls),
(864,-65,o),
(885,-11,o),
(897,163,c),
(817,188,l),
(810,45,o),
(802,13,o),
(746,13,cs),
(311,13,ls),
(255,13,o),
(244,26,o),
(244,76,cs),
(244,816,l),
(163,816,l),
(163,75,ls),
(163,-36,o),
(188,-65,o),
(293,-65,cs)
);
},
{
closed = 1;
nodes = (
(535,237,o),
(678,367,o),
(800,506,c),
(710,546,l),
(599,413,o),
(458,277,o),
(345,185,c),
(410,138,l)
);
},
{
closed = 1;
nodes = (
(491,528,o),
(593,626,o),
(701,748,c),
(611,787,l),
(517,671,o),
(417,566,o),
(327,486,c),
(392,444,l)
);
}
);
width = 1000;
}
);
unicode = 20045;
},
{
glyphname = uni4E4E;
lastChange = "2025-08-20 16:43:06 +0000";
layers = (
{
.lastUpdate = 777603456.365;
layerId = m01;
shapes = (
{
closed = 1;
nodes = (
(515,-82,o),
(549,-55,o),
(549,22,cs),
(549,734,l),
(469,734,l),
(469,22,ls),
(469,1,o),
(461,-6,o),
(438,-6,cs),
(395,-6,o),
(327,2,o),
(263,21,c),
(263,-66,l),
(323,-77,o),
(391,-82,o),
(458,-82,cs)
);
},
{
closed = 1;
nodes = (
(329,432,l),
(313,489,o),
(272,579,o),
(231,647,c),
(158,625,l),
(199,554,o),
(245,463,o),
(259,405,c)
);
},
{
closed = 1;
nodes = (
(959,345,l),
(738,374,o),
(444,375,o),
(55,344,c),
(55,272,l),
(439,300,o),
(734,293,o),
(939,266,c)
);
},
{
closed = 1;
nodes = (
(373,688,o),
(664,719,o),
(858,758,c),
(819,826,l),
(655,793,o),
(360,768,o),
(119,759,c),
(136,682,l)
);
},
{
closed = 1;
nodes = (
(774,466,o),
(824,561,o),
(863,640,c),
(780,667,l),
(755,595,o),
(711,494,o),
(673,432,c),
(735,407,l)
);
}
);
vertWidth = 1000;
width = 1000;
}
);
note = cid09586;
unicode = 20046;
},
{
glyphname = uni4E4F;
lastChange = "2025-08-20 16:43:06 +0000";
layers = (
{
.lastUpdate = 777603456.365;
layerId = m01;
shapes = (
{
closed = 1;
nodes = (
(559,260,o),
(722,420,o),
(845,577,c),
(760,626,l),
(654,473,o),
(488,297,o),
(291,150,c),
(361,107,l)
);
},
{
closed = 1;
nodes = (
(946,17,l),
(664,96,o),
(383,156,o),
(116,201,c),
(77,129,l),
(363,78,o),
(641,17,o),
(916,-61,c)
);
},
{
closed = 1;
nodes = (
(455,387,l),
(403,444,o),
(314,519,o),
(230,585,c),
(166,529,l),
(257,465,o),
(333,401,o),
(387,341,c)
);
},
{
closed = 1;
nodes = (
(383,665,o),
(674,699,o),
(877,749,c),
(836,823,l),
(661,775,o),
(371,742,o),
(123,726,c),
(140,651,l)
);
}
);
width = 1000;
}
);
unicode = 20047;
},
{
glyphname = uni4E52;
lastChange = "2025-08-20 16:43:06 +0000";
layers = (
{
.lastUpdate = 777603456.365;
layerId = m01;
shapes = (
{
closed = 1;
nodes = (
(255,283,l),
(255,695,l),
(466,704,o),
(695,724,o),
(853,755,c),
(795,831,l),
(654,802,o),
(394,781,o),
(174,773,c),
(174,283,l)
);
},
{
closed = 1;
nodes = (
(218,-8,o),
(342,77,o),
(417,167,c),
(333,203,l),
(276,126,o),
(161,39,o),
(50,-13,c),
(109,-70,l)
);
},
{
closed = 1;
nodes = (
(930,230,l),
(930,311,l),
(70,311,l),
(70,230,l)
);
},
{
closed = 1;
nodes = (
(820,299,o),
(844,362,o),
(844,432,cs),
(844,536,o),
(767,607,o),
(583,607,cs),
(429,607,o),
(334,568,o),
(255,519,c),
(255,444,l),
(367,502,o),
(470,525,o),
(583,525,cs),
(676,525,o),
(762,490,o),
(762,432,cs),
(762,372,o),
(745,324,o),
(704,271,c),
(770,238,l)
);
}
);
width = 1000;
}
);
unicode = 20050;
},
{
glyphname = uni4E53;
lastChange = "2025-08-20 16:43:06 +0000";
layers = (
{
.lastUpdate = 777603456.365;
layerId = m01;
shapes = (
{
closed = 1;
nodes = (
(255,283,l),
(255,695,l),
(466,704,o),
(695,724,o),
(853,755,c),
(795,831,l),
(654,802,o),
(394,781,o),
(174,773,c),
(174,283,l)
);
},
{
closed = 1;
nodes = (
(930,230,l),
(930,311,l),
(70,311,l),
(70,230,l)
);
},
{
closed = 1;
nodes = (
(945,-14,l),
(877,55,o),
(756,150,o),
(656,222,c),
(593,177,l),
(691,102,o),
(810,7,o),
(875,-63,c)
);
},
{
closed = 1;
nodes = (
(820,299,o),
(844,362,o),
(844,432,cs),
(844,536,o),
(767,607,o),
(583,607,cs),
(429,607,o),
(334,568,o),
(255,519,c),
(255,444,l),
(367,502,o),
(470,525,o),
(583,525,cs),
(676,525,o),
(762,490,o),
(762,432,cs),
(762,372,o),
(745,324,o),
(704,271,c),
(770,238,l)
);
}
);
width = 1000;
}
);
unicode = 20051;
},
{
glyphname = uni4E56;
lastChange = "2025-08-20 16:43:06 +0000";
layers = (
{
.lastUpdate = 777603456.365;
layerId = m01;
shapes = (
{
closed = 1;
nodes = (
(305,40,o),
(434,142,o),
(434,246,cs),
(434,324,o),
(411,390,o),
(271,455,c),
(225,413,l),
(339,354,o),
(356,302,o),
(356,246,cs),
(356,174,o),
(261,105,o),
(187,107,cs),
(146,108,o),
(132,124,o),
(132,147,cs),
(132,209,o),
(362,309,o),
(733,335,c),
(733,125,l),
(604,125,l),
(604,57,l),
(943,55,l),
(943,125,l),
(814,125,l),
(814,396,l),
(750,421,l),
(732,408,l),
(352,378,o),
(59,271,o),
(59,147,cs),
(59,84,o),
(98,40,o),
(187,40,cs)
);
},
{
closed = 1;
nodes = (
(227,383,o),
(336,452,o),
(426,533,c),
(359,577,l),
(284,505,o),
(169,430,o),
(75,382,c),
(122,331,l)
);
},
{
closed = 1;
nodes = (
(493,-78,o),
(547,-44,o),
(547,16,cs),
(547,834,l),
(468,834,l),
(468,29,ls),
(468,10,o),
(453,-5,o),
(428,-5,cs),
(375,-6,o),
(320,3,o),
(266,20,c),
(266,-62,l),
(323,-74,o),
(370,-78,o),
(441,-78,cs)
);
},
{
closed = 1;
nodes = (
(843,577,l),
(676,599,o),
(452,596,o),
(157,572,c),
(157,504,l),
(448,525,o),
(672,522,o),
(827,502,c)
);
},
{
closed = 1;
nodes = (
(447,650,o),
(672,669,o),
(938,716,c),
(912,787,l),
(645,740,o),
(442,720,o),
(70,710,c),
(75,640,l)
);
}
);
width = 1000;
}
);
unicode = 20054;
},
{
glyphname = uni4E58;
lastChange = "2025-08-20 16:43:06 +0000";
layers = (
{
.lastUpdate = 777603456.365;
layerId = m01;
shapes = (
{
closed = 1;
nodes = (
(510,-73,o),
(554,-53,o),
(554,-5,cs),
(554,216,l),
(655,261,o),
(753,318,o),
(823,371,c),
(750,412,l),
(733,401,l),
(214,401,l),
(214,329,l),
(635,329,l),
(584,296,o),
(537,275,o),
(474,251,c),
(474,23,ls),
(474,4,o),
(462,-4,o),
(440,-4,cs),
(391,-5,o),
(334,4,o),
(272,21,c),
(272,-58,l),
(330,-69,o),
(392,-73,o),
(457,-73,cs)
);
},
{
closed = 1;
nodes = (
(201,65,o),
(263,154,o),
(294,233,c),
(215,252,l),
(191,180,o),
(139,99,o),
(59,32,c),
(119,-4,l)
);
},
{
closed = 1;
nodes = (
(402,420,l),
(392,497,o),
(372,579,o),
(343,654,c),
(264,639,l),
(293,564,o),
(312,482,o),
(321,405,c)
);
},
{
closed = 1;
nodes = (
(941,15,l),
(910,79,o),
(837,181,o),
(753,256,c),
(681,231,l),
(765,154,o),
(837,52,o),
(862,-10,c)
);
},
{
closed = 1;
nodes = (
(927,500,l),
(927,574,l),
(73,574,l),
(73,500,l)
);
},
{
closed = 1;
nodes = (
(683,450,o),
(725,576,o),
(748,680,c),
(662,686,l),
(644,585,o),
(604,463,o),
(556,369,c),
(633,359,l)
);
},
{
closed = 1;
nodes = (
(383,679,o),
(674,713,o),
(877,763,c),
(836,833,l),
(661,785,o),
(371,752,o),
(123,736,c),
(140,665,l)
);
}
);
width = 1000;
}
);
unicode = 20056;
},
{
glyphname = uni4E59;
lastChange = "2025-08-20 16:43:06 +0000";
layers = (
{
.lastUpdate = 777603456.365;
layerId = m01;
shapes = (
{
closed = 1;
nodes = (
(758,-40,ls),
(884,-40,o),
(925,8,o),
(938,217,c),
(856,234,l),
(849,65,o),
(836,42,o),
(764,42,cs),
(308,42,ls),
(231,42,o),
(188,60,o),
(188,103,cs),
(188,156,o),
(248,239,o),
(832,719,c),
(768,771,l),
(750,761,l),
(115,761,l),
(115,677,l),
(653,677,l),
(136,247,o),
(90,168,o),
(90,103,cs),
(90,5,o),
(160,-40,o),
(307,-40,cs)
);
}
);
width = 1000;
}
);
unicode = 20057;
},
{
glyphname = uni4E5A;
lastChange = "2025-08-20 16:43:06 +0000";
layers = (
{
.lastUpdate = 777603456.365;
layerId = m01;
shapes = (
{
closed = 1;
nodes = (
(759,-65,ls),
(864,-65,o),
(885,-11,o),
(897,163,c),
(817,188,l),
(810,45,o),
(802,13,o),
(746,13,cs),
(311,13,ls),
(255,13,o),
(244,26,o),
(244,76,cs),
(244,816,l),
(163,816,l),
(163,75,ls),
(163,-36,o),
(188,-65,o),
(293,-65,cs)
);
}
);
width = 1000;
}
);
unicode = 20058;
},
{
glyphname = uni4E5D;
lastChange = "2025-08-20 16:43:06 +0000";
layers = (
{
.lastUpdate = 777603456.365;
layerId = m01;
shapes = (
{
closed = 1;
nodes = (
(843,-61,ls),
(929,-61,o),
(947,2,o),
(954,187,c),
(873,201,l),
(869,40,o),
(864,16,o),
(827,16,cs),
(741,16,ls),
(718,16,o),
(708,21,o),
(708,33,cs),
(708,53,o),
(708,94,o),
(774,587,c),
(706,613,l),
(684,604,l),
(98,604,l),
(98,523,l),
(679,523,l),
(631,122,o),
(628,73,o),
(628,24,cs),
(628,-47,o),
(653,-61,o),
(735,-61,cs)
);
},
{
closed = 1;
nodes = (
(402,101,o),
(442,350,o),
(473,830,c),
(390,834,l),
(359,354,o),
(325,145,o),
(53,-17,c),
(111,-76,l)
);
}
);
width = 1000;
}
);
unicode = 20061;
},
{
glyphname = uni4E5E;
lastChange = "2025-08-20 16:43:06 +0000";
layers = (
{
.lastUpdate = 777603456.365;
layerId = m01;
shapes = (
{
closed = 1;
nodes = (
(785,-61,ls),
(892,-61,o),
(925,-23,o),
(937,181,c),
(862,204,l),
(856,41,o),
(843,17,o),
(791,17,cs),
(312,17,ls),
(255,17,o),
(231,29,o),
(231,57,cs),
(231,97,o),
(342,179,o),
(840,408,c),
(805,498,l),
(784,483,l),
(229,483,l),
(229,405,l),
(628,405,l),
(238,210,o),
(141,126,o),
(141,57,cs),
(141,-22,o),
(185,-61,o),
(307,-61,cs)
);
},
{
closed = 1;
nodes = (
(204,548,o),
(274,692,o),
(315,833,c),
(243,850,l),
(202,709,o),
(131,574,o),
(48,489,c),
(113,446,l)
);
},
{
closed = 1;
nodes = (
(927,626,l),
(927,703,l),
(207,703,l),
(207,626,l)
);
}
);
width = 1000;
}
);
unicode = 20062;
},
{
glyphname = uni4E5F;
lastChange = "2025-08-20 16:43:06 +0000";
layers = (
{
.lastUpdate = 777603456.365;
layerId = m01;
shapes = (
{
closed = 1;
nodes = (
(785,2,l),
(504,48,o),
(244,253,o),
(207,665,c),
(130,655,l),
(169,219,o),
(444,-26,o),
(742,-77,c)
);
},
{
closed = 1;
nodes = (
(864,277,o),
(926,345,o),
(926,475,cs),
(926,550,o),
(867,650,o),
(690,651,cs),
(432,652,o),
(223,519,o),
(30,378,c),
(76,314,l),
(266,461,o),
(477,572,o),
(690,572,cs),
(806,572,o),
(842,514,o),
(842,467,cs),
(842,405,o),
(794,326,o),
(667,264,c),
(708,193,l)
);
},
{
closed = 1;
nodes = (
(579,359,l),
(579,838,l),
(500,838,l),
(500,359,l)
);
}
);
vertWidth = 1000;
width = 1000;
}
);
note = cid09608;
unicode = 20063;
},
{
glyphname = uni4E73;
lastChange = "2025-08-20 19:11:38 +0000";
layers = (
{
.lastUpdate = 777603456.366;
layerId = m01;
shapes = (
{
closed = 1;
nodes = (
(799,-59,ls),
(904,-59,o),
(925,-5,o),
(937,169,c),
(859,194,l),
(852,49,o),
(844,17,o),
(788,17,cs),
(748,17,ls),
(692,17,o),
(681,30,o),
(681,80,cs),
(681,816,l),
(603,816,l),
(603,81,ls),
(603,-30,o),
(628,-59,o),
(733,-59,cs)
);
},
{
closed = 1;
nodes = (
(422,-66,o),
(513,97,o),
(513,216,cs),
(513,317,o),
(477,407,o),
(284,454,c),
(260,390,l),
(413,348,o),
(433,288,o),
(433,216,cs),
(433,128,o),
(352,8,o),
(233,8,cs),
(180,8,o),
(138,25,o),
(138,76,cs),
(138,162,o),
(269,234,o),
(514,344,c),
(470,400,l),
(230,296,o),
(59,183,o),
(59,76,cs),
(59,-24,o),
(126,-66,o),
(233,-66,cs)
);
},
{
closed = 1;
nodes = (
(240,459,l),
(219,512,o),
(183,584,o),
(140,644,c),
(81,610,l),
(123,549,o),
(159,480,o),
(179,425,c)
);
},
{
closed = 1;
nodes = (
(426,472,o),
(483,560,o),
(533,651,c),
(458,683,l),
(418,596,o),
(360,501,o),
(293,434,c),
(353,400,l)
);
},
{
closed = 1;
nodes = (
(228,684,o),
(412,714,o),
(541,758,c),
(515,833,l),
(404,791,o),
(220,762,o),
(63,748,c),
(74,672,l)
);
}
);
width = 1000;
}
);
unicode = 20083;
},
{
glyphname = uni4E82;
lastChange = "2025-08-20 16:43:06 +0000";
layers = (
{
.lastUpdate = 777603456.366;
layerId = m01;
shapes = (
{
closed = 1;
nodes = (
(423,373,o),
(659,513,o),
(860,800,c),
(785,833,l),
(585,552,o),
(382,432,o),
(88,311,c),
(132,247,l)
);
},
{
closed = 1;
nodes = (
(392,-73,o),
(484,41,o),
(484,163,cs),
(484,270,o),
(426,355,o),
(323,401,c),
(275,349,l),
(353,309,o),
(404,252,o),
(404,163,cs),
(404,74,o),
(346,-4,o),
(220,-4,cs),
(181,-4,o),
(161,9,o),
(161,32,cs),
(161,78,o),
(363,242,o),
(616,293,c),
(616,72,ls),
(616,-29,o),
(639,-58,o),
(721,-58,cs),
(832,-58,ls),
(918,-58,o),
(936,7,o),
(943,188,c),
(866,203,l),
(862,45,o),
(857,21,o),
(820,21,cs),
(734,21,ls),
(702,21,o),
(696,30,o),
(696,76,cs),
(696,348,l),
(638,377,l),
(615,362,l),
(315,298,o),
(80,129,o),
(80,32,cs),
(80,-41,o),
(134,-73,o),
(220,-73,cs)
);
},
{
closed = 1;
nodes = (
(902,398,o),
(918,443,o),
(918,498,cs),
(918,591,o),
(820,612,o),
(628,612,cs),
(438,612,o),
(266,564,o),
(159,487,c),
(159,581,l),
(82,581,l),
(82,388,l),
(159,388,l),
(159,437,l),
(266,509,o),
(469,539,o),
(628,539,cs),
(795,539,o),
(838,521,o),
(838,497,cs),
(838,464,o),
(824,419,o),
(797,384,c),
(873,356,l)
);
},
{
closed = 1;
nodes = (
(496,635,l),
(496,700,l),
(168,700,l),
(168,635,l)
);
},
{
closed = 1;
nodes = (
(496,748,l),
(496,813,l),
(168,813,l),
(168,748,l)
);
}
);
width = 1000;
}
);
unicode = (20098,20081);
},
{
glyphname = uni4E86;
lastChange = "2025-08-20 16:43:06 +0000";
layers = (
{
.lastUpdate = 777603456.366;
layerId = m01;
shapes = (
{
closed = 1;
nodes = (
(510,-73,o),
(554,-32,o),
(554,28,cs),
(554,449,l),
(672,522,o),
(792,621,o),
(883,720,c),
(820,771,l),
(803,760,l),
(114,760,l),
(114,684,l),
(735,684,l),
(664,615,o),
(563,540,o),
(474,487,c),
(474,33,ls),
(474,14,o),
(462,0,o),
(440,-1,cs),
(407,-3,o),
(344,4,o),
(272,28,c),
(272,-53,l),
(330,-67,o),
(397,-73,o),
(457,-73,cs)
);
}
);
vertWidth = 1000;
width = 1000;
}
);
note = cid09661;
unicode = 20102;
},
{
glyphname = uni4E88;
lastChange = "2025-08-20 16:43:06 +0000";
layers = (
{
.lastUpdate = 777603456.366;
layerId = m01;
shapes = (
{
closed = 1;
nodes = (
(867,282,o),
(919,349,o),
(963,410,c),
(899,461,l),
(885,450,l),
(64,450,l),
(64,374,l),
(836,374,l),
(813,334,o),
(783,293,o),
(751,253,c),
(813,221,l)
);
},
{
closed = 1;
nodes = (
(523,-78,o),
(555,-58,o),
(555,16,cs),
(555,410,l),
(478,410,l),
(478,29,ls),
(478,10,o),
(466,-4,o),
(444,-5,cs),
(401,-7,o),
(342,-1,o),
(280,20,c),
(280,-62,l),
(328,-75,o),
(390,-80,o),
(453,-79,cs)
);
},
{
closed = 1;
nodes = (
(686,534,l),
(572,588,o),
(482,623,o),
(347,644,c),
(322,578,l),
(457,551,o),
(546,519,o),
(648,469,c)
);
},
{
closed = 1;
nodes = (
(687,604,o),
(806,692,o),
(867,751,c),
(819,807,l),
(803,802,l),
(153,802,l),
(153,723,l),
(712,721,l),
(657,673,o),
(594,628,o),
(521,586,c),
(598,551,l)
);
}
);
width = 1000;
}
);
unicode = 20104;
},
{
glyphname = uni4E8B;
lastChange = "2025-08-20 16:43:06 +0000";
layers = (
{
.lastUpdate = 777603456.366;
layerId = m01;
shapes = (
{
closed = 1;
nodes = (
(785,185,o),
(926,247,o),
(926,392,cs),
(926,536,o),
(694,570,o),
(257,535,c),
(274,465,l),
(637,493,o),
(843,465,o),
(843,385,cs),
(843,298,o),
(737,257,o),
(580,257,cs),
(469,257,o),
(337,264,o),
(179,289,c),
(179,213,l),
(332,191,o),
(464,185,o),
(580,185,cs)
);
},
{
closed = 1;
nodes = (
(517,-78,o),
(549,-58,o),
(549,16,cs),
(549,380,l),
(472,380,l),
(472,29,ls),
(472,10,o),
(460,-4,o),
(438,-5,cs),
(395,-7,o),
(336,-1,o),
(274,20,c),
(274,-62,l),
(322,-75,o),
(384,-80,o),
(447,-79,cs)
);
},
{
closed = 1;
nodes = (
(679,595,o),
(799,672,o),
(872,744,c),
(813,792,l),
(782,779,l),
(119,779,l),
(119,707,l),
(702,707,l),
(659,666,o),
(585,611,o),
(471,537,c),
(535,510,l)
);
}
);
vertWidth = 1000;
width = 1000;
}
);
note = cid09668;
unicode = 20107;
},
{
glyphname = uni4E8C;
lastChange = "2025-08-20 16:43:06 +0000";
layers = (
{
.lastUpdate = 777603456.366;
layerId = m01;
shapes = (
{
closed = 1;
nodes = (
(923,31,l),
(923,115,l),
(77,115,l),
(77,31,l)
);
},
{
closed = 1;
nodes = (
(873,624,l),
(873,706,l),
(127,706,l),
(127,624,l)
);
}
);
width = 1000;
}
);
unicode = 20108;
},
{
glyphname = uni4E8E;
lastChange = "2025-08-20 16:43:06 +0000";
layers = (
{
.lastUpdate = 777603456.366;
layerId = m01;
shapes = (
{
closed = 1;
nodes = (
(515,-79,o),
(549,-44,o),
(549,16,cs),
(549,694,l),
(871,694,l),
(871,769,l),
(129,769,l),
(129,694,l),
(470,694,l),
(470,29,ls),
(470,10,o),
(458,-5,o),
(436,-5,cs),
(387,-5,o),
(341,0,o),
(275,23,c),
(275,-58,l),
(333,-75,o),
(385,-79,o),
(455,-79,cs)
);
},
{
closed = 1;
nodes = (
(944,359,l),
(944,434,l),
(55,434,l),
(55,359,l)
);
}
);
vertWidth = 1000;
width = 1000;
}
);
note = cid09671;
unicode = 20110;
},
{
glyphname = uni4E8F;
lastChange = "2025-08-20 16:43:06 +0000";
layers = (
{
.lastUpdate = 777603456.366;
layerId = m01;
shapes = (
{
closed = 1;
nodes = (
(731,-64,o),
(834,4,o),
(834,143,cs),
(834,281,o),
(696,322,o),
(530,322,cs),
(494,322,o),
(467,321,o),
(437,315,c),
(515,358,o),
(588,407,o),
(653,455,c),
(899,455,l),
(899,536,l),
(101,536,l),
(100,455,l),
(528,455,l),
(477,410,o),
(411,359,o),
(320,309,cs),
(301,299,o),
(273,293,o),
(201,275,c),
(228,208,l),
(325,237,o),
(427,252,o),
(519,252,cs),
(642,252,o),
(752,218,o),
(752,143,cs),
(752,50,o),
(672,10,o),
(585,10,cs),
(539,10,o),
(481,15,o),
(411,27,c),
(411,-51,l),
(470,-61,o),
(529,-64,o),
(595,-64,cs)
);
},
{
closed = 1;
nodes = (
(0,-19,o),
(0,-19,o)
);
},
{
closed = 1;
nodes = (
(851,691,l),
(851,769,l),
(149,769,l),
(149,691,l)
);
}
);
width = 1000;
}
);
unicode = 20111;
},
{
glyphname = uni4E91;
lastChange = "2025-08-20 16:43:06 +0000";
layers = (
{
.lastUpdate = 777603456.366;
layerId = m01;
shapes = (
{
closed = 1;
nodes = (
(178,-17,l),
(794,45,l),
(780,120,l),
(270,72,l),
(359,164,o),
(448,269,o),
(544,394,c),
(460,431,l),
(369,298,o),
(270,177,o),
(184,85,cs),
(159,58,o),
(135,50,o),
(108,43,c),
(141,-34,l)
);
},
{
closed = 1;
nodes = (
(0,0,o),
(0,0,o)
);
},
{
closed = 1;
nodes = (
(896,-35,l),
(850,66,o),
(781,186,o),
(697,298,c),
(626,267,l),
(709,153,o),
(770,31,o),
(817,-66,c)
);
},
{
closed = 1;
nodes = (
(944,384,l),
(944,463,l),
(55,463,l),
(55,384,l)
);
},
{
closed = 1;
nodes = (
(871,684,l),
(871,762,l),
(129,762,l),
(129,684,l)
);
}
);
width = 1000;
}
);
unicode = 20113;
},
{
glyphname = uni4E92;
lastChange = "2025-08-20 16:43:06 +0000";
layers = (
{
.lastUpdate = 777603456.366;
layerId = m01;
shapes = (
{
closed = 1;
nodes = (
(785,123,o),
(836,229,o),
(836,384,cs),
(836,506,o),
(774,578,o),
(650,578,cs),
(547,578,o),
(482,556,o),
(405,521,c),
(429,453,l),
(501,487,o),
(572,506,o),
(650,506,cs),
(724,506,o),
(756,463,o),
(756,384,cs),
(756,274,o),
(707,141,o),
(592,36,c),
(664,1,l)
);
},
{
closed = 1;
nodes = (
(945,-21,l),
(945,56,l),
(55,56,l),
(55,-21,l)
);
},
{
closed = 1;
nodes = (
(511,183,ls),
(573,183,o),
(622,215,o),
(622,272,cs),
(622,327,o),
(588,390,o),
(558,431,c),
(488,405,l),
(521,366,o),
(541,324,o),
(541,290,cs),
(541,266,o),
(521,258,o),
(500,258,cs),
(290,258,ls),
(260,258,o),
(248,270,o),
(248,289,cs),
(248,333,o),
(284,436,o),
(403,635,c),
(331,666,l),
(205,460,o),
(165,355,o),
(165,274,cs),
(165,223,o),
(199,183,o),
(285,183,cs)
);
},
{
closed = 1;
nodes = (
(899,718,l),
(899,795,l),
(101,795,l),
(101,718,l)
);
}
);
width = 1000;
}
);
unicode = 20114;
},
{
glyphname = uni4E93;
lastChange = "2025-08-20 16:43:06 +0000";
layers = (
{
.lastUpdate = 777603456.367;
layerId = m01;
shapes = (
{
closed = 1;
nodes = (
(208,19,o),
(322,130,o),
(391,248,c),
(312,286,l),
(259,186,o),
(154,71,o),
(52,2,c),
(108,-63,l)
);
},
{
closed = 1;
nodes = (
(937,-12,l),
(875,75,o),
(764,194,o),
(672,284,c),
(612,232,l),
(702,139,o),
(811,19,o),
(871,-68,c)
);
},
{
closed = 1;
nodes = (
(944,384,l),
(944,463,l),
(55,463,l),
(55,384,l)
);
},
{
closed = 1;
nodes = (
(871,684,l),
(871,762,l),
(129,762,l),
(129,684,l)
);
}
);
width = 1000;
}
);
unicode = 20115;
},
{
glyphname = uni4E94;
lastChange = "2025-08-20 16:43:06 +0000";
layers = (
{
.lastUpdate = 777603456.367;
layerId = m01;
shapes = (
{
closed = 1;
nodes = (
(758,-40,ls),
(884,-40,o),
(925,8,o),
(938,217,c),
(853,234,l),
(846,63,o),
(836,37,o),
(764,37,cs),
(298,37,ls),
(221,37,o),
(171,58,o),
(171,107,cs),
(171,160,o),
(215,243,o),
(805,723,c),
(748,766,l),
(730,758,l),
(95,758,l),
(95,681,l),
(633,681,l),
(116,251,o),
(90,176,o),
(90,101,cs),
(90,13,o),
(160,-40,o),
(307,-40,cs)
);
},
{
closed = 1;
nodes = (
(716,327,l),
(575,401,o),
(387,482,o),
(217,528,c),
(183,458,l),
(349,415,o),
(531,333,o),
(669,261,c)
);
}
);
vertWidth = 1000;
width = 1000;
}
);
note = cid09681;
unicode = 20116;
},
{
glyphname = uni4E95;
lastChange = "2025-08-21 21:02:18 +0000";
layers = (
{
.lastUpdate = 777603456.367;
layerId = m01;
shapes = (
{
closed = 1;
nodes = (
(718,-77,o),
(750,-55,o),
(750,14,cs),
(752,810,l),
(673,810,l),
(671,23,ls),
(671,5,o),
(665,-1,o),
(646,-1,cs),
(612,-1,o),
(563,7,o),
(517,22,c),
(517,-62,l),
(568,-72,o),
(621,-77,o),
(673,-77,cs)
);
},
{
closed = 1;
nodes = (
(327,-82,l),
(327,810,l),
(248,810,l),
(248,-82,l)
);
},
{
closed = 1;
nodes = (
(942,224,l),
(942,303,l),
(60,303,l),
(60,224,l)
);
},
{
closed = 1;
nodes = (
(918,556,l),
(918,635,l),
(84,635,l),
(84,556,l)
);
}
);
width = 1000;
}
);
unicode = 20117;
},
{
glyphname = uni4E98;
lastChange = "2025-08-20 16:43:06 +0000";
layers = (
{
.lastUpdate = 777603456.367;
layerId = m01;
shapes = (
{
closed = 1;
nodes = (
(747,296,o),
(811,425,o),
(870,557,c),
(787,592,l),
(732,456,o),
(672,327,o),
(581,186,c),
(651,143,l)
);
},
{
closed = 1;
nodes = (
(945,-16,l),
(945,63,l),
(55,63,l),
(55,-16,l)
);
},
{
closed = 1;
nodes = (
(395,187,l),
(339,323,o),
(274,466,o),
(206,590,c),
(133,547,l),
(202,428,o),
(266,292,o),
(325,149,c)
);
},
{
closed = 1;
nodes = (
(899,706,l),
(899,785,l),
(101,785,l),
(101,706,l)
);
}
);
width = 1000;
}
);
unicode = (20120,20121);
},
{
glyphname = uni4E9B;
lastChange = "2025-08-20 16:43:06 +0000";
layers = (
{
.lastUpdate = 777603456.367;
layerId = m01;
shapes = (
{
closed = 1;
nodes = (
(365,359,o),
(659,477,o),
(917,603,c),
(876,666,l),
(625,545,o),
(339,430,o),
(51,330,c),
(70,253,l)
);
},
{
closed = 1;
nodes = (
(925,-55,l),
(925,19,l),
(76,19,l),
(76,-55,l)
);
},
{
closed = 1;
nodes = (
(824,140,l),
(824,213,l),
(189,213,l),
(189,140,l)
);
},
{
closed = 1;
nodes = (
(183,327,l),
(183,747,l),
(113,747,l),
(113,327,l)
);
},
{
closed = 1;
nodes = (
(458,592,o),
(624,660,o),
(762,726,c),
(708,784,l),
(579,722,o),
(426,657,o),
(249,601,c),
(298,537,l)
);
},
{
closed = 1;
nodes = (
(951,314,l),
(682,384,o),
(526,485,o),
(508,831,c),
(427,831,l),
(436,477,o),
(601,318,o),
(911,248,c)
);
}
);
vertWidth = 1000;
width = 1000;
}
);
note = cid09689;
unicode = 20123;
},
{
glyphname = uni4E9E;
lastChange = "2025-08-20 16:43:06 +0000";
layers = (
{
.lastUpdate = 777603456.367;
layerId = m01;
shapes = (
{
closed = 1;
nodes = (
(955,-21,l),
(955,51,l),
(412,51,l),
(412,706,l),
(932,706,l),
(932,780,l),
(73,780,l),
(73,706,l),
(332,706,l),
(332,51,l),
(45,51,l),
(45,-21,l)
);
},
{
closed = 1;
nodes = (
(273,207,l),
(251,300,o),
(203,439,o),
(159,549,c),
(94,522,l),
(135,414,o),
(183,271,o),
(202,178,c)
);
},
{
closed = 1;
nodes = (
(636,236,l),
(621,329,o),
(584,468,o),
(549,577,c),
(481,558,l),
(513,449,o),
(550,307,o),
(564,214,c)
);
},
{
closed = 1;
nodes = (
(684,51,l),
(776,206,o),
(850,388,o),
(898,554,c),
(819,583,l),
(781,410,o),
(704,206,o),
(607,51,c)
);
}
);
width = 1000;
}
);
unicode = (20126,20122);
},
{
glyphname = uni4E9F;
lastChange = "2025-08-20 16:43:06 +0000";
layers = (
{
.lastUpdate = 777603456.367;
layerId = m01;
shapes = (
{
closed = 1;
nodes = (
(398,116,o),
(521,226,o),
(521,360,cs),
(521,464,o),
(493,573,o),
(320,688,c),
(252,653,l),
(412,537,o),
(443,433,o),
(443,371,cs),
(443,264,o),
(350,187,o),
(259,188,cs),
(184,189,o),
(137,229,o),
(137,271,cs),
(137,328,o),
(197,375,o),
(253,398,cs),
(371,446,o),
(546,475,o),
(703,477,c),
(703,213,l),
(597,213,l),
(597,143,l),
(943,140,l),
(943,213,l),
(784,213,l),
(784,537,l),
(725,565,l),
(707,548,l),
(523,541,o),
(347,512,o),
(218,461,cs),
(134,429,o),
(59,366,o),
(59,275,cs),
(59,181,o),
(124,116,o),
(259,116,cs)
);
},
{
closed = 1;
nodes = (
(894,-40,l),
(894,36,l),
(106,36,l),
(106,-40,l)
);
},
{
closed = 1;
nodes = (
(362,650,o),
(541,710,o),
(717,786,c),
(651,840,l),
(512,776,o),
(314,706,o),
(147,668,c),
(179,607,l)
);
}
);
width = 1000;
}
);
unicode = 20127;
},
{
glyphname = uni4EA1;
lastChange = "2025-08-20 16:43:06 +0000";
layers = (
{
.lastUpdate = 777603456.367;
layerId = m01;
shapes = (
{
closed = 1;
nodes = (
(873,-17,l),
(873,59,l),
(284,59,ls),
(227,59,o),
(201,80,o),
(201,136,cs),
(201,438,l),
(873,438,l),
(873,514,l),
(201,514,l),
(201,659,l),
(124,659,l),
(124,126,ls),
(124,31,o),
(167,-17,o),
(278,-17,cs)
);
},
{
closed = 1;
nodes = (
(656,643,l),
(565,709,o),
(488,759,o),
(404,811,c),
(350,754,l),
(441,697,o),
(515,646,o),
(600,579,c)
);
}
);
width = 1000;
}
);
unicode = 20129;
},
{
glyphname = uni4EA2;
lastChange = "2025-08-20 16:43:06 +0000";
layers = (
{
.lastUpdate = 777603456.367;
layerId = m01;
shapes = (
{
closed = 1;
nodes = (
(413,188,o),
(556,435,o),
(650,633,c),
(825,633,l),
(825,713,l),
(247,713,l),
(247,633,l),
(563,633,l),
(489,474,o),
(340,243,o),
(62,7,c),
(120,-59,l)
);
},
{
closed = 1;
nodes = (
(231,528,o),
(301,672,o),
(342,813,c),
(263,830,l),
(222,689,o),
(151,554,o),
(68,469,c),
(140,426,l)
);
},
{
closed = 1;
nodes = (
(830,-46,ls),
(914,-46,o),
(942,32,o),
(952,236,c),
(871,262,l),
(870,68,o),
(854,35,o),
(820,35,cs),
(680,35,ls),
(651,35,o),
(641,47,o),
(641,82,cs),
(641,277,ls),
(641,381,o),
(535,409,o),
(442,388,c),
(442,315,l),
(526,330,o),
(562,294,o),
(562,238,cs),
(562,80,ls),
(562,-14,o),
(586,-46,o),
(685,-46,cs)
);
}
);
width = 1000;
}
);
unicode = 20130;
},
{
glyphname = uni4EA4;
lastChange = "2025-08-20 16:43:06 +0000";
layers = (
{
.lastUpdate = 777603456.367;
layerId = m01;
shapes = (
{
closed = 1;
nodes = (
(902,-78,o),
(935,-31,o),
(954,142,c),
(882,162,l),
(871,24,o),
(855,2,o),
(812,2,cs),
(727,2,o),
(644,60,o),
(555,236,cs),
(467,411,o),
(442,653,o),
(442,837,c),
(359,837,l),
(361,636,o),
(389,375,o),
(487,188,cs),
(589,-7,o),
(692,-78,o),
(810,-78,cs)
);
},
{
closed = 1;
nodes = (
(435,35,o),
(723,232,o),
(874,467,c),
(800,502,l),
(701,343,o),
(458,115,o),
(85,3,c),
(137,-69,l)
);
},
{
closed = 1;
nodes = (
(362,295,o),
(553,386,o),
(699,508,c),
(642,562,l),
(516,457,o),
(337,367,o),
(125,303,c),
(177,231,l)
);
},
{
closed = 1;
nodes = (
(946,645,l),
(939,717,l),
(56,644,l),
(62,570,l)
);
}
);
vertWidth = 1000;
width = 1000;
}
);
note = cid09708;
unicode = 20132;
},
{
glyphname = uni4EA5;
lastChange = "2025-08-20 16:43:06 +0000";
layers = (
{
.lastUpdate = 777603456.367;
layerId = m01;
shapes = (
{
closed = 1;
nodes = (
(430,-65,o),
(570,74,o),
(570,222,cs),
(570,351,o),
(522,490,o),
(344,480,c),
(411,533,o),
(505,656,o),
(588,806,c),
(503,834,l),
(428,680,o),
(344,558,o),
(273,489,cs),
(256,473,o),
(214,462,o),
(179,445,c),
(205,371,l),
(238,387,o),
(288,401,o),
(344,401,cs),
(428,401,o),
(486,329,o),
(486,222,cs),
(486,115,o),
(392,12,o),
(256,12,cs),
(189,12,o),
(164,36,o),
(164,73,cs),
(164,179,o),
(481,308,o),
(726,321,c),
(726,29,l),
(612,29,l),
(612,-45,l),
(917,-45,l),
(917,29,l),
(803,29,l),
(803,373,l),
(752,412,l),
(729,397,l),
(478,386,o),
(83,263,o),
(83,73,cs),
(83,-21,o),
(137,-65,o),
(256,-65,cs)
);
},
{
closed = 1;
nodes = (
(904,593,l),
(904,673,l),
(84,670,l),
(84,593,l)
);
}
);
width = 1000;
}
);
unicode = 20133;
},
{
glyphname = uni4EA6;
lastChange = "2025-08-20 16:43:06 +0000";
layers = (
{
.lastUpdate = 777603456.367;
layerId = m01;
shapes = (
{
closed = 1;
nodes = (
(225,499,o),
(285,671,o),
(310,799,c),
(230,810,l),
(205,673,o),
(140,512,o),
(73,428,c),
(148,394,l)
);
},
{
closed = 1;
nodes = (
(904,22,l),
(904,103,l),
(96,103,l),
(96,22,l)
);
},
{
closed = 1;
nodes = (
(863,556,l),
(863,636,l),
(220,636,l),
(220,556,l)
);
}
);
width = 1000;
}
);
unicode = 20134;
},
{
glyphname = uni4EA7;
lastChange = "2025-08-20 17:06:42 +0000";
layers = (
{
.lastUpdate = 777603456.367;
layerId = m01;
shapes = (
{
closed = 1;
nodes = (
(205,31,o),
(222,196,o),
(222,325,cs),
(222,460,l),
(918,460,l),
(918,534,l),
(144,534,l),
(144,327,ls),
(144,211,o),
(125,63,o),
(45,-46,c),
(117,-87,l)
);
},
{
closed = 1;
nodes = (
(195,621,o),
(250,721,o),
(285,835,c),
(207,850,l),
(172,736,o),
(122,651,o),
(38,563,c),
(108,525,l)
);
},
{
closed = 1;
nodes = (
(902,675,l),
(902,750,l),
(190,750,l),
(190,675,l)
);
}
);
width = 1000;
}
);
unicode = 20135;
},
{
glyphname = uni4EA8;
lastChange = "2025-08-20 16:43:06 +0000";
layers = (
{
.lastUpdate = 777603456.367;
layerId = m01;
shapes = (
{
closed = 1;
nodes = (
(520,-73,o),
(564,-35,o),
(564,22,cs),
(564,282,l),
(657,334,o),
(747,405,o),
(817,476,c),
(758,526,l),
(735,518,l),
(254,518,l),
(254,450,l),
(680,450,l),
(631,402,o),
(562,349,o),
(484,309,c),
(484,30,ls),
(484,12,o),
(472,-2,o),
(450,-2,cs),
(417,-4,o),
(354,2,o),
(282,25,c),
(282,-55,l),
(340,-68,o),
(407,-73,o),
(467,-73,cs)
);
},
{
closed = 1;
nodes = (
(197,548,o),
(264,692,o),
(305,833,c),
(233,850,l),
(192,709,o),
(124,574,o),
(48,489,c),
(113,446,l)
);
},
{
closed = 1;
nodes = (
(887,646,l),
(887,723,l),
(217,723,l),
(217,646,l)
);
}
);
width = 1000;
}
);
unicode = 20136;
},
{
glyphname = uni4EAB;
lastChange = "2025-08-20 16:43:06 +0000";
layers = (
{
.lastUpdate = 777603456.368;
layerId = m01;
shapes = (
{
closed = 1;
nodes = (
(727,437,o),
(865,530,o),
(865,622,cs),
(865,727,o),
(790,772,o),
(646,772,cs),
(519,772,o),
(405,725,o),
(311,661,c),
(338,712,o),
(358,761,o),
(376,826,c),
(294,843,l),
(252,698,o),
(171,556,o),
(78,464,c),
(144,417,l),
(195,474,o),
(238,534,o),
(264,574,c),
(388,655,o),
(546,692,o),
(646,692,cs),
(745,692,o),
(778,671,o),
(778,622,cs),
(778,555,o),
(629,505,o),
(357,475,c),
(367,399,l)
);
},
{
closed = 1;
nodes = (
(503,-78,o),
(557,-44,o),
(557,17,cs),
(557,464,l),
(478,464,l),
(478,30,ls),
(478,11,o),
(463,-4,o),
(438,-4,cs),
(385,-5,o),
(330,4,o),
(276,21,c),
(276,-62,l),
(333,-74,o),
(380,-78,o),
(451,-78,cs)
);
},
{
closed = 1;
nodes = (
(959,270,l),
(738,302,o),
(444,303,o),
(55,269,c),
(55,196,l),
(439,227,o),
(734,220,o),
(939,190,c)
);
}
);
width = 1000;
}
);
unicode = 20139;
},
{
glyphname = uni4EAE;
lastChange = "2025-08-20 16:43:06 +0000";
layers = (
{
.lastUpdate = 777603456.368;
layerId = m01;
shapes = (
{
closed = 1;
nodes = (
(361,7,o),
(557,204,o),
(557,333,cs),
(557,405,o),
(500,457,o),
(386,457,cs),
(266,457,o),
(215,409,o),
(215,354,cs),
(215,295,o),
(258,240,o),
(469,240,cs),
(768,240,o),
(898,341,o),
(898,436,cs),
(898,545,o),
(812,600,o),
(609,600,cs),
(481,600,o),
(395,591,o),
(295,574,c),
(323,510,l),
(417,525,o),
(497,531,o),
(609,531,cs),
(757,531,o),
(811,492,o),
(811,436,cs),
(811,374,o),
(706,312,o),
(469,312,cs),
(312,312,o),
(296,331,o),
(296,354,cs),
(296,374,o),
(318,394,o),
(386,394,cs),
(442,394,o),
(472,376,o),
(472,334,cs),
(472,239,o),
(319,65,o),
(99,-2,c),
(159,-70,l)
);
},
{
closed = 1;
nodes = (
(797,-68,ls),
(920,-68,o),
(937,-27,o),
(949,105,c),
(876,136,l),
(868,28,o),
(859,0,o),
(811,0,cs),
(673,0,ls),
(632,0,o),
(621,7,o),
(621,37,cs),
(621,210,l),
(543,210,l),
(543,20,ls),
(543,-49,o),
(580,-68,o),
(680,-68,cs)
);
},
{
closed = 1;
nodes = (
(880,703,l),
(807,760,l),
(785,752,l),
(553,753,l),
(513,843,l),
(441,829,l),
(470,753,l),
(155,753,l),
(155,680,l),
(685,680,l),
(505,585,l),
(553,562,l)
);
}
);
width = 1000;
}
);
unicode = 20142;
},
{
glyphname = uni4EB2;
lastChange = "2025-08-20 16:43:06 +0000";
layers = (
{
.lastUpdate = 777603456.368;
layerId = m01;
shapes = (
{
closed = 1;
nodes = (
(212,476,l),
(866,476,l),
(866,552,l),
(290,552,l),
(354,625,o),
(428,726,o),
(490,823,c),
(409,846,l),
(355,748,o),
(268,623,o),
(208,559,cs),
(198,548,o),
(178,538,o),
(156,534,c),
(187,466,l)
);
},
{
closed = 1;
nodes = (
(244,96,o),
(342,243,o),
(380,356,c),
(301,366,l),
(255,249,o),
(183,136,o),
(64,36,c),
(127,-12,l)
);
},
{
closed = 1;
nodes = (
(518,-57,o),
(556,-29,o),
(556,38,cs),
(556,624,l),
(477,624,l),
(477,57,ls),
(477,30,o),
(467,18,o),
(432,18,cs),
(388,18,o),
(350,22,o),
(305,36,c),
(305,-46,l),
(352,-53,o),
(406,-57,o),
(445,-57,cs)
);
},
{
closed = 1;
nodes = (
(974,86,l),
(743,159,o),
(515,216,o),
(282,257,c),
(263,186,l),
(495,147,o),
(727,83,o),
(943,9,c)
);
},
{
closed = 1;
nodes = (
(908,316,l),
(908,389,l),
(92,389,l),
(92,316,l)
);
},
{
closed = 1;
nodes = (
(902,672,l),
(902,746,l),
(98,746,l),
(98,672,l)
);
}
);
width = 1000;
}
);
unicode = 20146;
},
{
glyphname = uni4EB3;
lastChange = "2025-08-20 16:43:06 +0000";
layers = (
{
.lastUpdate = 777603456.368;
layerId = m01;
shapes = (
{
closed = 1;
nodes = (
(795,-70,ls),
(888,-70,o),
(914,-14,o),
(924,114,c),
(849,127,l),
(843,17,o),
(832,-4,o),
(786,-4,cs),
(436,-4,ls),
(406,-4,o),
(393,6,o),
(393,22,cs),
(393,70,o),
(421,143,o),
(474,213,cs),
(499,246,o),
(514,280,o),
(514,320,cs),
(514,371,o),
(459,406,o),
(371,406,cs),
(270,406,o),
(230,366,o),
(230,323,cs),
(230,281,o),
(255,239,o),
(486,239,cs),
(785,239,o),
(891,317,o),
(891,399,cs),
(891,476,o),
(822,532,o),
(619,532,cs),
(491,532,o),
(395,524,o),
(295,509,c),
(323,445,l),
(417,456,o),
(507,463,o),
(619,463,cs),
(767,463,o),
(811,442,o),
(811,399,cs),
(811,345,o),
(723,300,o),
(486,300,cs),
(326,300,o),
(306,309,o),
(306,323,cs),
(306,338,o),
(331,348,o),
(371,348,cs),
(414,348,o),
(442,339,o),
(442,320,cs),
(442,299,o),
(433,269,o),
(412,244,cs),
(356,177,o),
(314,90,o),
(314,16,cs),
(314,-47,o),
(339,-70,o),
(419,-70,cs)
);
},
{
closed = 1;
nodes = (
(747,105,l),
(747,173,l),
(108,173,l),
(108,105,l)
);
},
{
closed = 1;
nodes = (
(820,615,l),
(752,664,l),
(730,656,l),
(195,656,l),
(195,589,l),
(614,589,l),
(465,514,l),
(513,494,l)
);
},
{
closed = 1;
nodes = (
(937,702,l),
(937,769,l),
(553,769,l),
(513,847,l),
(441,835,l),
(470,769,l),
(59,769,l),
(59,702,l)
);
}
);
width = 1000;
}
);
unicode = 20147;
},
{
glyphname = uni4EB6;
lastChange = "2025-08-20 16:43:06 +0000";
layers = (
{
.lastUpdate = 777603456.368;
layerId = m01;
shapes = (
{
closed = 1;
nodes = (
(921,-71,l),
(921,1,l),
(458,1,l),
(558,55,o),
(597,131,o),
(597,178,cs),
(597,251,o),
(522,290,o),
(423,290,cs),
(338,290,o),
(266,251,o),
(266,180,cs),
(266,112,o),
(321,66,o),
(457,66,cs),
(678,66,o),
(859,120,o),
(859,267,cs),
(859,383,o),
(749,435,o),
(559,435,cs),
(382,435,o),
(233,400,o),
(110,348,c),
(156,290,l),
(277,340,o),
(398,369,o),
(559,369,cs),
(690,369,o),
(772,336,o),
(772,267,cs),
(772,169,o),
(640,132,o),
(488,132,cs),
(404,132,o),
(345,141,o),
(345,178,cs),
(345,213,o),
(389,226,o),
(429,226,cs),
(477,226,o),
(517,205,o),
(517,169,cs),
(517,127,o),
(457,51,o),
(347,1,c),
(79,1,l),
(79,-71,l)
);
},
{
closed = 1;
nodes = (
(349,474,l),
(339,518,o),
(306,587,o),
(272,639,c),
(204,617,l),
(237,565,o),
(269,493,o),
(278,449,c)
);
},
{
closed = 1;
nodes = (
(192,621,o),
(240,721,o),
(271,835,c),
(193,850,l),
(162,736,o),
(119,651,o),
(46,563,c),
(117,525,l)
);
},
{
closed = 1;
nodes = (
(560,487,l),
(556,532,o),
(536,605,o),
(511,659,c),
(441,644,l),
(465,589,o),
(483,514,o),
(486,470,c)
);
},
{
closed = 1;
nodes = (
(892,685,l),
(892,760,l),
(190,760,l),
(190,685,l)
);
},
{
closed = 1;
nodes = (
(764,494,o),
(808,570,o),
(843,637,c),
(760,660,l),
(740,603,o),
(699,518,o),
(666,467,c),
(730,445,l)
);
}
);
width = 1000;
}
);
unicode = 20150;
},
{
glyphname = uni4EBA;
lastChange = "2025-08-20 16:43:06 +0000";
layers = (
{
.lastUpdate = 777603456.368;
layerId = m01;
shapes = (
{
closed = 1;
nodes = (
(509,140,o),
(581,569,o),
(590,837,c),
(506,837,l),
(503,573,o),
(410,183,o),
(53,-17,c),
(114,-76,l)
);
},
{
closed = 1;
nodes = (
(963,-8,l),
(788,203,o),
(628,348,o),
(489,446,c),
(450,374,l),
(601,263,o),
(738,124,o),
(908,-71,c)
);
}
);
width = 1000;
}
);
unicode = 20154;
},
{
glyphname = uni4EC1;
lastChange = "2025-08-20 16:43:06 +0000";
layers = (
{
.lastUpdate = 777603456.368;
layerId = m01;
shapes = (
{
closed = 1;
nodes = (
(210,504,o),
(306,664,o),
(363,813,c),
(286,836,l),
(230,684,o),
(136,534,o),
(38,437,c),
(102,391,l)
);
},
{
closed = 1;
nodes = (
(257,-78,l),
(257,611,l),
(180,611,l),
(180,-78,l)
);
},
{
closed = 1;
nodes = (
(933,21,l),
(933,105,l),
(341,105,l),
(341,21,l)
);
},
{
closed = 1;
nodes = (
(903,594,l),
(903,676,l),
(371,676,l),
(371,594,l)
);
}
);
width = 1000;
}
);
unicode = 20161;
},
{
glyphname = uni4EC4;
lastChange = "2025-08-20 16:43:06 +0000";
layers = (
{
.lastUpdate = 777603456.368;
layerId = m01;
shapes = (
{
closed = 1;
nodes = (
(206,76,o),
(223,304,o),
(223,482,cs),
(223,703,l),
(918,703,l),
(918,784,l),
(144,784,l),
(144,485,ls),
(144,314,o),
(125,110,o),
(45,-40,c),
(118,-87,l)
);
},
{
closed = 1;
nodes = (
(595,91,o),
(636,433,o),
(644,640,c),
(562,640,l),
(559,438,o),
(541,153,o),
(204,-10,c),
(257,-76,l)
);
},
{
closed = 1;
nodes = (
(963,-13,l),
(813,150,o),
(676,262,o),
(557,338,c),
(514,272,l),
(643,186,o),
(761,79,o),
(906,-72,c)
);
}
);
width = 1000;
}
);
unicode = 20164;
},
{
glyphname = uni4ECA;
lastChange = "2025-08-20 16:43:06 +0000";
layers = (
{
.lastUpdate = 777603456.368;
layerId = m01;
shapes = (
{
closed = 1;
nodes = (
(237,398,o),
(339.333,577.333,o),
(434,804,c),
(356,832,l),
(274.667,625.333,o),
(155.667,418.333,o),
(41,313,c),
(105,267,l)
);
},
{
closed = 1;
nodes = (
(692,-7,l),
(635,109,o),
(543,249,o),
(450,375,c),
(381,336,l),
(472,208,o),
(565,62,o),
(617,-48,c)
);
},
{
closed = 1;
nodes = (
(933,489,l),
(933,567,l),
(254,567,l),
(254,489,l)
);
}
);
width = 1000;
}
);
unicode = 20170;
},
{
glyphname = uni4ECB;
lastChange = "2025-08-21 04:01:23 +0000";
layers = (
{
.lastUpdate = 777603456.368;
layerId = m01;
shapes = (
{
closed = 1;
nodes = (
(299,147,o),
(513,324,o),
(823,630,c),
(763,695,l),
(467,393,o),
(243,211,o),
(51,109,c),
(95,28,l)
);
},
{
closed = 1;
nodes = (
(604,-72,o),
(650,76,o),
(650,229,cs),
(650,374,o),
(578,542,o),
(461,708,c),
(402,646,l),
(504,508,o),
(565,345,o),
(564,229,cs),
(563,129,o),
(557,14,o),
(467,14,cs),
(427,14,o),
(388,21,o),
(345,34,c),
(345,-57,l),
(388,-67,o),
(430,-72,o),
(480,-72,cs)
);
},
{
closed = 1;
nodes = (
(308,481,o),
(468,644,o),
(560,802,c),
(487,836,l),
(401,697,o),
(241,536,o),
(78,453,c),
(125,381,l)
);
},
{
closed = 1;
nodes = (
(945,118,l),
(843,210,o),
(724,298,o),
(616,366,c),
(581,299,l),
(686,228,o),
(792,143,o),
(888,46,c)
);
}
);
width = 1000;
}
);
unicode = 20171;
},
{
glyphname = uni4ECE;
lastChange = "2025-08-21 22:35:13 +0000";
layers = (
{
.lastUpdate = 777603456.368;
layerId = m01;
shapes = (
{
closed = 1;
nodes = (
(698,156,o),
(699,578,o),
(703,807,c),
(621,807,l),
(619,577,o),
(624,192,o),
(340,-6,c),
(407,-62,l)
);
},
{
closed = 1;
nodes = (
(296,125,o),
(322,451,o),
(345,806,c),
(261,809,l),
(246,441,o),
(216,155,o),
(48,-18,c),
(121,-69,l)
);
},
{
closed = 1;
nodes = (
(477,191,l),
(441,255,o),
(359,370,o),
(294,451,c),
(245,399,l),
(311,315,o),
(381,203,o),
(418,130,c)
);
},
{
closed = 1;
nodes = (
(957,0,l),
(879,135,o),
(761,289,o),
(655,398,c),
(609,338,l),
(701,234,o),
(808,80,o),
(884,-58,c)
);
}
);
vertWidth = 1000;
width = 1000;
}
);
note = cid09779;
unicode = 20174;
},
{
glyphname = uni4ED8;
lastChange = "2025-08-20 16:43:06 +0000";
layers = (
{
.lastUpdate = 777603456.368;
layerId = m01;
shapes = (
{
closed = 1;
nodes = (
(739,-74,o),
(784,-2,o),
(780,119,c),
(780,835,l),
(704,835,l),
(704,152,ls),
(704,66,o),
(697,5,o),
(636,4,cs),
(588,3,o),
(564,39,o),
(563,86,cs),
(562,134,o),
(576,162,o),
(612,177,cs),
(634,186,o),
(676,185,o),
(729,164,c),
(736,239,l),
(682,257,o),
(624,263,o),
(582,246,cs),
(528,225,o),
(489,182,o),
(489,92,cs),
(489,-17,o),
(552,-74,o),
(640,-74,cs)
);
},
{
closed = 1;
nodes = (
(220,-48,l),
(220,743,l),
(140,743,l),
(140,-48,l)
);
},
{
closed = 1;
nodes = (
(315,356,o),
(428,441,o),
(727,441,cs),
(944,441,l),
(944,515,l),
(723,515,ls),
(416,515,o),
(301,443,o),
(220,355,c),
(220,249,l)
);
}
);
width = 1000;
}
);
unicode = 20184;
},
{
glyphname = uni4ED9;
lastChange = "2025-08-20 16:43:06 +0000";
layers = (
{
.lastUpdate = 777603456.368;
layerId = m01;
shapes = (
{
closed = 1;
nodes = (
(888,30,o),
(925,149,o),
(925,298,cs),
(925,418,o),
(858,505,o),
(773,505,cs),
(711,505,o),
(679,492,o),
(655,468,c),
(655,826,l),
(576,826,l),
(576,404,l),
(565,385,l),
(603,324,l),
(658,390,o),
(707,420,o),
(768,420,cs),
(814,420,o),
(848,370,o),
(848,293,cs),
(848,177,o),
(814,49,o),
(773,-49,c),
(850,-76,l)
);
},
{
closed = 1;
nodes = (
(251,-68,l),
(251,605,l),
(177,605,l),
(177,-68,l)
);
},
{
closed = 1;
nodes = (
(564,-3,o),
(628,11,o),
(705,72,c),
(679,143,l),
(613,90,o),
(538,78,o),
(470,78,cs),
(443,78,o),
(432,105,o),
(432,150,cs),
(432,243,o),
(445,364,o),
(476,499,c),
(398,518,l),
(369,380,o),
(352,255,o),
(352,133,cs),
(352,46,o),
(388,-3,o),
(468,-3,cs)
);
},
{
closed = 1;
nodes = (
(201,503,o),
(296,659,o),
(352,804,c),
(281,825,l),
(227,677,o),
(135,530,o),
(38,435,c),
(95,392,l)
);
}
);
width = 1000;
}
);
unicode = 20185;
},
{
glyphname = uni4EDD;
lastChange = "2025-08-20 16:43:06 +0000";
layers = (
{
.lastUpdate = 777603456.368;
layerId = m01;
shapes = (
{
closed = 1;
nodes = (
(208,564,o),
(261,683,o),
(310,828,c),
(237,846,l),
(189,701,o),
(126,582,o),
(58,494,c),
(123,449,l)
);
},
{
closed = 1;
nodes = (
(910,-44,l),
(910,31,l),
(90,31,l),
(90,-44,l)
);
},
{
closed = 1;
nodes = (
(550,31,l),
(550,367,l),
(471,367,l),
(471,31,l)
);
},
{
closed = 1;
nodes = (
(827,367,l),
(827,441,l),
(213,441,l),
(213,367,l)
);
},
{
closed = 1;
nodes = (
(887,619,l),
(887,694,l),
(201,694,l),
(201,619,l)
);
}
);
width = 1000;
}
);
unicode = 20189;
},
{
glyphname = uni4EE3;
lastChange = "2025-08-20 19:10:46 +0000";
layers = (
{
.lastUpdate = 777603456.368;
layerId = m01;
shapes = (
{
closed = 1;
nodes = (
(914,-78,o),
(952,-30,o),
(977,139,c),
(904,168,l),
(892,52,o),
(873,8,o),
(849,8,cs),
(675,8,o),
(569,319,o),
(533,829,c),
(452,822,l),
(487,194,o),
(647,-78,o),
(861,-78,cs)
);
},
{
closed = 1;
nodes = (
(187,-48,l),
(187,713,l),
(110,713,l),
(110,-48,l)
);
},
{
closed = 1;
nodes = (
(271,273,o),
(365,351,o),
(484,400,cs),
(616,455,o),
(763,487,o),
(944,501,c),
(944,575,l),
(761,561,o),
(585,528,o),
(451,469,cs),
(360,429,o),
(264,369,o),
(187,235,c),
(187,129,l)
);
},
{
closed = 1;
nodes = (
(895,658,l),
(861,703,o),
(789,771,o),
(729,819,c),
(672,775,l),
(731,725,o),
(801,655,o),
(834,610,c)
);
}
);
vertWidth = 1000;
width = 1000;
}
);
note = cid09807;
unicode = 20195;
},
{
glyphname = uni4EE4;
lastChange = "2025-08-20 16:43:06 +0000";
layers = (
{
.lastUpdate = 777603456.369;
layerId = m01;
shapes = (
{
closed = 1;
nodes = (
(239,400,o),
(373,666,o),
(433,805,c),
(356,832,l),
(291,667,o),
(172,434,o),
(41,313,c),
(105,267,l)
);
},
{
closed = 1;
nodes = (
(820,0,l),
(704,51,o),
(484,120,o),
(326,156,c),
(291,88,l),
(454,48,o),
(673,-26,o),
(785,-78,c)
);
},
{
closed = 1;
nodes = (
(777,281,l),
(698,312,o),
(545,360,o),
(439,389,c),
(406,323,l),
(515,290,o),
(666,238,o),
(743,205,c)
);
},
{
closed = 1;
nodes = (
(935,529,l),
(935,608,l),
(277,608,l),
(277,529,l)
);
}
);
vertWidth = 1000;
width = 1000;
}
);
note = cid09809;
unicode = 20196;
},
{
glyphname = uni4EE5;
lastChange = "2025-08-20 16:43:06 +0000";
layers = (
{
.lastUpdate = 777603456.369;
layerId = m01;
shapes = (
{
closed = 1;
nodes = (
(472,169,l),
(444,236,l),
(207,119,l),
(207,750,l),
(130,750,l),
(130,139,ls),
(130,88,o),
(103,58,o),
(68,41,c),
(110,-24,l)
);
},
{
closed = 1;
nodes = (
(575,303,l),
(561,393,o),
(515,547,o),
(474,642,c),
(400,621,l),
(440,527,o),
(484,366,o),
(496,277,c)
);
},
{
closed = 1;
nodes = (
(944,-33,l),
(944,41,l),
(816,41,l),
(816,803,l),
(736,803,l),
(729,41,l),
(608,41,l),
(608,-33,l)
);
}
);
vertWidth = 1000;
width = 1000;
}
);
note = cid09812;
unicode = 20197;
},
{
glyphname = uni4EF6;
lastChange = "2025-08-20 16:43:06 +0000";
layers = (
{
.lastUpdate = 777603456.369;
layerId = m01;
shapes = (
{
closed = 1;
nodes = (
(671,-60,o),
(700,-38,o),
(700,43,cs),
(700,836,l),
(625,836,l),
(625,43,ls),
(625,21,o),
(622,13,o),
(605,13,cs),
(569,13,o),
(531,22,o),
(490,35,c),
(490,-49,l),
(537,-58,o),
(583,-62,o),
(617,-61,cs)
);
},
{
closed = 1;
nodes = (
(251,-68,l),
(251,605,l),
(177,605,l),
(177,-68,l)
);
},
{
closed = 1;
nodes = (
(201,503,o),
(296,659,o),
(352,804,c),
(280,827,l),
(226,679,o),
(134,532,o),
(37,437,c),
(95,392,l)
);
},
{
closed = 1;
nodes = (
(953,325,l),
(800,349,o),
(591,350,o),
(325,319,c),
(325,247,l),
(587,275,o),
(794,268,o),
(942,246,c)
);
},
{
closed = 1;
nodes = (
(449,477,o),
(489,601,o),
(515,731,c),
(437,741,l),
(414,615,o),
(371,493,o),
(320,415,c),
(393,384,l)
);
},
{
closed = 1;
nodes = (
(898,556,l),
(898,628,l),
(455,628,l),
(455,556,l)
);
}
);
width = 1000;
}
);
unicode = 20214;
},
{
glyphname = uni4EFB;
lastChange = "2025-08-20 16:43:06 +0000";
layers = (
{
.lastUpdate = 777603456.369;
layerId = m01;
shapes = (
{
closed = 1;
nodes = (
(719,45,l),
(794,129,o),
(847,208,o),
(847,329,cs),
(847,450,o),
(776,522,o),
(639,522,cs),
(493,522,o),
(426,438,o),
(426,348,cs),
(426,255,o),
(478,195,o),
(559,195,cs),
(635,195,o),
(679,251,o),
(679,320,cs),
(679,709,l),
(606,709,l),
(606,345,ls),
(606,301,o),
(587,274,o),
(559,274,cs),
(526,274,o),
(503,303,o),
(503,348,cs),
(503,390,o),
(529,447,o),
(639,447,cs),
(737,447,o),
(768,405,o),
(768,329,cs),
(768,234,o),
(733,155,o),
(642,45,c)
);
},
{
closed = 1;
nodes = (
(267,-68,l),
(267,605,l),
(188,605,l),
(188,-68,l)
);
},
{
closed = 1;
nodes = (
(950,-34,l),
(950,45,l),
(352,45,l),
(352,-34,l)
);
},
{
closed = 1;
nodes = (
(213,503,o),
(316,659,o),
(376,804,c),
(298,827,l),
(240,679,o),
(141,532,o),
(37,437,c),
(99,392,l)
);
},
{
closed = 1;
nodes = (
(583,659,o),
(770,706,o),
(899,758,c),
(859,829,l),
(751,779,o),
(559,732,o),
(374,704,c),
(389,629,l)
);
}
);
width = 1000;
}
);
unicode = 20219;
},
{
glyphname = uni4F01;
lastChange = "2025-08-20 16:43:06 +0000";
layers = (
{
.lastUpdate = 777603456.369;
layerId = m01;
shapes = (
{
closed = 1;
nodes = (
(332,489,o),
(474,613,o),
(593,810,c),
(526,841,l),
(426,664,o),
(254,538,o),
(35,435,c),
(91,366,l)
);
},
{
closed = 1;
nodes = (
(265,12,o),
(342,102,o),
(390,184,c),
(312,219,l),
(271,140,o),
(192,52,o),
(104,-15,c),
(168,-65,l)
);
},
{
closed = 1;
nodes = (
(897,-34,l),
(833,55,o),
(743,153,o),
(665,227,c),
(597,183,l),
(675,112,o),
(757,18,o),
(817,-74,c)
);
},
{
closed = 1;
nodes = (
(686,345,l),
(610,383,o),
(470,433,o),
(365,464,c),
(327,395,l),
(437,366,o),
(570,314,o),
(644,273,c)
);
},
{
closed = 1;
nodes = (
(969,433,l),
(830,546,o),
(664,646,o),
(494,712,c),
(446,657,l),
(621,585,o),
(779,483,o),
(914,365,c)
);
}
);
width = 1000;
}
);
unicode = 20225;
},
{
glyphname = uni4F07;
lastChange = "2025-08-20 16:43:06 +0000";
layers = (
{
.lastUpdate = 777603456.369;
layerId = m01;
shapes = (
{
closed = 1;
nodes = (
(651,-5,o),
(835,184,o),
(910,458,c),
(855,487,l),
(840,478,l),
(529,478,l),
(529,405,l),
(809,405,l),
(731,189,o),
(557,48,o),
(329,-6,c),
(372,-80,l)
);
},
{
closed = 1;
nodes = (
(269,-78,l),
(269,611,l),
(192,611,l),
(192,-78,l)
);
},
{
closed = 1;
nodes = (
(955,-29,l),
(828,91,o),
(664,214,o),
(473,311,c),
(436,248,l),
(627,146,o),
(776,28,o),
(894,-87,c)
);
},
{
closed = 1;
nodes = (
(216,506,o),
(319,666,o),
(380,815,c),
(302,839,l),
(242,687,o),
(143,534,o),
(38,437,c),
(99,393,l)
);
},
{
closed = 1;
nodes = (
(604,426,o),
(795,596,o),
(909,778,c),
(839,819,l),
(723,625,o),
(557,494,o),
(383,397,c),
(431,327,l)
);
},
{
closed = 1;
nodes = (
(608,604,l),
(577,660,o),
(523,737,o),
(473,803,c),
(407,756,l),
(461,693,o),
(507,625,o),
(540,564,c)
);
}
);
width = 1000;
}
);
unicode = 20231;
},
{
glyphname = uni4F0A;
lastChange = "2025-08-20 16:43:06 +0000";
layers = (
{
.lastUpdate = 777603456.369;
layerId = m01;
shapes = (
{
closed = 1;
nodes = (
(923,491,o),
(943,559,o),
(943,632,cs),
(943,763,o),
(843,807,o),
(712,807,cs),
(584,807,o),
(466,768,o),
(379,724,c),
(393,649,l),
(479,692,o),
(591,727,o),
(712,727,cs),
(814,727,o),
(860,697,o),
(860,630,cs),
(860,589,o),
(847,522,o),
(811,461,c),
(880,418,l)
);
},
{
closed = 1;
nodes = (
(269,-78,l),
(269,611,l),
(192,611,l),
(192,-78,l)
);
},
{
closed = 1;
nodes = (
(216,506,o),
(321,666,o),
(382,815,c),
(302,839,l),
(242,687,o),
(143,534,o),
(38,437,c),
(99,393,l)
);
},
{
closed = 1;
nodes = (
(639,17,o),
(680,157,o),
(680,383,cs),
(680,664,l),
(598,664,l),
(598,387,ls),
(598,165,o),
(561,58,o),
(420,-52,c),
(499,-92,l)
);
},
{
closed = 1;
nodes = (
(800,329,l),
(800,404,l),
(407,404,l),
(407,329,l)
);
},
{
closed = 1;
nodes = (
(770,506,l),
(770,577,l),
(448,577,l),
(448,506,l)
);
}
);
width = 1000;
}
);
unicode = 20234;
},
{
glyphname = uni4F0F;
lastChange = "2025-08-20 16:43:06 +0000";
layers = (
{
.lastUpdate = 777603456.369;
layerId = m01;
shapes = (
{
closed = 1;
nodes = (
(653,140,o),
(686,569,o),
(692,837,c),
(615,837,l),
(613,573,o),
(570,183,o),
(311,-17,c),
(366,-76,l)
);
},
{
closed = 1;
nodes = (
(269,-78,l),
(269,611,l),
(192,611,l),
(192,-78,l)
);
},
{
closed = 1;
nodes = (
(216,506,o),
(321,666,o),
(382,815,c),
(302,839,l),
(242,687,o),
(143,534,o),
(38,437,c),
(99,393,l)
);
},
{
closed = 1;
nodes = (
(966,-20,l),
(839,191,o),
(723,336,o),
(622,434,c),
(570,374,l),
(680,263,o),
(780,124,o),
(903,-71,c)
);
},
{
closed = 1;
nodes = (
(537,435,o),
(778,469,o),
(947,519,c),
(913,596,l),
(768,548,o),
(527,515,o),
(321,499,c),
(335,421,l)
);
}
);
width = 1000;
}
);
unicode = 20239;
},
{
glyphname = uni4F10;
lastChange = "2025-08-20 16:43:06 +0000";
layers = (
{
.lastUpdate = 777603456.369;
layerId = m01;
shapes = (
{
closed = 1;
nodes = (
(907,-85,o),
(942,-38,o),
(961,125,c),
(894,146,l),
(885,35,o),
(874,3,o),
(847,3,cs),
(662,3,o),
(625,472,o),
(604,827,c),
(529,827,l),
(544,441,o),
(587,-85,o),
(850,-85,cs)
);
},
{
closed = 1;
nodes = (
(269,-78,l),
(269,611,l),
(192,611,l),
(192,-78,l)
);
},
{
closed = 1;
nodes = (
(594,32,o),
(780,204,o),
(883,398,c),
(816,437,l),
(734,279,o),
(554,91,o),
(353,5,c),
(414,-55,l)
);
},
{
closed = 1;
nodes = (
(216,506,o),
(321,666,o),
(382,815,c),
(302,839,l),
(242,687,o),
(143,534,o),
(38,437,c),
(99,393,l)
);
},
{
closed = 1;
nodes = (
(917,523,l),
(902,593,l),
(321,491,l),
(333,420,l)
);
},
{
closed = 1;
nodes = (
(862,663,l),
(835,703,o),
(777,764,o),
(727,806,c),
(671,765,l),
(721,722,o),
(776,657,o),
(804,616,c)
);
}
);
width = 1000;
}
);
unicode = 20240;
},
{
glyphname = uni4F11;
lastChange = "2025-08-20 16:43:06 +0000";
layers = (
{
.lastUpdate = 777603456.369;
layerId = m01;
shapes = (
{
closed = 1;
nodes = (
(560,225,o),
(729,385,o),
(831,496,c),
(774,554,l),
(672,432,o),
(510,281,o),
(302,157,c),
(344,88,l)
);
},
{
closed = 1;
nodes = (
(269,-78,l),
(269,611,l),
(192,611,l),
(192,-78,l)
);
},
{
closed = 1;
nodes = (
(216,506,o),
(321,666,o),
(382,815,c),
(302,839,l),
(242,687,o),
(143,534,o),
(38,437,c),
(99,393,l)
);
},
{
closed = 1;
nodes = (
(640,-60,o),
(670,-38,o),
(670,43,cs),
(670,836,l),
(591,836,l),
(591,43,ls),
(591,21,o),
(588,13,o),
(570,13,cs),
(532,13,o),
(492,22,o),
(449,35,c),
(449,-49,l),
(499,-58,o),
(547,-62,o),
(583,-61,cs)
);
},
{
closed = 1;
nodes = (
(965,120,l),
(889,184,o),
(798,244,o),
(715,292,c),
(680,236,l),
(760,187,o),
(840,128,o),
(911,61,c)
);
},
{
closed = 1;
nodes = (
(542,547,o),
(768,581,o),
(937,631,c),
(903,705,l),
(758,657,o),
(532,624,o),
(326,608,c),
(340,533,l)
);
}
);
width = 1000;
}
);
unicode = 20241;
},
{
glyphname = uni4F4D;
lastChange = "2025-08-20 16:43:06 +0000";
layers = (
{
.lastUpdate = 777603456.369;
layerId = m01;
shapes = (
{
closed = 1;
nodes = (
(204,506,o),
(300,666,o),
(357,815,c),
(286,836,l),
(230,684,o),
(136,534,o),
(38,437,c),
(96,393,l)
);
},
{
closed = 1;
nodes = (
(255,-78,l),
(255,611,l),
(180,611,l),
(180,-78,l)
);
},
{
closed = 1;
nodes = (
(955,-38,l),
(955,34,l),
(336,34,l),
(336,-38,l)
);
},
{
closed = 1;
nodes = (
(587,98,l),
(577,194,o),
(546,363,o),
(513,495,c),
(445,480,l),
(475,349,o),
(505,176,o),
(513,77,c)
);
},
{
closed = 1;
nodes = (
(748,34,l),
(785,160,o),
(826,345,o),
(853,489,c),
(774,502,l),
(756,361,o),
(716,161,o),
(678,34,c)
);
},
{
closed = 1;
nodes = (
(484,562,o),
(529,709,o),
(552,829,c),
(478,840,l),
(456,712,o),
(405,575,o),
(341,488,c),
(410,454,l)
);
},
{
closed = 1;
nodes = (
(923,606,l),
(923,678,l),
(469,678,l),
(469,606,l)
);
}
);
vertWidth = 1000;
width = 1000;
}
);
note = cid09956;
unicode = 20301;
},
{
glyphname = uni4F53;
lastChange = "2025-08-20 16:43:06 +0000";
layers = (
{
.lastUpdate = 777603456.369;
layerId = m01;
shapes = (
{
closed = 1;
nodes = (
(689,-80,l),
(689,167,l),
(793,167,l),
(793,243,l),
(689,243,l),
(689,435,l),
(611,435,l),
(611,243,l),
(418,243,l),
(501,384,o),
(591,545,o),
(645,819,c),
(571,835,l),
(515,541,o),
(402,346,o),
(303,202,c),
(353,153,l),
(369,167,l),
(611,167,l),
(611,-80,l)
);
},
{
closed = 1;
nodes = (
(253,-78,l),
(253,611,l),
(180,611,l),
(180,-78,l)
);
},
{
closed = 1;
nodes = (
(204,506,o),
(300,666,o),
(357,815,c),
(286,836,l),
(230,684,o),
(136,534,o),
(38,437,c),
(96,393,l)
);
},
{
closed = 1;
nodes = (
(943,145,l),
(930,233,o),
(906,323,o),
(874,413,c),
(805,391,l),
(836,302,o),
(858,210,o),
(870,122,c)
);
},
{
closed = 1;
nodes = (
(922,556,l),
(922,632,l),
(312,632,l),
(312,556,l)
);
}
);
width = 1000;
}
);
unicode = 20307;
},
{
glyphname = uni4F55;
lastChange = "2025-08-20 16:43:06 +0000";
layers = (
{
.lastUpdate = 777603456.369;
layerId = m01;
shapes = (
{
closed = 1;
nodes = (
(704,7,o),
(774,139,o),
(773,273,cs),
(773,422,o),
(704,508,o),
(581,508,cs),
(470,508,o),
(413,437,o),
(413,350,cs),
(413,267,o),
(478,202,o),
(588,202,cs),
(801,202,o),
(920,361,o),
(920,513,cs),
(920,669,o),
(824,789,o),
(624,789,cs),
(416,789,o),
(300,660,o),
(187,515,c),
(187,429,l),
(332,592,o),
(448,710,o),
(624,710,cs),
(785,710,o),
(839,625,o),
(840,513,cs),
(841,408,o),
(749,277,o),
(588,277,cs),
(524,277,o),
(492,311,o),
(492,350,cs),
(492,396,o),
(522,433,o),
(581,431,cs),
(648,429,o),
(694,380,o),
(694,273,cs),
(694,170,o),
(639,59,o),
(521,-39,c),
(586,-87,l)
);
},
{
closed = 1;
nodes = (
(187,-48,l),
(187,743,l),
(110,743,l),
(110,-48,l)
);
}
);
vertWidth = 1000;
width = 1000;
}
);
note = cid09968;
unicode = 20309;
},
{
glyphname = uni4F59;
lastChange = "2025-08-20 16:43:06 +0000";
layers = (
{
.lastUpdate = 777603456.369;
layerId = m01;
shapes = (
{
closed = 1;
nodes = (
(518,-57,o),
(555,-24,o),
(555,42,cs),
(555,697,l),
(479,697,l),
(479,55,ls),
(479,24,o),
(467,8,o),
(432,8,cs),
(388,8,o),
(350,14,o),
(305,33,c),
(305,-43,l),
(349,-53,o),
(399,-57,o),
(445,-57,cs)
);
},
{
closed = 1;
nodes = (
(257,114,o),
(352,271,o),
(390,420,c),
(314,428,l),
(268,275,o),
(195,152,o),
(63,41,c),
(127,-6,l)
);
},
{
closed = 1;
nodes = (
(974,98,l),
(743,179,o),
(515,241,o),
(282,287,c),
(266,222,l),
(498,178,o),
(730,107,o),
(946,25,c)
);
},
{
closed = 1;
nodes = (
(231,604,o),
(280,711,o),
(315,831,c),
(238,844,l),
(207,727,o),
(154,623,o),
(86,555,c),
(156,523,l)
);
},
{
closed = 1;
nodes = (
(918,408,l),
(918,480,l),
(82,480,l),
(82,408,l)
);
},
{
closed = 1;
nodes = (
(874,659,l),
(874,730,l),
(223,730,l),
(223,659,l)
);
}
);
width = 1000;
}
);
unicode = (20313,20312);
},
{
glyphname = uni4F7F;
lastChange = "2025-08-20 16:43:06 +0000";
layers = (
{
.lastUpdate = 777603456.369;
layerId = m01;
shapes = (
{
closed = 1;
nodes = (
(541,-82,o),
(722,177,o),
(722,608,cs),
(722,836,l),
(638,836,l),
(638,616,ls),
(638,229,o),
(491,-9,o),
(273,-9,cs),
(200,-9,o),
(146,30,o),
(146,94,cs),
(146,173,o),
(200,221,o),
(309,221,cs),
(488,221,o),
(624,16,o),
(914,-80,c),
(954,-13,l),
(653,84,o),
(545,297,o),
(309,297,cs),
(170,297,o),
(66,226,o),
(66,95,cs),
(66,-10,o),
(146,-82,o),
(273,-82,cs)
);
},
{
closed = 1;
nodes = (
(176,433,l),
(945,433,l),
(945,508,l),
(254,508,l),
(479,715,l),
(411,763,l),
(396,750,l),
(97,750,l),
(97,675,l),
(329,675,l),
(122,482,l),
(163,421,l)
);
}
);
vertWidth = 1000;
width = 1000;
}
);
note = cid10035;
unicode = 20351;
},
{
glyphname = uni4F83;
lastChange = "2025-08-20 16:43:06 +0000";
layers = (
{
.lastUpdate = 777603456.369;
layerId = m01;
shapes = (
{
closed = 1;
nodes = (
(767,538,o),
(847,634,o),
(913,759,c),
(871,807,l),
(855,797,l),
(385,797,l),
(385,723,l),
(808,723,l),
(764,643,o),
(711,578,o),
(650,523,c),
(693,475,l)
);
},
{
closed = 1;
nodes = (
(251,-68,l),
(251,605,l),
(177,605,l),
(177,-68,l)
);
},
{
closed = 1;
nodes = (
(409,135,o),
(422,295,o),
(450,434,c),
(376,444,l),
(346,301,o),
(333,130,o),
(346,-12,c),
(421,-14,l)
);
},
{
closed = 1;
nodes = (
(201,503,o),
(296,659,o),
(352,804,c),
(280,827,l),
(226,679,o),
(134,532,o),
(37,437,c),
(95,392,l)
);
},
{
closed = 1;
nodes = (
(667,-58,o),
(701,-47,o),
(746,-18,c),
(746,67,l),
(701,34,o),
(663,17,o),
(632,17,cs),
(619,17,o),
(608,39,o),
(608,87,cs),
(608,184,o),
(625,293,o),
(647,442,c),
(578,453,l),
(551,296,o),
(535,191,o),
(535,85,cs),
(535,2,o),
(566,-58,o),
(626,-58,cs)
);
},
{
closed = 1;
nodes = (
(943,-21,l),
(941,127,o),
(911,311,o),
(870,444,c),
(797,422,l),
(838,291,o),
(863,113,o),
(865,-32,c)
);
}
);
width = 1000;
}
);
unicode = 20355;
},
{
glyphname = uni4F86;
lastChange = "2025-08-20 16:43:06 +0000";
layers = (
{
.lastUpdate = 777603456.37;
layerId = m01;
shapes = (
{
closed = 1;
nodes = (
(548,-74,o),
(582,-43,o),
(582,15,cs),
(582,600,l),
(906,600,l),
(906,672,l),
(582,672,l),
(582,840,l),
(503,840,l),
(503,672,l),
(94,672,l),
(94,600,l),
(470,600,l),
(386,521,o),
(261,447,o),
(164,395,c),
(184,332,l),
(230,341,l),
(504,341,l),
(503,28,ls),
(503,11,o),
(494,0,o),
(477,0,cs),
(443,0,o),
(400,7,o),
(347,24,c),
(347,-56,l),
(397,-69,o),
(442,-74,o),
(493,-74,cs)
);
},
{
closed = 1;
nodes = (
(226,55,o),
(636,299,o),
(833,460,c),
(762,511,l),
(549,337,o),
(172,111,o),
(41,59,c),
(95,-5,l)
);
},
{
closed = 1;
nodes = (
(503,535,l),
(504,412,l),
(321,412,l)
);
},
{
closed = 1;
nodes = (
(945,53,l),
(850,126,o),
(704,215,o),
(581,265,c),
(581,194,l),
(686,141,o),
(800,78,o),
(896,0,c)
);
}
);
width = 1000;
}
);
unicode = (20358,26469);
},
{
glyphname = uni4F96;
lastChange = "2025-08-20 16:43:06 +0000";
layers = (
{
.lastUpdate = 777603456.37;
layerId = m01;
shapes = (
{
closed = 1;
nodes = (
(202,529,o),
(262,701,o),
(287,829,c),
(210,840,l),
(185,703,o),
(120,542,o),
(53,458,c),
(125,424,l)
);
},
{
closed = 1;
nodes = (
(884,-38,l),
(884,41,l),
(116,41,l),
(116,-38,l)
);
},
{
closed = 1;
nodes = (
(804,287,l),
(804,365,l),
(196,365,l),
(196,287,l)
);
},
{
closed = 1;
nodes = (
(883,586,l),
(883,664,l),
(200,664,l),
(200,586,l)
);
}
);
width = 1000;
}
);
unicode = (20374,20177);
},
{
glyphname = uni4FBF;
lastChange = "2025-08-20 16:43:06 +0000";
layers = (
{
.lastUpdate = 777603456.37;
layerId = m01;
shapes = (
{
closed = 1;
nodes = (
(596,-82,o),
(677,54,o),
(677,346,cs),
(677,715,l),
(603,715,l),
(603,347,ls),
(603,107,o),
(563,-12,o),
(448,-12,cs),
(394,-12,o),
(363,16,o),
(363,68,cs),
(363,115,o),
(396,146,o),
(475,146,cs),
(610,146,o),
(712,9,o),
(929,-80,c),
(964,-10,l),
(731,80,o),
(652,217,o),
(475,217,cs),
(371,217,o),
(291,170,o),
(291,69,cs),
(291,-21,o),
(353,-82,o),
(448,-82,cs)
);
},
{
closed = 1;
nodes = (
(209,-24,l),
(163,166,o),
(154,297,o),
(185,408,cs),
(220,532,o),
(222,630,o),
(172,735,c),
(92,711,l),
(137,596,o),
(142,519,o),
(112,424,cs),
(78,317,o),
(82,184,o),
(135,-36,c)
);
},
{
closed = 1;
nodes = (
(725,267,o),
(940,301,o),
(940,446,cs),
(940,566,o),
(823,607,o),
(683,607,cs),
(536,607,o),
(401,571,o),
(301,530,c),
(311,461,l),
(409,501,o),
(538,533,o),
(678,533,cs),
(784,533,o),
(865,515,o),
(865,444,cs),
(865,360,o),
(717,344,o),
(449,376,c),
(449,312,l)
);
},
{
closed = 1;
nodes = (
(937,715,l),
(937,783,l),
(318,783,l),
(318,715,l)
);
}
);
vertWidth = 1000;
width = 1000;
}
);
note = cid10136;
unicode = (20415,63845);
},
{
glyphname = uni4FDD;
lastChange = "2025-08-20 16:43:06 +0000";
layers = (
{
.lastUpdate = 777603456.37;
layerId = m01;
shapes = (
{
closed = 1;
nodes = (
(638,-78,o),
(673,-46,o),
(673,19,cs),
(673,415,l),
(943,415,l),
(943,487,l),
(673,487,l),
(673,527,l),
(764,578,o),
(869,656,o),
(936,737,c),
(884,774,l),
(869,770,l),
(374,770,l),
(374,696,l),
(801,696,l),
(739,645,o),
(665,596,o),
(598,561,c),
(598,487,l),
(306,487,l),
(306,415,l),
(598,415,l),
(598,33,ls),
(598,4,o),
(600,-13,o),
(574,-13,cs),
(542,-13,o),
(514,-5,o),
(480,10,c),
(480,-64,l),
(513,-74,o),
(550,-78,o),
(584,-78,cs)
);
},
{
closed = 1;
nodes = (
(243,-78,l),
(243,611,l),
(170,611,l),
(170,-78,l)
);
},
{
closed = 1;
nodes = (
(441,109,o),
(511,270,o),
(539,425,c),
(473,434,l),
(439,275,o),
(385,147,o),
(288,30,c),
(345,-18,l)
);
},
{
closed = 1;
nodes = (
(194,506,o),
(290,666,o),
(347,815,c),
(276,836,l),
(220,684,o),
(126,534,o),
(28,437,c),
(86,393,l)
);
},
{
closed = 1;
nodes = (
(974,89,l),
(804,175,o),
(635,238,o),
(464,286,c),
(440,220,l),
(611,174,o),
(782,100,o),
(941,14,c)
);
}
);
vertWidth = 1000;
width = 1000;
}
);
note = cid10186;
unicode = 20445;
},
{
glyphname = uni4FDE;
lastChange = "2025-08-20 16:43:06 +0000";
layers = (
{
.lastUpdate = 777603456.37;
layerId = m01;
shapes = (
{
closed = 1;
nodes = (
(830,-39,o),
(896,0,o),
(896,105,cs),
(896,213,o),
(749,277,o),
(567,276,cs),
(335,275,o),
(84,192,o),
(84,71,cs),
(84,-21,o),
(163,-70,o),
(270,-70,cs),
(456,-70,o),
(574,64,o),
(574,205,cs),
(574,357,o),
(440,400,o),
(302,420,c),
(278,352,l),
(394,343,o),
(493,307,o),
(493,205,cs),
(493,81,o),
(385,0,o),
(270,0,cs),
(199,0,o),
(165,29,o),
(165,71,cs),
(165,138,o),
(347,201,o),
(567,201,cs),
(705,201,o),
(817,160,o),
(817,105,cs),
(817,49,o),
(780,14,o),
(694,-21,c),
(729,-86,l)
);
},
{
closed = 1;
nodes = (
(277,326,o),
(404,409,o),
(492,500,c),
(421,536,l),
(344,462,o),
(224,383,o),
(135,349,c),
(160,277,l)
);
},
{
closed = 1;
nodes = (
(199,621,o),
(247,721,o),
(278,835,c),
(202,850,l),
(171,736,o),
(126,651,o),
(51,563,c),
(121,525,l)
);
},
{
closed = 1;
nodes = (
(852,478,l),
(852,548,l),
(219,548,l),
(219,478,l)
);
},
{
closed = 1;
nodes = (
(942,297,l),
(879,346,o),
(808,390,o),
(729,429,c),
(691,369,l),
(767,331,o),
(838,286,o),
(900,234,c)
);
},
{
closed = 1;
nodes = (
(902,665,l),
(902,740,l),
(200,740,l),
(200,665,l)
);
}
);
width = 1000;
}
);
unicode = 20446;
},
{
glyphname = uni4FE1;
lastChange = "2025-08-20 16:43:06 +0000";
layers = (
{
.lastUpdate = 777603456.37;
layerId = m01;
shapes = (
{
closed = 1;
nodes = (
(730,-109,o),
(868,-36,o),
(868,89,cs),
(868,190,o),
(769,240,o),
(634,240,cs),
(537,240,o),
(406,182,o),
(318,85,c),
(373,26,l),
(450,121,o),
(561,163,o),
(630,163,cs),
(733,163,o),
(784,134,o),
(784,83,cs),
(784,27,o),
(721,-23,o),
(537,4,c),
(537,-61,l)
);
},
{
closed = 1;
nodes = (
(209,-24,l),
(163,166,o),
(155,297,o),
(186,408,cs),
(221,532,o),
(224,630,o),
(174,735,c),
(91,711,l),
(136,596,o),
(141,519,o),
(111,424,cs),
(77,317,o),
(82,184,o),
(135,-36,c)
);
},
{
closed = 1;
nodes = (
(928,344,l),
(928,419,l),
(261,419,l),
(261,344,l)
);
},
{
closed = 1;
nodes = (
(826,528,l),
(826,603,l),
(366,603,l),
(366,528,l)
);
},
{
closed = 1;
nodes = (
(829,711,l),
(829,787,l),
(366,787,l),
(366,711,l)
);
}
);
vertWidth = 1000;
width = 1000;
}
);
note = cid10196;
unicode = 20449;
},
{
glyphname = uni4FEE;
lastChange = "2025-08-20 16:43:06 +0000";
layers = (
{
.lastUpdate = 777603456.37;
layerId = m01;
shapes = (
{
closed = 1;
nodes = (
(832,59,o),
(936,101,o),
(936,181,cs),
(936,246,o),
(898,282,o),
(812,282,cs),
(799,282,o),
(785,279,o),
(776,277,c),
(882,418,l),
(830,456,l),
(811,448,l),
(577,441,o),
(351,376,o),
(351,257,cs),
(351,200,o),
(397,169,o),
(443,169,cs),
(581,169,o),
(657,339,o),
(679,527,c),
(888,527,l),
(888,594,l),
(491,594,l),
(491,527,l),
(607,527,l),
(589,366,o),
(537,233,o),
(443,233,cs),
(430,233,o),
(418,240,o),
(419,257,cs),
(422,328,o),
(608,382,o),
(783,382,c),
(759,341,o),
(735,306,o),
(703,268,cs),
(698,262,o),
(683,254,o),
(667,247,c),
(696,194,l),
(733,214,o),
(774,222,o),
(805,222,cs),
(844,222,o),
(858,212,o),
(858,181,cs),
(858,126,o),
(759,93,o),
(632,68,c),
(676,14,l)
);
},
{
closed = 1;
nodes = (
(174,10,l),
(174,772,l),
(103,772,l),
(103,10,l)
);
},
{
closed = 1;
nodes = (
(747,-49,l),
(713,10,o),
(656,85,o),
(607,147,c),
(541,111,l),
(591,52,o),
(642,-19,o),
(678,-81,c)
);
},
{
closed = 1;
nodes = (
(303,130,l),
(303,722,l),
(236,722,l),
(236,130,l)
);
},
{
closed = 1;
nodes = (
(454,575,o),
(492,694,o),
(528,839,c),
(458,852,l),
(423,707,o),
(377,588,o),
(328,500,c),
(392,460,l)
);
},
{
closed = 1;
nodes = (
(921,682,l),
(921,754,l),
(460,754,l),
(460,682,l)
);
}
);
width = 1000;
}
);
unicode = 20462;
},
{
glyphname = uni5009;
lastChange = "2025-08-20 16:43:06 +0000";
layers = (
{
.lastUpdate = 777603456.37;
layerId = m01;
shapes = (
{
closed = 1;
nodes = (
(743,17,o),
(919,48,o),
(919,159,cs),
(919,256,o),
(819,283,o),
(699,264,c),
(784,365,l),
(732,424,l),
(515,424,o),
(60,375,o),
(60,196,cs),
(60,129,o),
(124,84,o),
(193,84,cs),
(396,84,o),
(490,287,o),
(550,508,c),
(852,508,l),
(852,578,l),
(219,578,l),
(219,508,l),
(468,508,l),
(430,314,o),
(329,150,o),
(193,150,cs),
(160,150,o),
(137,166,o),
(137,196,cs),
(137,295,o),
(533,356,o),
(692,356,c),
(609,249,l),
(655,199,l),
(782,219,o),
(837,202,o),
(837,159,cs),
(837,103,o),
(679,55,o),
(486,32,c),
(517,-14,l)
);
},
{
closed = 1;
nodes = (
(586,-57,l),
(558,-6,o),
(503,64,o),
(451,117,c),
(389,87,l),
(440,36,o),
(488,-35,o),
(518,-89,c)
);
},
{
closed = 1;
nodes = (
(199,621,o),
(247,721,o),
(278,835,c),
(202,850,l),
(171,736,o),
(126,651,o),
(51,563,c),
(121,525,l)
);
},
{
closed = 1;
nodes = (
(902,675,l),
(902,750,l),
(200,750,l),
(200,675,l)
);
}
);
width = 1000;
}
);
unicode = (20489,20179);
},
{
glyphname = uni501D;
lastChange = "2025-08-20 16:43:06 +0000";
layers = (
{
.lastUpdate = 777603456.37;
layerId = m01;
shapes = (
{
closed = 1;
nodes = (
(738,150,o),
(739,576,o),
(742,807,c),
(666,807,l),
(663,599,o),
(673,183,o),
(427,-17,c),
(486,-70,l)
);
},
{
closed = 1;
nodes = (
(316,-62,o),
(343,-25,o),
(343,33,cs),
(343,516,l),
(269,516,l),
(269,44,ls),
(269,20,o),
(259,6,o),
(243,6,cs),
(216,6,o),
(179,12,o),
(144,24,c),
(144,-51,l),
(176,-58,o),
(213,-62,o),
(266,-62,cs)
);
},
{
closed = 1;
nodes = (
(532,230,l),
(513,291,l),
(46,200,l),
(66,134,l)
);
},
{
closed = 1;
nodes = (
(431,375,o),
(523,452,o),
(523,549,cs),
(523,660,o),
(434,699,o),
(350,699,cs),
(295,699,o),
(245,675,o),
(218,655,c),
(258,709,o),
(297,758,o),
(354,805,c),
(277,845,l),
(183,725,o),
(123,645,o),
(100,572,cs),
(80,508,o),
(77,438,o),
(106,357,c),
(182,374,l),
(151,442,o),
(149,494,o),
(173,557,cs),
(190,601,o),
(252,632,o),
(313,632,cs),
(378,632,o),
(443,597,o),
(443,548,cs),
(443,486,o),
(416,434,o),
(311,411,c),
(312,353,l)
);
},
{
closed = 1;
nodes = (
(957,-12,l),
(889,124,o),
(787,279,o),
(696,389,c),
(652,334,l),
(731,229,o),
(824,74,o),
(890,-66,c)
);
}
);
width = 1000;
}
);
unicode = 20509;
},
{
glyphname = uni5098;
lastChange = "2025-08-20 16:43:06 +0000";
layers = (
{
.lastUpdate = 777603456.37;
layerId = m01;
shapes = (
{
closed = 1;
nodes = (
(530,-60,o),
(556,-36,o),
(556,35,cs),
(556,715,l),
(478,715,l),
(478,35,ls),
(478,15,o),
(470,7,o),
(450,7,cs),
(404,7,o),
(356,16,o),
(304,28,c),
(304,-50,l),
(364,-58,o),
(421,-62,o),
(465,-61,cs)
);
},
{
closed = 1;
nodes = (
(449,352,l),
(449,418,l),
(77,418,l),
(77,352,l)
);
},
{
closed = 1;
nodes = (
(953,259,l),
(734,288,o),
(442,290,o),
(56,259,c),
(56,187,l),
(437,215,o),
(727,208,o),
(936,181,c)
);
},
{
closed = 1;
nodes = (
(445,537,l),
(397,586,l),
(371,576,l),
(234,576,l),
(234,510,l),
(342,510,l),
(255,394,l),
(313,375,l)
);
},
{
closed = 1;
nodes = (
(217,579,o),
(275,701,o),
(311,830,c),
(233,840,l),
(201,715,o),
(139,595,o),
(66,519,c),
(136,488,l)
);
},
{
closed = 1;
nodes = (
(914,352,l),
(914,418,l),
(774,418,l),
(774,617,l),
(701,617,l),
(701,418,l),
(612,418,l),
(612,352,l)
);
},
{
closed = 1;
nodes = (
(874,672,l),
(874,740,l),
(223,740,l),
(223,672,l)
);
}
);
width = 1000;
}
);
unicode = 20632;
},
{
glyphname = uni50C9;
lastChange = "2025-08-20 16:43:06 +0000";
layers = (
{
.lastUpdate = 777603456.37;
layerId = m01;
shapes = (
{
closed = 1;
nodes = (
(210,553,o),
(270,708,o),
(295,824,c),
(220,840,l),
(195,716,o),
(130,571,o),
(63,495,c),
(133,458,l)
);
},
{
closed = 1;
nodes = (
(302,154,l),
(282,236,o),
(238,357,o),
(198,446,c),
(126,409,l),
(163,326,o),
(206,200,o),
(226,118,c)
);
},
{
closed = 1;
nodes = (
(904,-38,l),
(904,44,l),
(96,44,l),
(96,-38,l)
);
},
{
closed = 1;
nodes = (
(555,183,l),
(542,278,o),
(507,409,o),
(470,516,c),
(395,483,l),
(428,379,o),
(461,248,o),
(475,152,c)
);
},
{
closed = 1;
nodes = (
(780,220,o),
(834,361,o),
(869,471,c),
(784,505,l),
(756,391,o),
(709,251,o),
(667,146,c),
(735,119,l)
);
},
{
closed = 1;
nodes = (
(873,606,l),
(873,684,l),
(200,684,l),
(200,606,l)
);
}
);
width = 1000;
}
);
unicode = (20681,20325);
},
{
glyphname = uni513F;
lastChange = "2025-08-20 16:43:06 +0000";
layers = (
{
.lastUpdate = 777603456.37;
layerId = m01;
shapes = (
{
closed = 1;
nodes = (
(841,-50,ls),
(941,-50,o),
(947,40,o),
(952,198,c),
(872,212,l),
(871,42,o),
(859,22,o),
(831,22,cs),
(729,22,ls),
(699,22,o),
(686,40,o),
(686,90,cs),
(686,809,l),
(607,809,l),
(607,84,ls),
(607,-13,o),
(628,-50,o),
(717,-50,cs)
);
},
{
closed = 1;
nodes = (
(318,68,o),
(368,247,o),
(368,493,cs),
(368,808,l),
(290,808,l),
(290,494,ls),
(290,281,o),
(256,119,o),
(60,-1,c),
(109,-62,l)
);
}
);
width = 1000;
}
);
unicode = 20799;
},
{
glyphname = uni5140;
lastChange = "2025-08-20 16:43:35 +0000";
layers = (
{
.lastUpdate = 777603456.37;
layerId = m01;
shapes = (
{
closed = 1;
nodes = (
(841,-50,ls),
(941,-50,o),
(947,40,o),
(952,198,c),
(872,212,l),
(871,42,o),
(859,22,o),
(831,22,cs),
(729,22,ls),
(699,22,o),
(686,40,o),
(686,90,cs),
(686,709,l),
(607,709,l),
(607,84,ls),
(607,-13,o),
(628,-50,o),
(717,-50,cs)
);
},
{
closed = 1;
nodes = (
(318,68,o),
(368,247,o),
(368,493,cs),
(368,708,l),
(290,708,l),
(290,494,ls),
(290,281,o),
(256,119,o),
(60,-1,c),
(109,-62,l)
);
},
{
closed = 1;
nodes = (
(929,666,l),
(929,745,l),
(71,745,l),
(71,666,l)
);
}
);
width = 1000;
}
);
unicode = 20800;
},
{
glyphname = uni5141;
lastChange = "2025-08-20 16:50:57 +0000";
layers = (
{
.lastUpdate = 777603456.37;
layerId = m01;
shapes = (
{
closed = 1;
nodes = (
(827,-54,ls),
(913,-54,o),
(941,-12,o),
(952,143,c),
(874,164,l),
(869,46,o),
(862,21,o),
(827,21,cs),
(662,21,ls),
(628,21,o),
(613,37,o),
(613,62,cs),
(613,357,l),
(532,357,l),
(532,48,ls),
(532,-28,o),
(555,-54,o),
(648,-54,cs)
);
},
{
closed = 1;
nodes = (
(271,464,l),
(616,464,l),
(493,324,o),
(274,139,o),
(51,-3,c),
(103,-69,l),
(336,82,o),
(553,272,o),
(769,504,c),
(703,558,l),
(685,539,l),
(319,539,l),
(381,601,o),
(464,700,o),
(550,824,c),
(450,844,l),
(378,720,o),
(279,600,o),
(186,505,c),
(245,446,l)
);
}
);
width = 1000;
}
);
unicode = 20801;
},
{
glyphname = uni5143;
lastChange = "2025-08-20 16:43:06 +0000";
layers = (
{
.lastUpdate = 777603456.371;
layerId = m01;
shapes = (
{
closed = 1;
nodes = (
(342,16,o),
(384,191,o),
(398,412,c),
(578,412,l),
(578,56,ls),
(578,-33,o),
(602,-62,o),
(694,-62,cs),
(830,-62,ls),
(914,-62,o),
(939,-25,o),
(948,147,c),
(877,180,l),
(874,26,o),
(861,11,o),
(822,11,cs),
(703,11,ls),
(667,11,o),
(655,16,o),
(655,54,cs),
(655,412,l),
(922,412,l),
(922,490,l),
(79,490,l),
(79,412,l),
(319,412,l),
(308,219,o),
(278,72,o),
(68,-9,c),
(106,-77,l)
);
},
{
closed = 1;
nodes = (
(857,682,l),
(857,760,l),
(147,760,l),
(147,682,l)
);
}
);
vertWidth = 1000;
width = 1000;
}
);
note = cid10837;
unicode = 20803;
},
{
glyphname = uni5144;
lastChange = "2025-08-20 17:46:20 +0000";
layers = (
{
.lastUpdate = 777603456.371;
layerId = m01;
shapes = (
{
closed = 1;
nodes = (
(249,393,l),
(247,614,l),
(329,678,o),
(459,729,o),
(606,729,cs),
(733,729,o),
(770,701,o),
(770,652,cs),
(770,580,o),
(592,471,o),
(445,403,c),
(512,373,l),
(672,447,o),
(854,548,o),
(854,652,cs),
(854,743,o),
(776,804,o),
(606,804,cs),
(434,804,o),
(318,748,o),
(247,679,c),
(246,788,l),
(171,788,l),
(171,393,l)
);
},
{
closed = 1;
nodes = (
(358,343,l),
(600,343,l),
(481,246,o),
(257,94,o),
(51,-9,c),
(103,-69,l),
(305,33,o),
(553,211,o),
(769,391,c),
(703,433,l),
(675,413,l),
(358,413,l)
);
},
{
closed = 1;
nodes = (
(827,-55,ls),
(913,-55,o),
(941,-26,o),
(952,116,c),
(879,135,l),
(874,24,o),
(867,11,o),
(832,11,cs),
(662,11,ls),
(628,11,o),
(613,25,o),
(613,48,cs),
(613,271,l),
(532,271,l),
(532,38,ls),
(532,-32,o),
(555,-55,o),
(648,-55,cs)
);
}
);
width = 1000;
}
);
unicode = 20804;
},
{
glyphname = uni5145;
lastChange = "2025-08-20 16:43:06 +0000";
layers = (
{
.lastUpdate = 777603456.371;
layerId = m01;
shapes = (
{
closed = 1;
nodes = (
(305,46,o),
(523,231,o),
(739,428,c),
(673,474,l),
(645,448,l),
(333,448,l),
(413,528,o),
(488,664,o),
(559,824,c),
(477,844,l),
(416,685,o),
(297,499,o),
(179,409,c),
(229,346,l),
(275,382,l),
(580,382,l),
(461,276,o),
(257,113,o),
(51,-3,c),
(103,-69,l)
);
},
{
closed = 1;
nodes = (
(827,-54,ls),
(913,-54,o),
(941,-22,o),
(952,133,c),
(879,154,l),
(874,33,o),
(867,18,o),
(832,18,cs),
(632,18,ls),
(598,18,o),
(583,34,o),
(583,59,cs),
(583,303,l),
(502,303,l),
(502,48,ls),
(502,-28,o),
(525,-54,o),
(618,-54,cs)
);
},
{
closed = 1;
nodes = (
(934,608,l),
(934,681,l),
(70,681,l),
(70,608,l)
);
},
{
closed = 1;
nodes = (
(932,280,l),
(919,358,o),
(895,439,o),
(863,520,c),
(795,496,l),
(826,417,o),
(848,335,o),
(860,256,c)
);
}
);
width = 1000;
}
);
unicode = 20805;
},
{
glyphname = uni5146;
lastChange = "2025-08-21 20:44:42 +0000";
layers = (
{
.lastUpdate = 777603456.371;
layerId = m01;
shapes = (
{
closed = 1;
nodes = (
(364,699,o),
(621,720,o),
(827,758,c),
(788,827,l),
(637,797,o),
(345,774,o),
(120,770,c),
(136,700,l)
);
},
{
closed = 1;
nodes = (
(109,201,o),
(139,231,o),
(176,268,cs),
(190,282,o),
(213,284,o),
(225,280,cs),
(240,275,o),
(249,253,o),
(263,178,c),
(394,293,l),
(371,337,l),
(288,287,l),
(284,318,o),
(267,343,o),
(235,354,c),
(273,415,o),
(308,484,o),
(341,553,c),
(284,583,l),
(211,437,o),
(138,316,o),
(45,266,c),
(78,178,l)
);
},
{
closed = 1;
nodes = (
(841,-65,ls),
(914,-65,o),
(929,-19,o),
(937,127,c),
(866,144,l),
(861,29,o),
(856,6,o),
(817,6,cs),
(551,6,ls),
(514,6,o),
(505,17,o),
(505,59,cs),
(505,748,l),
(430,748,l),
(430,53,ls),
(430,-41,o),
(446,-65,o),
(520,-65,cs)
);
},
{
closed = 1;
nodes = (
(687,190,o),
(786,299,o),
(870,416,c),
(803,455,l),
(726,343,o),
(628,228,o),
(551,151,c),
(600,106,l)
);
},
{
closed = 1;
nodes = (
(656,435,o),
(727,518,o),
(801,620,c),
(733,658,l),
(669,560,o),
(600,472,o),
(538,404,c),
(587,364,l)
);
}
);
width = 1000;
}
);
unicode = 20806;
},
{
glyphname = uni5148;
lastChange = "2025-08-20 16:43:06 +0000";
layers = (
{
.lastUpdate = 777603456.371;
layerId = m01;
shapes = (
{
closed = 1;
nodes = (
(335,40,o),
(557,231,o),
(773,428,c),
(707,474,l),
(679,448,l),
(417,448,l),
(476,526,o),
(558,661,o),
(619,821,c),
(537,841,l),
(476,672,o),
(382,508,o),
(262,378,c),
(328,337,l),
(373,382,l),
(614,382,l),
(446,235,o),
(285,110,o),
(49,0,c),
(103,-69,l)
);
},
{
closed = 1;
nodes = (
(197,546,o),
(252,694,o),
(282,801,c),
(206,817,l),
(181,712,o),
(131,579,o),
(62,494,c),
(127,459,l)
);
},
{
closed = 1;
nodes = (
(827,-54,ls),
(923,-54,o),
(941,-22,o),
(952,123,c),
(877,144,l),
(876,33,o),
(869,18,o),
(834,18,cs),
(662,18,ls),
(628,18,o),
(613,34,o),
(613,59,cs),
(613,300,l),
(532,300,l),
(532,48,ls),
(532,-28,o),
(555,-54,o),
(648,-54,cs)
);
},
{
closed = 1;
nodes = (
(924,611,l),
(924,680,l),
(200,680,l),
(200,611,l)
);
}
);
vertWidth = 1000;
width = 1000;
}
);
note = cid10845;
unicode = 20808;
},
{
glyphname = uni5149;
lastChange = "2025-08-20 16:43:06 +0000";
layers = (
{
.lastUpdate = 777603456.371;
layerId = m01;
shapes = (
{
closed = 1;
nodes = (
(325,32,o),
(557,224,o),
(773,410,c),
(707,452,l),
(679,430,l),
(427,430,l),
(571,504,o),
(711,608,o),
(883,747,c),
(810,793,l),
(646,650,o),
(443,511,o),
(202,392,c),
(258,335,l),
(313,365,l),
(614,365,l),
(446,226,o),
(275,103,o),
(49,-9,c),
(103,-79,l)
);
},
{
closed = 1;
nodes = (
(823,-64,ls),
(909,-64,o),
(937,-10,o),
(952,127,c),
(879,147,l),
(874,46,o),
(867,9,o),
(832,9,cs),
(662,9,ls),
(628,9,o),
(613,26,o),
(613,51,cs),
(613,296,l),
(532,296,l),
(532,39,ls),
(532,-38,o),
(555,-64,o),
(648,-64,cs)
);
},
{
closed = 1;
nodes = (
(356,573,l),
(316,631,o),
(237,713,o),
(171,771,c),
(113,729,l),
(179,669,o),
(255,584,o),
(294,528,c)
);
},
{
closed = 1;
nodes = (
(535,488,l),
(535,840,l),
(459,840,l),
(459,488,l)
);
}
);
vertWidth = 1000;
width = 1000;
}
);
note = cid10846;
unicode = 20809;
},
{
glyphname = uni514B;
lastChange = "2025-08-20 16:43:06 +0000";
layers = (
{
.lastUpdate = 777603456.371;
layerId = m01;
shapes = (
{
closed = 1;
nodes = (
(315,40,o),
(553,231,o),
(769,428,c),
(703,474,l),
(675,448,l),
(363,448,l),
(443,528,o),
(538,664,o),
(609,824,c),
(527,844,l),
(466,685,o),
(327,499,o),
(209,409,c),
(259,346,l),
(305,382,l),
(610,382,l),
(491,276,o),
(267,107,o),
(51,-3,c),
(103,-69,l)
);
},
{
closed = 1;
nodes = (
(827,-54,ls),
(913,-54,o),
(941,-22,o),
(952,133,c),
(879,154,l),
(874,33,o),
(867,18,o),
(832,18,cs),
(662,18,ls),
(628,18,o),
(613,34,o),
(613,59,cs),
(613,303,l),
(532,303,l),
(532,48,ls),
(532,-28,o),
(555,-54,o),
(648,-54,cs)
);
},
{
closed = 1;
nodes = (
(934,605,l),
(934,684,l),
(70,684,l),
(70,605,l)
);
}
);
vertWidth = 1000;
width = 1000;
}
);
note = cid10849;
unicode = 20811;
},
{
glyphname = uni514C;
lastChange = "2025-08-20 16:43:06 +0000";
layers = (
{
.lastUpdate = 777603456.371;
layerId = m01;
shapes = (
{
closed = 1;
nodes = (
(437,88,o),
(655,281,o),
(804,438,c),
(741,473,l),
(713,452,l),
(414,452,l),
(582,551,o),
(731,664,o),
(861,781,c),
(786,831,l),
(662,710,o),
(504,583,o),
(287,453,cs),
(274,445,o),
(254,436,o),
(233,430,c),
(272,362,l),
(315,383,l),
(642,383,l),
(553,293,o),
(352,131,o),
(62,-10,c),
(114,-69,l)
);
},
{
closed = 1;
nodes = (
(830,-54,ls),
(914,-54,o),
(942,8,o),
(952,143,c),
(871,164,l),
(870,53,o),
(854,18,o),
(820,18,cs),
(650,18,ls),
(616,18,o),
(611,24,o),
(611,49,cs),
(611,293,l),
(532,231,l),
(532,48,ls),
(532,-28,o),
(556,-54,o),
(655,-54,cs)
);
},
{
closed = 1;
nodes = (
(441,646,l),
(384,705,o),
(306,770,o),
(232,821,c),
(177,772,l),
(255,718,o),
(329,656,o),
(383,595,c)
);
}
);
width = 1000;
}
);
unicode = (20812,20817);
},
{
glyphname = uni514D;
lastChange = "2025-08-20 16:43:06 +0000";
layers = (
{
.lastUpdate = 777603456.371;
layerId = m01;
shapes = (
{
closed = 1;
nodes = (
(403,43,o),
(628,313,o),
(828,615,c),
(758,646,l),
(559,350,o),
(357,105,o),
(63,-14,c),
(112,-81,l)
);
},
{
closed = 1;
nodes = (
(844,-64,ls),
(920,-64,o),
(945,-20,o),
(956,115,c),
(880,134,l),
(876,19,o),
(870,4,o),
(835,4,cs),
(704,4,ls),
(668,4,o),
(662,8,o),
(662,34,cs),
(662,219,l),
(583,219,l),
(583,33,ls),
(583,-42,o),
(601,-64,o),
(696,-64,cs)
);
},
{
closed = 1;
nodes = (
(297,605,o),
(387,706,o),
(458,828,c),
(370,839,l),
(320,750,o),
(230,638,o),
(95,552,c),
(141,496,l)
);
},
{
closed = 1;
nodes = (
(777,213,o),
(880,296,o),
(880,416,cs),
(880,510,o),
(784,557,o),
(654,557,cs),
(603,557,o),
(537,551,o),
(489,542,c),
(568,611,o),
(634,673,o),
(708,757,c),
(654,794,l),
(637,784,l),
(370,784,l),
(370,720,l),
(567,720,l),
(499,635,o),
(428,571,o),
(357,526,cs),
(305,494,o),
(259,474,o),
(179,428,c),
(223,360,l),
(345,447,o),
(511,487,o),
(654,487,cs),
(765,487,o),
(801,455,o),
(801,416,cs),
(801,338,o),
(683,288,o),
(351,346,c),
(351,270,l)
);
}
);
width = 1000;
}
);
unicode = 20813;
},
{
glyphname = uni5152;
lastChange = "2025-08-20 17:53:34 +0000";
layers = (
{
.lastUpdate = 777603456.371;
layerId = m01;
shapes = (
{
closed = 1;
nodes = (
(376,36,o),
(614,243,o),
(614,567,cs),
(614,824,l),
(535,824,l),
(535,567,ls),
(535,282,o),
(306,90,o),
(43,-11,c),
(87,-77,l)
);
},
{
closed = 1;
nodes = (
(163,340,l),
(163,728,l),
(88,728,l),
(88,340,l)
);
},
{
closed = 1;
nodes = (
(348,380,l),
(348,708,l),
(273,708,l),
(273,380,l)
);
},
{
closed = 1;
nodes = (
(843,-61,ls),
(929,-61,o),
(947,2,o),
(954,187,c),
(877,201,l),
(873,35,o),
(868,11,o),
(831,11,cs),
(704,11,ls),
(672,11,o),
(666,20,o),
(666,66,cs),
(666,308,l),
(590,308,l),
(590,67,ls),
(590,-33,o),
(613,-61,o),
(695,-61,cs)
);
},
{
closed = 1;
nodes = (
(898,419,o),
(925,486,o),
(925,536,cs),
(925,635,o),
(840,704,o),
(720,704,cs),
(551,704,o),
(457,656,o),
(329,565,c),
(343,513,l),
(471,600,o),
(561,631,o),
(720,631,cs),
(806,631,o),
(844,584,o),
(844,536,cs),
(844,504,o),
(818,453,o),
(762,412,c),
(826,358,l)
);
}
);
width = 1000;
}
);
unicode = (20818,20821);
},
{
glyphname = uni5154;
lastChange = "2025-08-20 16:43:06 +0000";
layers = (
{
.lastUpdate = 777603456.371;
layerId = m01;
shapes = (
{
closed = 1;
nodes = (
(403,43,o),
(629,351,o),
(830,643,c),
(760,673,l),
(560,387,o),
(357,105,o),
(63,-14,c),
(112,-81,l)
);
},
{
closed = 1;
nodes = (
(754,-64,ls),
(830,-64,o),
(855,-30,o),
(866,65,c),
(790,94,l),
(786,19,o),
(780,4,o),
(745,4,cs),
(675,4,ls),
(639,4,o),
(633,8,o),
(633,34,cs),
(633,240,l),
(554,240,l),
(554,33,ls),
(554,-42,o),
(572,-64,o),
(667,-64,cs)
);
},
{
closed = 1;
nodes = (
(297,613,o),
(388,711,o),
(459,828,c),
(371,839,l),
(321,753,o),
(230,645,o),
(95,562,c),
(141,508,l)
);
},
{
closed = 1;
nodes = (
(969,146,l),
(915,189,o),
(845,228,o),
(775,261,c),
(739,207,l),
(815,170,o),
(874,130,o),
(929,83,c)
);
},
{
closed = 1;
nodes = (
(779,235,o),
(882,315,o),
(882,431,cs),
(882,521,o),
(786,567,o),
(655,567,cs),
(604,567,o),
(538,561,o),
(490,552,c),
(569,619,o),
(635,679,o),
(709,760,c),
(655,796,l),
(638,786,l),
(371,786,l),
(371,724,l),
(568,724,l),
(500,642,o),
(429,580,o),
(358,537,cs),
(305,506,o),
(259,487,o),
(179,442,c),
(223,376,l),
(346,460,o),
(512,499,o),
(655,499,cs),
(767,499,o),
(803,468,o),
(803,431,cs),
(803,355,o),
(684,307,o),
(352,363,c),
(352,290,l)
);
}
);
width = 1000;
}
);
unicode = 20820;
},
{
glyphname = uni515A;
lastChange = "2025-08-20 17:59:59 +0000";
layers = (
{
.lastUpdate = 777603456.371;
layerId = m01;
shapes = (
{
closed = 1;
nodes = (
(323,669,l),
(307,712,o),
(273,768,o),
(232,814,c),
(167,784,l),
(207,737,o),
(240,683,o),
(256,639,c)
);
},
{
closed = 1;
nodes = (
(540,583,l),
(540,840,l),
(458,840,l),
(458,583,l)
);
},
{
closed = 1;
nodes = (
(757,678,o),
(796,735,o),
(830,790,c),
(759,821,l),
(735,769,o),
(697,710,o),
(660,667,c),
(719,638,l)
);
},
{
closed = 1;
nodes = (
(928,401,o),
(939,441,o),
(939,485,cs),
(939,604,o),
(788,631,o),
(614,631,cs),
(427,631,o),
(291,596,o),
(149,515,c),
(149,600,l),
(77,600,l),
(77,384,l),
(149,384,l),
(149,473,l),
(323,539,o),
(454,553,o),
(613,553,cs),
(751,553,o),
(856,521,o),
(856,476,cs),
(856,454,o),
(847,436,o),
(832,420,c),
(900,369,l)
);
},
{
closed = 1;
nodes = (
(273,353,l),
(604,353,l),
(488,253,o),
(283,104,o),
(49,-4,c),
(103,-69,l),
(333,39,o),
(574,230,o),
(763,396,c),
(697,442,l),
(669,425,l),
(273,425,l)
);
},
{
closed = 1;
nodes = (
(827,-55,ls),
(923,-55,o),
(941,-25,o),
(952,111,c),
(877,130,l),
(876,26,o),
(869,12,o),
(834,12,cs),
(648,12,ls),
(614,12,o),
(599,27,o),
(599,51,cs),
(599,276,l),
(522,276,l),
(522,40,ls),
(522,-31,o),
(545,-55,o),
(638,-55,cs)
);
}
);
width = 1000;
}
);
unicode = 20826;
},
{
glyphname = uni515C;
lastChange = "2025-08-20 18:06:09 +0000";
layers = (
{
.lastUpdate = 777603456.371;
layerId = m01;
shapes = (
{
closed = 1;
nodes = (
(731,363,o),
(846,445,o),
(845,556,cs),
(844,697,o),
(753,770,o),
(570,770,cs),
(453,770,o),
(360,734,o),
(280,677,c),
(305,713,o),
(327,758,o),
(353,812,c),
(274,835,l),
(237,734,o),
(181,644,o),
(113,560,c),
(190,527,l),
(209,555,o),
(230,585,o),
(260,608,cs),
(338,668,o),
(454,702,o),
(570,701,cs),
(694,700,o),
(764,651,o),
(764,557,cs),
(764,479,o),
(680,430,o),
(565,430,cs),
(492,430,o),
(425,439,o),
(362,451,c),
(362,378,l),
(420,368,o),
(476,363,o),
(565,363,cs)
);
},
{
closed = 1;
nodes = (
(0,0,o),
(0,0,o)
);
},
{
closed = 1;
nodes = (
(376,36,o),
(514,243,o),
(564,567,c),
(492,575,l),
(442,290,o),
(313,88,o),
(50,-13,c),
(87,-77,l)
);
},
{
closed = 1;
nodes = (
(793,-61,ls),
(879,-61,o),
(897,2,o),
(904,114,c),
(827,124,l),
(823,24,o),
(818,11,o),
(781,11,cs),
(621,11,ls),
(589,11,o),
(583,20,o),
(583,66,cs),
(583,308,l),
(510,308,l),
(510,67,ls),
(510,-33,o),
(533,-61,o),
(615,-61,cs)
);
},
{
closed = 1;
nodes = (
(168,243,o),
(203,331,o),
(226,402,c),
(145,418,l),
(130,352,o),
(95,267,o),
(62,215,c),
(133,187,l)
);
},
{
closed = 1;
nodes = (
(946,202,l),
(930,262,o),
(905,353,o),
(867,422,c),
(792,400,l),
(828,330,o),
(852,237,o),
(865,179,c)
);
}
);
width = 1000;
}
);
unicode = 20828;
},
{
glyphname = uni5165;
lastChange = "2025-08-20 16:43:06 +0000";
layers = (
{
.lastUpdate = 777603456.371;
layerId = m01;
shapes = (
{
closed = 1;
nodes = (
(963,-19,l),
(701,358,o),
(482,646,o),
(275,831,c),
(213,773,l),
(419,587,o),
(631,312,o),
(890,-71,c)
);
},
{
closed = 1;
nodes = (
(296,77,o),
(466,284,o),
(560,476,c),
(489,513,l),
(395,323,o),
(247,137,o),
(53,-7,c),
(104,-76,l)
);
}
);
width = 1000;
}
);
unicode = 20837;
},
{
glyphname = uni5167;
lastChange = "2025-08-20 16:43:06 +0000";
layers = (
{
.lastUpdate = 777603456.371;
layerId = m01;
shapes = (
{
closed = 1;
nodes = (
(173,-82,l),
(173,568,l),
(223,594,o),
(288,603,o),
(391,603,cs),
(740,603,ls),
(803,603,o),
(829,575,o),
(829,521,cs),
(829,23,ls),
(829,5,o),
(821,-5,o),
(801,-5,cs),
(761,-5,o),
(713,0,o),
(652,17,c),
(652,-60,l),
(707,-70,o),
(759,-73,o),
(815,-73,cs),
(871,-73,o),
(903,-43,o),
(903,29,cs),
(903,517,ls),
(903,634,o),
(849,677,o),
(740,677,cs),
(398,677,ls),
(284,677,o),
(220,659,o),
(173,629,c),
(173,669,l),
(99,669,l),
(99,-82,l)
);
},
{
closed = 1;
nodes = (
(702,279,l),
(702,353,l),
(300,353,l),
(300,279,l)
);
},
{
closed = 1;
nodes = (
(539,353,l),
(539,840,l),
(463,840,l),
(463,353,l)
);
}
);
width = 1000;
}
);
unicode = (20839,20869);
},
{
glyphname = uni5168;
lastChange = "2025-08-20 16:43:06 +0000";
layers = (
{
.lastUpdate = 777603456.372;
layerId = m01;
shapes = (
{
closed = 1;
nodes = (
(622,18,l),
(686,64,o),
(734,143,o),
(734,207,cs),
(734,293,o),
(653,354,o),
(521,354,cs),
(369,354,o),
(285,313,o),
(285,225,cs),
(285,151,o),
(345,97,o),
(449,97,cs),
(520,97,o),
(560,145,o),
(560,195,cs),
(560,439,l),
(481,439,l),
(481,217,ls),
(481,183,o),
(460,166,o),
(432,166,cs),
(408,166,o),
(365,194,o),
(365,225,cs),
(365,257,o),
(402,281,o),
(521,281,cs),
(606,281,o),
(652,240,o),
(652,205,cs),
(652,160,o),
(632,92,o),
(523,18,c)
);
},
{
closed = 1;
nodes = (
(920,-54,l),
(920,18,l),
(78,18,l),
(78,-54,l)
);
},
{
closed = 1;
nodes = (
(208,570,o),
(261,689,o),
(310,834,c),
(237,852,l),
(189,707,o),
(126,588,o),
(58,500,c),
(123,455,l)
);
},
{
closed = 1;
nodes = (
(807,439,l),
(807,511,l),
(263,511,l),
(263,439,l)
);
},
{
closed = 1;
nodes = (
(887,642,l),
(887,714,l),
(211,714,l),
(211,642,l)
);
}
);
vertWidth = 1000;
width = 1000;
}
);
note = cid10899;
unicode = 20840;
},
{
glyphname = uni5169;
lastChange = "2025-08-20 16:43:06 +0000";
layers = (
{
.lastUpdate = 777603456.372;
layerId = m01;
shapes = (
{
closed = 1;
nodes = (
(820,-46,o),
(917,99,o),
(917,252,cs),
(917,434,o),
(779,505,o),
(577,505,cs),
(499,505,o),
(440,495,o),
(388,481,c),
(457,540,o),
(541,659,o),
(608,799,c),
(519,831,l),
(468,696,o),
(394,577,o),
(279,467,cs),
(262,451,o),
(213,433,o),
(156,410,c),
(200,349,l),
(309,396,o),
(430,433,o),
(569,433,cs),
(725,433,o),
(836,391,o),
(836,250,cs),
(836,136,o),
(769,26,o),
(645,26,cs),
(587,26,o),
(529,32,o),
(473,51,c),
(473,-29,l),
(527,-43,o),
(588,-46,o),
(653,-46,cs)
);
},
{
closed = 1;
nodes = (
(363,60,o),
(591,231,o),
(680,324,c),
(613,372,l),
(533,281,o),
(348,135,o),
(279,135,cs),
(259,135,o),
(246,159,o),
(239,197,c),
(160,183,l),
(179,105,o),
(203,60,o),
(260,60,cs)
);
},
{
closed = 1;
nodes = (
(624,145,l),
(569,206,o),
(464,290,o),
(390,337,c),
(337,290,l),
(410,244,o),
(516,153,o),
(567,96,c)
);
},
{
closed = 1;
nodes = (
(896,608,l),
(896,683,l),
(104,683,l),
(104,608,l)
);
}
);
width = 1000;
}
);
unicode = (20841,20004,20137);
},
{
glyphname = uni516B;
lastChange = "2025-08-21 19:10:58 +0000";
layers = (
{
.lastUpdate = 777603456.372;
layerId = m01;
shapes = (
{
closed = 1;
nodes = (
(924,98,l),
(860,304,o),
(770,533,o),
(692,706,c),
(615,669,l),
(693,504,o),
(775,283,o),
(835,71,c)
);
},
{
closed = 1;
nodes = (
(241,263,o),
(318,480,o),
(366,673,c),
(280,688,l),
(239,502,o),
(160,288,o),
(72,125,c),
(144,78,l)
);
}
);
width = 1000;
}
);
unicode = 20843;
},
{
glyphname = uni516C;
lastChange = "2025-08-20 16:43:06 +0000";
layers = (
{
.lastUpdate = 777603456.372;
layerId = m01;
shapes = (
{
closed = 1;
nodes = (
(201,3,l),
(806,41,l),
(799,113,l),
(311,84,l),
(475,239,o),
(630,428,o),
(831,720,c),
(743,763,l),
(549,457,o),
(397,248,o),
(273,140,cs),
(226,99,o),
(159,72,o),
(132,65,c),
(161,-14,l)
);
},
{
closed = 1;
nodes = (
(432,481,l),
(382,557,o),
(299,658,o),
(220,745,c),
(148,695,l),
(232,610,o),
(304,521,o),
(355,440,c)
);
},
{
closed = 1;
nodes = (
(906,-39,l),
(861,64,o),
(793,189,o),
(711,306,c),
(641,274,l),
(722,156,o),
(782,29,o),
(828,-73,c)
);
}
);
vertWidth = 1000;
width = 1000;
}
);
note = cid10909;
unicode = (20844,13667);
},
{
glyphname = uni516D;
lastChange = "2025-08-20 18:09:57 +0000";
layers = (
{
.lastUpdate = 777603456.372;
layerId = m01;
shapes = (
{
closed = 1;
nodes = (
(225,499,o),
(285,671,o),
(310,799,c),
(230,810,l),
(205,673,o),
(140,512,o),
(73,428,c),
(148,394,l)
);
},
{
closed = 1;
nodes = (
(863,556,l),
(863,636,l),
(220,636,l),
(220,556,l)
);
},
{
closed = 1;
nodes = (
(894,37,l),
(830,159,o),
(740,293,o),
(662,395,c),
(593,348,l),
(671,250,o),
(753,121,o),
(813,-3,c)
);
},
{
closed = 1;
nodes = (
(262,112,o),
(339,237,o),
(387,347,c),
(309,383,l),
(268,277,o),
(189,156,o),
(101,63,c),
(165,7,l)
);
}
);
width = 1000;
}
);
unicode = 20845;
},
{
glyphname = uni516E;
lastChange = "2025-08-20 18:13:21 +0000";
layers = (
{
.lastUpdate = 777603456.372;
layerId = m01;
shapes = (
{
closed = 1;
nodes = (
(396,613,l),
(372,671,o),
(326,761,o),
(285,824,c),
(206,796,l),
(244,733,o),
(289,646,o),
(315,582,c)
);
},
{
closed = 1;
nodes = (
(702,632,o),
(754,723,o),
(794,797,c),
(706,827,l),
(671,747,o),
(625,657,o),
(583,596,c),
(658,573,l)
);
},
{
closed = 1;
nodes = (
(731,-64,o),
(834,4,o),
(834,143,cs),
(834,281,o),
(696,322,o),
(530,322,cs),
(494,322,o),
(467,321,o),
(437,315,c),
(515,358,o),
(588,407,o),
(653,455,c),
(919,455,l),
(919,536,l),
(81,536,l),
(80,455,l),
(528,455,l),
(477,410,o),
(411,359,o),
(320,309,cs),
(301,299,o),
(273,293,o),
(201,275,c),
(228,208,l),
(325,237,o),
(427,252,o),
(519,252,cs),
(642,252,o),
(752,218,o),
(752,143,cs),
(752,50,o),
(672,10,o),
(585,10,cs),
(539,10,o),
(481,15,o),
(411,27,c),
(411,-51,l),
(470,-61,o),
(529,-64,o),
(595,-64,cs)
);
},
{
closed = 1;
nodes = (
(0,-19,o),
(0,-19,o)
);
}
);
width = 1000;
}
);
unicode = 20846;
},
{
glyphname = uni5171;
lastChange = "2025-08-20 18:29:59 +0000";
layers = (
{
.lastUpdate = 777603456.372;
layerId = m01;
shapes = (
{
closed = 1;
nodes = (
(386,429,l),
(366,547,o),
(333,673,o),
(290,787,c),
(214,769,l),
(258,654,o),
(289,530,o),
(305,412,c)
);
},
{
closed = 1;
nodes = (
(933,553,l),
(933,633,l),
(67,633,l),
(67,553,l)
);
},
{
closed = 1;
nodes = (
(686,457,o),
(742,645,o),
(780,817,c),
(695,827,l),
(664,660,o),
(613,478,o),
(534,324,c),
(605,307,l)
);
},
{
closed = 1;
nodes = (
(910,17,l),
(694,71,o),
(507,109,o),
(344,134,c),
(501,176,o),
(674,226,o),
(781,260,c),
(751,342,l),
(719,331,l),
(552,361,o),
(429,379,o),
(288,398,c),
(244,324,l),
(402,307,o),
(490,297,o),
(595,279,c),
(499,243,o),
(372,202,o),
(245,164,cs),
(215,155,o),
(188,162,o),
(146,165,c),
(102,91,l),
(366,52,o),
(622,2,o),
(875,-59,c)
);
}
);
width = 1000;
}
);
unicode = 20849;
},
{
glyphname = uni5173;
lastChange = "2025-08-20 16:43:06 +0000";
layers = (
{
.lastUpdate = 777603456.372;
layerId = m01;
shapes = (
{
closed = 1;
nodes = (
(429,10,o),
(526,170,o),
(555,438,c),
(474,438,l),
(444,192,o),
(359,62,o),
(65,-5,c),
(102,-76,l)
);
},
{
closed = 1;
nodes = (
(484,498,l),
(474,570,l),
(92,497,l),
(106,426,l)
);
},
{
closed = 1;
nodes = (
(932,250,l),
(932,326,l),
(68,326,l),
(68,250,l)
);
},
{
closed = 1;
nodes = (
(928,-15,l),
(843,47,o),
(719,120,o),
(603,172,c),
(558,110,l),
(673,57,o),
(792,-16,o),
(875,-80,c)
);
},
{
closed = 1;
nodes = (
(365,561,o),
(436,665,o),
(487,754,c),
(420,792,l),
(396,776,l),
(116,776,l),
(116,699,l),
(368,699,l),
(335,638,o),
(296,579,o),
(237,515,c),
(300,492,l)
);
},
{
closed = 1;
nodes = (
(894,455,l),
(894,525,l),
(753,525,l),
(753,808,l),
(675,808,l),
(675,525,l),
(564,525,l),
(564,455,l)
);
}
);
width = 1000;
}
);
unicode = (20851,139719);
},
{
glyphname = uni5175;
lastChange = "2025-08-20 16:43:06 +0000";
layers = (
{
.lastUpdate = 777603456.372;
layerId = m01;
shapes = (
{
closed = 1;
nodes = (
(255,333,l),
(255,708,l),
(466,716,o),
(695,733,o),
(853,762,c),
(795,831,l),
(654,804,o),
(394,786,o),
(174,779,c),
(174,333,l)
);
},
{
closed = 1;
nodes = (
(882,-10,l),
(713,31,o),
(401,95,o),
(161,130,c),
(110,61,l),
(356,24,o),
(669,-35,o),
(836,-79,c)
);
},
{
closed = 1;
nodes = (
(737,172,l),
(634,196,o),
(475,224,o),
(351,243,c),
(307,178,l),
(429,160,o),
(593,129,o),
(692,104,c)
);
},
{
closed = 1;
nodes = (
(930,283,l),
(930,359,l),
(70,359,l),
(70,283,l)
);
},
{
closed = 1;
nodes = (
(820,348,o),
(844,405,o),
(844,469,cs),
(844,563,o),
(767,628,o),
(583,628,cs),
(429,628,o),
(334,592,o),
(255,548,c),
(255,480,l),
(367,532,o),
(470,553,o),
(583,553,cs),
(676,553,o),
(762,521,o),
(762,469,cs),
(762,414,o),
(745,371,o),
(704,323,c),
(770,293,l)
);
}
);
width = 1000;
}
);
unicode = 20853;
},
{
glyphname = uni5176;
lastChange = "2025-08-20 16:43:06 +0000";
layers = (
{
.lastUpdate = 777603456.372;
layerId = m01;
shapes = (
{
closed = 1;
nodes = (
(733,-42,ls),
(818,-42,o),
(859,-4,o),
(880,137,c),
(800,159,l),
(792,62,o),
(769,32,o),
(722,32,cs),
(297,32,ls),
(273,32,o),
(250,37,o),
(250,47,cs),
(250,56,o),
(265,69,o),
(280,77,cs),
(392,137,o),
(614,260,o),
(756,340,c),
(686,399,l),
(658,375,l),
(381,375,l),
(481,480,o),
(532,615,o),
(578,741,c),
(502,755,l),
(449,613,o),
(379,461,o),
(215,344,c),
(270,291,l),
(296,312,l),
(559,312,l),
(474,262,o),
(322,182,o),
(189,111,cs),
(155,93,o),
(139,66,o),
(139,41,cs),
(139,-10,o),
(160,-42,o),
(254,-42,cs)
);
},
{
closed = 1;
nodes = (
(934,502,l),
(934,578,l),
(72,578,l),
(72,502,l)
);
},
{
closed = 1;
nodes = (
(864,722,l),
(864,798,l),
(142,798,l),
(142,722,l)
);
}
);
vertWidth = 1000;
width = 1000;
}
);
note = cid10925;
unicode = 20854;
},
{
glyphname = uni5177;
lastChange = "2025-08-20 18:34:42 +0000";
layers = (
{
.lastUpdate = 777603456.372;
layerId = m01;
shapes = (
{
closed = 1;
nodes = (
(708,369,o),
(857,437,o),
(857,606,cs),
(857,738,o),
(756,809,o),
(547,809,cs),
(391,809,o),
(273,758,o),
(223,715,c),
(223,629,l),
(291,689,o),
(408,731,o),
(547,731,cs),
(710,731,o),
(778,690,o),
(778,606,cs),
(778,470,o),
(646,444,o),
(366,476,c),
(366,404,l)
);
},
{
closed = 1;
nodes = (
(486,282,l),
(521,334,o),
(534,394,o),
(534,465,cs),
(534,635,l),
(454,635,l),
(454,466,ls),
(454,408,o),
(447,360,o),
(420,318,c)
);
},
{
closed = 1;
nodes = (
(223,397,l),
(223,785,l),
(147,785,l),
(147,397,l)
);
},
{
closed = 1;
nodes = (
(910,10,l),
(694,60,o),
(507,95,o),
(344,117,c),
(501,156,o),
(674,202,o),
(781,233,c),
(751,308,l),
(719,297,l),
(552,325,o),
(429,341,o),
(288,359,c),
(244,291,l),
(402,276,o),
(490,266,o),
(595,250,c),
(499,217,o),
(372,180,o),
(245,145,cs),
(215,137,o),
(188,143,o),
(146,146,c),
(102,78,l),
(366,42,o),
(622,-3,o),
(875,-59,c)
);
}
);
width = 1000;
}
);
unicode = 20855;
},
{
glyphname = uni5178;
lastChange = "2025-08-20 18:48:03 +0000";
layers = (
{
.lastUpdate = 777603456.372;
layerId = m01;
shapes = (
{
closed = 1;
nodes = (
(213,-18,o),
(337,52,o),
(412,126,c),
(333,161,l),
(276,98,o),
(161,25,o),
(50,-18,c),
(104,-70,l)
);
},
{
closed = 1;
nodes = (
(937,181,l),
(937,255,l),
(70,255,l),
(70,181,l)
);
},
{
closed = 1;
nodes = (
(945,-20,l),
(877,35,o),
(756,110,o),
(656,167,c),
(598,122,l),
(696,63,o),
(815,-12,o),
(880,-68,c)
);
},
{
closed = 1;
nodes = (
(313,844,l),
(269,611,o),
(342,464,o),
(481,378,c),
(527,432,l),
(403,520,o),
(341,626,o),
(385,835,c)
);
},
{
closed = 1;
nodes = (
(618,842,l),
(588,550,o),
(475,365,o),
(288,365,cs),
(227,365,o),
(166,405,o),
(166,469,cs),
(166,607,o),
(320,678,o),
(528,678,cs),
(672,678,o),
(831,634,o),
(831,501,cs),
(831,371,o),
(735,286,o),
(559,266,c),
(600,206,l),
(781,235,o),
(903,331,o),
(903,498,cs),
(903,678,o),
(737,755,o),
(528,755,cs),
(271,755,o),
(92,661,o),
(92,469,cs),
(92,353,o),
(198,288,o),
(288,288,cs),
(524,288,o),
(650,512,o),
(689,830,c)
);
}
);
width = 1000;
}
);
unicode = 20856;
},
{
glyphname = uni517C;
lastChange = "2025-08-20 19:02:24 +0000";
layers = (
{
.lastUpdate = 777603456.372;
layerId = m01;
shapes = (
{
closed = 1;
nodes = (
(122,483,l),
(249,557,o),
(385,597,o),
(567,597,cs),
(782,597,o),
(831,497,o),
(831,393,cs),
(831,251,o),
(741,180,o),
(606,180,cs),
(500,180,o),
(403,183,o),
(298,197,c),
(298,122,l),
(403,108,o),
(500,106,o),
(606,106,cs),
(815,106,o),
(911,233,o),
(911,393,cs),
(911,532,o),
(855,676,o),
(567,676,cs),
(367,676,o),
(205,626,o),
(84,553,c)
);
},
{
closed = 1;
nodes = (
(376,683,l),
(358,727,o),
(325,793,o),
(293,840,c),
(220,813,l),
(248,768,o),
(285,697,o),
(299,652,c)
);
},
{
closed = 1;
nodes = (
(734,696,o),
(772,769,o),
(795,821,c),
(709,844,l),
(694,793,o),
(663,720,o),
(634,668,c),
(704,647,l)
);
},
{
closed = 1;
nodes = (
(408,235,l),
(397,335,o),
(374,436,o),
(344,529,c),
(272,510,l),
(303,416,o),
(323,317,o),
(331,217,c)
);
},
{
closed = 1;
nodes = (
(825,331,l),
(825,412,l),
(164,412,l),
(164,331,l)
);
},
{
closed = 1;
nodes = (
(605,161,o),
(647,353,o),
(677,529,c),
(597,539,l),
(573,369,o),
(533,183,o),
(473,5,c),
(542,-12,l)
);
},
{
closed = 1;
nodes = (
(862,-57,l),
(862,22,l),
(134,22,l),
(134,-57,l)
);
}
);
width = 1000;
}
);
unicode = 20860;
},
{
glyphname = uni5180;
lastChange = "2025-08-20 19:26:14 +0000";
layers = (
{
.lastUpdate = 777603456.372;
layerId = m01;
shapes = (
{
closed = 1;
nodes = (
(376,704,l),
(358,745,o),
(325,806,o),
(293,848,c),
(220,824,l),
(248,783,o),
(285,717,o),
(299,676,c)
);
},
{
closed = 1;
nodes = (
(734,716,o),
(772,784,o),
(795,831,c),
(709,852,l),
(694,806,o),
(663,738,o),
(634,691,c),
(704,672,l)
);
},
{
closed = 1;
nodes = (
(660,499,l),
(546,541,o),
(456,569,o),
(321,586,c),
(296,530,l),
(431,509,o),
(520,484,o),
(622,445,c)
);
},
{
closed = 1;
nodes = (
(681,538,o),
(816,602,o),
(881,646,c),
(825,699,l),
(805,690,l),
(133,690,l),
(133,621,l),
(702,621,l),
(647,589,o),
(582,555,o),
(509,523,c),
(592,498,l)
);
},
{
closed = 1;
nodes = (
(769,251,l),
(769,314,l),
(231,314,l),
(231,251,l)
);
},
{
closed = 1;
nodes = (
(907,124,l),
(907,190,l),
(93,190,l),
(93,124,l)
);
},
{
closed = 1;
nodes = (
(954,-40,l),
(872,7,o),
(728,68,o),
(598,111,c),
(543,66,l),
(671,20,o),
(818,-46,o),
(896,-91,c)
);
},
{
closed = 1;
nodes = (
(165,294,l),
(165,351,l),
(278,391,o),
(452,415,o),
(619,415,cs),
(790,415,o),
(826,392,o),
(826,378,cs),
(826,355,o),
(818,341,o),
(800,322,c),
(875,297,l),
(898,324,o),
(907,344,o),
(907,382,cs),
(907,447,o),
(816,480,o),
(619,480,cs),
(418,480,o),
(278,448,o),
(165,402,c),
(165,465,l),
(93,465,l),
(93,294,l)
);
},
{
closed = 1;
nodes = (
(538,378,l),
(462,378,l),
(462,265,ls),
(462,87,o),
(306,4,o),
(46,-29,c),
(94,-88,l),
(370,-48,o),
(538,59,o),
(538,263,cs)
);
}
);
width = 1000;
}
);
unicode = 20864;
},
{
glyphname = uni5182;
lastChange = "2025-08-20 19:28:10 +0000";
layers = (
{
.lastUpdate = 777603456.372;
layerId = m01;
shapes = (
{
closed = 1;
nodes = (
(178,-82,l),
(178,670,l),
(228,696,o),
(288,705,o),
(391,705,cs),
(740,705,ls),
(803,705,o),
(824,677,o),
(824,623,cs),
(824,23,ls),
(824,5,o),
(816,-5,o),
(796,-5,cs),
(756,-5,o),
(713,0,o),
(652,17,c),
(652,-60,l),
(707,-70,o),
(759,-73,o),
(815,-73,cs),
(871,-73,o),
(903,-43,o),
(903,29,cs),
(903,624,ls),
(903,741,o),
(849,784,o),
(740,784,cs),
(398,784,ls),
(284,784,o),
(225,766,o),
(178,736,c),
(178,776,l),
(99,776,l),
(99,-82,l)
);
}
);
width = 1000;
}
);
unicode = 20866;
},
{
glyphname = uni5189;
lastChange = "2025-08-20 19:39:19 +0000";
layers = (
{
.lastUpdate = 777603456.372;
layerId = m01;
shapes = (
{
closed = 1;
nodes = (
(233,-82,l),
(233,598,l),
(283,624,o),
(348,633,o),
(451,633,cs),
(680,633,ls),
(743,633,o),
(769,605,o),
(769,551,cs),
(769,23,ls),
(769,5,o),
(761,-5,o),
(741,-5,cs),
(701,-5,o),
(653,0,o),
(592,17,c),
(592,-60,l),
(647,-70,o),
(699,-73,o),
(755,-73,cs),
(811,-73,o),
(843,-43,o),
(843,29,cs),
(843,547,ls),
(843,664,o),
(789,707,o),
(680,707,cs),
(458,707,ls),
(344,707,o),
(280,689,o),
(233,659,c),
(233,699,l),
(159,699,l),
(159,-82,l)
);
},
{
closed = 1;
nodes = (
(941,249,l),
(941,323,l),
(59,323,l),
(59,249,l)
);
},
{
closed = 1;
nodes = (
(539,323,l),
(539,840,l),
(463,840,l),
(463,323,l)
);
},
{
closed = 1;
nodes = (
(283,438,l),
(717,438,l),
(717,512,l),
(283,512,l)
);
}
);
width = 1000;
}
);
unicode = 20873;
},
{
glyphname = uni518A;
lastChange = "2025-08-20 19:52:11 +0000";
layers = (
{
.lastUpdate = 777603456.373;
layerId = m01;
shapes = (
{
closed = 1;
nodes = (
(553,134,o),
(615,194,o),
(615,435,cs),
(615,640,o),
(527,755,o),
(375,755,cs),
(264,755,o),
(191,722,o),
(151,683,c),
(151,615,l),
(196,648,o),
(273,681,o),
(375,681,cs),
(463,681,o),
(543,601,o),
(543,435,cs),
(543,258,o),
(505,211,o),
(458,211,cs),
(428,211,o),
(405,263,o),
(405,325,cs),
(405,540,o),
(518,696,o),
(674,696,cs),
(781,696,o),
(811,598,o),
(811,436,cs),
(811,143,o),
(776,5,o),
(691,5,cs),
(634,5,o),
(575,14,o),
(518,34,c),
(518,-52,l),
(578,-65,o),
(632,-70,o),
(697,-70,cs),
(833,-70,o),
(889,53,o),
(889,436,cs),
(889,653,o),
(842,776,o),
(674,776,cs),
(498,776,o),
(332,629,o),
(332,325,cs),
(332,206,o),
(396,134,o),
(458,134,cs)
);
},
{
closed = 1;
nodes = (
(133,-52,l),
(211,-52,l),
(211,774,l),
(133,774,l)
);
},
{
closed = 1;
nodes = (
(50,340,l),
(950,340,l),
(950,420,l),
(50,420,l)
);
}
);
width = 1000;
}
);
unicode = (20874,20876);
},
{
glyphname = uni518D;
lastChange = "2025-08-20 16:43:06 +0000";
layers = (
{
.lastUpdate = 777603456.373;
layerId = m01;
shapes = (
{
closed = 1;
nodes = (
(729,-77,o),
(761,-55,o),
(761,14,cs),
(761,435,ls),
(761,520,o),
(750,594,o),
(720,653,c),
(641,623,l),
(671,572,o),
(682,510,o),
(682,432,cs),
(682,23,ls),
(682,5,o),
(676,-1,o),
(657,-1,cs),
(623,-1,o),
(574,7,o),
(528,22,c),
(528,-62,l),
(579,-72,o),
(632,-77,o),
(684,-77,cs)
);
},
{
closed = 1;
nodes = (
(317,-82,l),
(317,427,ls),
(317,533,o),
(358,633,o),
(424,722,c),
(332,722,l),
(264,637,o),
(238,553,o),
(238,440,cs),
(238,-82,l)
);
},
{
closed = 1;
nodes = (
(942,213,l),
(942,292,l),
(60,292,l),
(60,213,l)
);
},
{
closed = 1;
nodes = (
(908,461,l),
(908,536,l),
(94,536,l),
(94,461,l)
);
},
{
closed = 1;
nodes = (
(925,722,l),
(925,794,l),
(77,794,l),
(77,722,l)
);
}
);
vertWidth = 1000;
width = 1000;
}
);
note = cid10955;
unicode = 20877;
},
{
glyphname = uni5192;
lastChange = "2025-08-20 19:57:49 +0000";
layers = (
{
.lastUpdate = 777603456.373;
layerId = m01;
shapes = (
{
closed = 1;
nodes = (
(783,458,l),
(783,525,l),
(220,525,l),
(220,458,l)
);
},
{
closed = 1;
nodes = (
(910,578,o),
(921,618,o),
(921,672,cs),
(921,767,o),
(805,803,o),
(617,803,cs),
(426,803,o),
(267,753,o),
(160,669,c),
(160,787,l),
(82,787,l),
(82,552,l),
(160,552,l),
(160,613,l),
(267,692,o),
(453,724,o),
(617,724,cs),
(784,724,o),
(839,692,o),
(839,671,cs),
(839,634,o),
(833,602,o),
(812,564,c),
(886,532,l)
);
},
{
closed = 1;
nodes = (
(768,576,l),
(768,644,l),
(230,644,l),
(230,576,l)
);
},
{
closed = 1;
nodes = (
(789,-75,o),
(803,99,o),
(803,254,cs),
(803,347,o),
(784,415,o),
(596,415,cs),
(516,415,o),
(417,406,o),
(308,389,c),
(311,317,l),
(432,334,o),
(513,340,o),
(595,340,cs),
(705,340,o),
(724,308,o),
(724,254,cs),
(724,156,o),
(711,-3,o),
(604,-3,cs),
(552,-3,o),
(497,3,o),
(448,16,c),
(448,-63,l),
(504,-74,o),
(544,-75,o),
(614,-75,cs)
);
},
{
closed = 1;
nodes = (
(301,81,o),
(320,212,o),
(326,414,c),
(249,414,l),
(241,207,o),
(226,111,o),
(132,-39,c),
(212,-73,l)
);
},
{
closed = 1;
nodes = (
(649,155,l),
(357,161,l),
(353,95,l),
(646,88,l)
);
},
{
closed = 1;
nodes = (
(660,270,l),
(368,277,l),
(364,210,l),
(657,204,l)
);
}
);
width = 1000;
}
);
unicode = 20882;
},
{
glyphname = uni5193;
lastChange = "2025-08-20 16:43:06 +0000";
layers = (
{
.lastUpdate = 777603456.373;
layerId = m01;
shapes = (
{
closed = 1;
nodes = (
(867,394,o),
(901,421,o),
(919,517,c),
(843,544,l),
(835,478,o),
(815,459,o),
(776,459,cs),
(602,457,o),
(385,644,o),
(368,835,c),
(285,835,l),
(317,548,o),
(587,394,o),
(776,394,cs)
);
},
{
closed = 1;
nodes = (
(340,-77,l),
(340,385,l),
(257,385,l),
(257,-77,l)
);
},
{
closed = 1;
nodes = (
(938,106,l),
(938,170,l),
(67,170,l),
(67,106,l)
);
},
{
closed = 1;
nodes = (
(726,-81,o),
(745,-51,o),
(745,12,cs),
(745,385,l),
(662,385,l),
(662,16,ls),
(662,-1,o),
(650,-10,o),
(625,-10,cs),
(586,-10,o),
(546,-4,o),
(508,9,c),
(508,-68,l),
(551,-76,o),
(596,-81,o),
(655,-81,cs)
);
},
{
closed = 1;
nodes = (
(938,270,l),
(938,334,l),
(67,334,l),
(67,270,l)
);
},
{
closed = 1;
nodes = (
(381,442,o),
(711,524,o),
(858,635,c),
(777,668,l),
(633,562,o),
(308,495,o),
(83,468,c),
(131,404,l)
);
},
{
closed = 1;
nodes = (
(884,695,l),
(874,758,l),
(73,711,l),
(84,647,l)
);
}
);
width = 1000;
}
);
unicode = 20883;
},
{
glyphname = uni5196;
lastChange = "2025-08-20 19:59:36 +0000";
layers = (
{
.lastUpdate = 777603456.373;
layerId = m01;
shapes = (
{
closed = 1;
nodes = (
(910,341,o),
(921,384,o),
(921,442,cs),
(921,544,o),
(805,583,o),
(617,583,cs),
(426,583,o),
(271,529,o),
(164,439,c),
(164,566,l),
(82,566,l),
(82,314,l),
(164,314,l),
(164,379,l),
(271,464,o),
(453,498,o),
(617,498,cs),
(784,498,o),
(836,464,o),
(836,441,cs),
(836,402,o),
(830,367,o),
(809,326,c),
(886,292,l)
);
}
);
width = 1000;
}
);
unicode = 20886;
},
{
glyphname = uni5197;
lastChange = "2025-08-20 20:01:52 +0000";
layers = (
{
.lastUpdate = 777603456.373;
layerId = m01;
shapes = (
{
closed = 1;
nodes = (
(910,541,o),
(921,584,o),
(921,642,cs),
(921,744,o),
(805,783,o),
(617,783,cs),
(426,783,o),
(271,729,o),
(164,639,c),
(164,766,l),
(82,766,l),
(82,514,l),
(164,514,l),
(164,579,l),
(271,664,o),
(453,698,o),
(617,698,cs),
(784,698,o),
(836,664,o),
(836,641,cs),
(836,602,o),
(830,567,o),
(809,526,c),
(886,492,l)
);
},
{
closed = 1;
nodes = (
(334,35,o),
(356,169,o),
(356,335,cs),
(356,467,l),
(624,467,l),
(624,69,ls),
(624,-30,o),
(649,-58,o),
(719,-58,cs),
(816,-58,ls),
(901,-58,o),
(919,-21,o),
(925,151,c),
(850,166,l),
(846,24,o),
(837,16,o),
(812,16,cs),
(738,16,ls),
(716,16,o),
(707,27,o),
(707,67,cs),
(707,546,l),
(276,546,l),
(276,341,ls),
(276,192,o),
(261,89,o),
(80,-19,c),
(138,-78,l)
);
}
);
width = 1000;
}
);
unicode = 20887;
},
{
glyphname = uni5198;
lastChange = "2025-08-20 20:06:05 +0000";
layers = (
{
.lastUpdate = 777603456.373;
layerId = m01;
shapes = (
{
closed = 1;
nodes = (
(376,46,o),
(534,253,o),
(534,627,cs),
(534,824,l),
(455,824,l),
(455,627,ls),
(455,302,o),
(306,100,o),
(43,-11,c),
(87,-77,l)
);
},
{
closed = 1;
nodes = (
(843,-61,ls),
(929,-61,o),
(947,2,o),
(954,187,c),
(877,201,l),
(873,35,o),
(868,11,o),
(831,11,cs),
(629,11,ls),
(597,11,o),
(591,20,o),
(591,66,cs),
(591,358,l),
(515,358,l),
(515,67,ls),
(515,-33,o),
(538,-61,o),
(620,-61,cs)
);
},
{
closed = 1;
nodes = (
(0,0,o),
(0,0,o)
);
},
{
closed = 1;
nodes = (
(910,441,o),
(921,484,o),
(921,542,cs),
(921,644,o),
(805,683,o),
(617,683,cs),
(426,683,o),
(271,629,o),
(164,539,c),
(164,666,l),
(82,666,l),
(82,414,l),
(164,414,l),
(164,479,l),
(271,564,o),
(453,598,o),
(617,598,cs),
(784,598,o),
(836,564,o),
(836,541,cs),
(836,502,o),
(830,467,o),
(809,426,c),
(886,392,l)
);
}
);
width = 1000;
}
);
unicode = 20888;
},
{
glyphname = uni51A1;
lastChange = "2025-08-20 20:17:46 +0000";
layers = (
{
.lastUpdate = 777603456.373;
layerId = m01;
shapes = (
{
closed = 1;
nodes = (
(122,29,o),
(157,57,o),
(202,91,cs),
(219,104,o),
(246,106,o),
(261,102,cs),
(278,97,o),
(289,77,o),
(306,8,c),
(463,114,l),
(436,154,l),
(336,108,l),
(331,137,o),
(317,160,o),
(279,170,c),
(327,226,o),
(372,290,o),
(412,353,c),
(355,390,l),
(268,256,o),
(156,135,o),
(45,89,c),
(84,8,l)
);
},
{
closed = 1;
nodes = (
(593,-80,o),
(649,28,o),
(646,146,cs),
(646,266,o),
(572,423,o),
(461,549,c),
(402,499,l),
(484,413,o),
(567,257,o),
(567,145,cs),
(566,74,o),
(546,-8,o),
(471,-8,cs),
(431,-8,o),
(393,0,o),
(355,14,c),
(355,-68,l),
(390,-77,o),
(430,-80,o),
(475,-80,cs)
);
},
{
closed = 1;
nodes = (
(962,59,l),
(835,135,o),
(663,210,o),
(454,289,c),
(433,223,l),
(630,149,o),
(791,77,o),
(911,-4,c)
);
},
{
closed = 1;
nodes = (
(695,285,o),
(778,313,o),
(875,369,c),
(827,431,l),
(740,379,o),
(669,348,o),
(556,311,c),
(581,248,l)
);
},
{
closed = 1;
nodes = (
(865,551,o),
(913,613,o),
(913,668,cs),
(913,773,o),
(786,802,o),
(618,802,cs),
(438,802,o),
(287,748,o),
(170,671,c),
(170,784,l),
(92,784,l),
(92,553,l),
(170,553,l),
(170,623,l),
(320,699,o),
(446,728,o),
(617,728,cs),
(759,728,o),
(831,707,o),
(831,668,cs),
(831,632,o),
(767,606,o),
(613,599,c),
(644,531,l)
);
},
{
closed = 1;
nodes = (
(462,663,l),
(400,503,o),
(260,445,o),
(78,380,c),
(111,313,l),
(311,391,o),
(476,465,o),
(539,639,c)
);
}
);
width = 1000;
}
);
unicode = 20897;
},
{
glyphname = uni51AB;
lastChange = "2025-08-20 20:44:28 +0000";
layers = (
{
.lastUpdate = 777603456.373;
layerId = m01;
shapes = (
{
closed = 1;
nodes = (
(394,64,o),
(601,223,o),
(800,400,c),
(753,465,l),
(548,288,o),
(348,138,o),
(222,63,c),
(278,-16,l)
);
},
{
closed = 1;
nodes = (
(632,542,l),
(573,595,o),
(436,703,o),
(345,766,q),
(295,702,l),
(383,638,o),
(520,523,o),
(580,468,q)
);
}
);
width = 1000;
}
);
unicode = 20907;
},
{
glyphname = uni51AC;
lastChange = "2025-08-20 23:11:01 +0000";
layers = (
{
.lastUpdate = 777603456.373;
layerId = m01;
shapes = (
{
closed = 1;
nodes = (
(415,357,o),
(695,514,o),
(814,716,c),
(763,772,l),
(740,758,l),
(266,758,l),
(266,684,l),
(682,684,l),
(589,545,o),
(341,404,o),
(64,341,c),
(108,268,l)
);
},
{
closed = 1;
nodes = (
(0,0,o),
(0,0,o)
);
},
{
closed = 1;
nodes = (
(828,-12,l),
(686,38,o),
(425,115,o),
(224,158,c),
(181,90,l),
(387,45,o),
(650,-26,o),
(789,-79,c)
);
},
{
closed = 1;
nodes = (
(707,206,l),
(620,235,o),
(487,269,o),
(382,291,c),
(346,229,l),
(449,207,o),
(586,170,o),
(669,140,c)
);
},
{
closed = 1;
nodes = (
(208,538,o),
(318,692,o),
(369,833,c),
(293,850,l),
(242,709,o),
(137,571,o),
(54,506,c),
(117,456,l)
);
},
{
closed = 1;
nodes = (
(914,346,l),
(768,420,o),
(528,513,o),
(305,570,c),
(269,506,l),
(494,447,o),
(727,358,o),
(870,281,c)
);
}
);
width = 1000;
}
);
unicode = 20908;
},
{
glyphname = uni51B0;
lastChange = "2025-08-20 20:50:06 +0000";
layers = (
{
.lastUpdate = 777603456.373;
layerId = m01;
shapes = (
{
closed = 1;
nodes = (
(420,-68,o),
(544,68,o),
(544,238,cs),
(544,369,o),
(513,506,o),
(340,651,c),
(272,606,l),
(432,460,o),
(463,330,o),
(463,251,cs),
(463,118,o),
(370,17,o),
(259,18,cs),
(184,19,o),
(137,72,o),
(137,126,cs),
(137,309,o),
(514,389,o),
(733,391,c),
(733,49,l),
(597,49,l),
(597,-30,l),
(953,-33,l),
(953,49,l),
(817,49,l),
(817,460,l),
(755,495,l),
(737,476,l),
(457,459,o),
(59,390,o),
(59,131,cs),
(59,13,o),
(126,-68,o),
(261,-68,cs)
);
},
{
closed = 1;
nodes = (
(362,603,o),
(541,678,o),
(717,774,c),
(651,840,l),
(512,762,o),
(314,674,o),
(147,625,c),
(179,550,l)
);
},
{
closed = 1;
nodes = (
(392,244,l),
(333,292,o),
(196,388,o),
(105,445,q),
(55,388,l),
(143,330,o),
(280,227,o),
(340,178,q)
);
}
);
width = 1000;
}
);
unicode = 20912;
},
{
glyphname = uni51C6;
lastChange = "2025-08-20 21:03:11 +0000";
layers = (
{
.lastUpdate = 777603456.373;
layerId = m01;
shapes = (
{
closed = 1;
nodes = (
(198,85,o),
(265,194,o),
(330,313,c),
(272,354,l),
(202,228,o),
(125,115,o),
(55,32,c),
(123,-15,l)
);
},
{
closed = 1;
nodes = (
(316,618,l),
(262,669,o),
(201,715,o),
(132,755,c),
(88,692,l),
(156,650,o),
(214,604,o),
(265,553,c)
);
},
{
closed = 1;
nodes = (
(949,-41,l),
(949,36,l),
(289,36,l),
(289,-41,l)
);
},
{
closed = 1;
nodes = (
(745,22,l),
(795,63,o),
(839,131,o),
(839,186,cs),
(839,259,o),
(785,333,o),
(639,333,cs),
(515,333,o),
(434,281,o),
(434,213,cs),
(434,138,o),
(496,94,o),
(605,94,cs),
(652,94,o),
(683,136,o),
(683,179,cs),
(683,614,l),
(612,614,l),
(612,212,ls),
(612,180,o),
(598,169,o),
(578,169,cs),
(527,169,o),
(498,190,o),
(498,211,cs),
(498,236,o),
(536,257,o),
(639,257,cs),
(743,257,o),
(770,213,o),
(770,184,cs),
(770,146,o),
(742,75,o),
(680,22,c)
);
},
{
closed = 1;
nodes = (
(418,411,l),
(908,411,l),
(908,490,l),
(458,490,l),
(500,554,o),
(557,645,o),
(584,700,c),
(518,726,l),
(473,635,o),
(404,527,o),
(326,434,c),
(393,395,l)
);
},
{
closed = 1;
nodes = (
(895,692,l),
(895,767,l),
(348,767,l),
(348,692,l)
);
}
);
width = 1000;
}
);
unicode = (20934,28310);
},
{
glyphname = uni51E0;
lastChange = "2025-08-20 16:43:06 +0000";
layers = (
{
.lastUpdate = 777603456.373;
layerId = m01;
shapes = (
{
closed = 1;
nodes = (
(314,75,o),
(336,289,o),
(336,475,cs),
(336,707,l),
(644,707,l),
(644,69,ls),
(644,-30,o),
(669,-58,o),
(739,-58,cs),
(836,-58,ls),
(921,-58,o),
(939,-21,o),
(945,151,c),
(870,166,l),
(866,24,o),
(857,16,o),
(832,16,cs),
(758,16,ls),
(736,16,o),
(727,27,o),
(727,67,cs),
(727,786,l),
(256,786,l),
(256,481,ls),
(256,312,o),
(241,129,o),
(60,-19,c),
(118,-78,l)
);
}
);
width = 1000;
}
);
unicode = 20960;
},
{
glyphname = uni51E1;
lastChange = "2025-08-20 21:06:08 +0000";
layers = (
{
.lastUpdate = 777603456.373;
layerId = m01;
shapes = (
{
closed = 1;
nodes = (
(314,75,o),
(336,289,o),
(336,475,cs),
(336,707,l),
(644,707,l),
(644,69,ls),
(644,-30,o),
(669,-58,o),
(739,-58,cs),
(836,-58,ls),
(921,-58,o),
(939,-21,o),
(945,151,c),
(870,166,l),
(866,24,o),
(857,16,o),
(832,16,cs),
(758,16,ls),
(736,16,o),
(727,27,o),
(727,67,cs),
(727,786,l),
(256,786,l),
(256,481,ls),
(256,312,o),
(241,129,o),
(60,-19,c),
(118,-78,l)
);
},
{
closed = 1;
nodes = (
(595,375,l),
(543,418,o),
(423,504,o),
(343,554,q),
(295,496,l),
(372,444,o),
(492,352,o),
(545,308,q)
);
}
);
width = 1000;
}
);
unicode = 20961;
},
{
glyphname = uni51E2;
lastChange = "2025-08-20 21:06:56 +0000";
layers = (
{
.lastUpdate = 777603456.373;
layerId = m01;
shapes = (
{
closed = 1;
nodes = (
(314,75,o),
(336,289,o),
(336,475,cs),
(336,607,l),
(644,607,l),
(644,69,ls),
(644,-30,o),
(669,-58,o),
(739,-58,cs),
(836,-58,ls),
(921,-58,o),
(939,-21,o),
(945,151,c),
(870,166,l),
(866,24,o),
(857,16,o),
(832,16,cs),
(758,16,ls),
(736,16,o),
(727,27,o),
(727,67,cs),
(727,686,l),
(256,686,l),
(256,481,ls),
(256,312,o),
(241,129,o),
(60,-19,c),
(118,-78,l)
);
},
{
closed = 1;
nodes = (
(428,681,o),
(476,759,o),
(514,824,c),
(427,850,l),
(395,781,o),
(352,702,o),
(313,650,c),
(387,630,l)
);
}
);
width = 1000;
}
);
unicode = 20962;
},
{
glyphname = uni51F5;
lastChange = "2025-08-21 03:21:26 +0000";
layers = (
{
.lastUpdate = 777603456.373;
layerId = m01;
shapes = (
{
closed = 1;
nodes = (
(931,140,l),
(708,89,o),
(424,101,o),
(280,149,cs),
(194,179,o),
(161,250,o),
(156,426,c),
(74,410,l),
(77,219,o),
(131,106,o),
(250,65,cs),
(398,13,o),
(703,-1,o),
(931,49,c)
);
}
);
width = 1000;
}
);
unicode = 20981;
},
{
glyphname = uni51F6;
lastChange = "2025-08-21 03:21:30 +0000";
layers = (
{
.lastUpdate = 777603456.374;
layerId = m01;
shapes = (
{
closed = 1;
nodes = (
(227,595,l),
(416,481,o),
(657,300,o),
(800,126,c),
(868,182,l),
(719,360,o),
(468,546,o),
(272,656,c)
);
},
{
closed = 1;
nodes = (
(931,65,l),
(708,19,o),
(411,30,o),
(267,73,cs),
(181,100,o),
(148,163,o),
(143,320,c),
(61,306,l),
(64,135,o),
(118,35,o),
(237,-2,cs),
(385,-48,o),
(703,-61,o),
(931,-16,c)
);
},
{
closed = 1;
nodes = (
(299,126,l),
(524,251,o),
(710,424,o),
(862,783,c),
(782,805,l),
(642,478,o),
(457,307,o),
(249,205,c)
);
}
);
width = 1000;
}
);
unicode = 20982;
},
{
glyphname = uni51FA;
lastChange = "2025-08-20 16:43:06 +0000";
layers = (
{
.lastUpdate = 777603456.374;
layerId = m01;
shapes = (
{
closed = 1;
nodes = (
(932,-53,l),
(932,21,l),
(591,21,l),
(591,273,l),
(748,273,l),
(748,348,l),
(591,348,l),
(591,638,l),
(512,638,l),
(512,348,l),
(221,348,l),
(304,519,o),
(366,663,o),
(415,802,c),
(333,825,l),
(290,689,o),
(216,498,o),
(157,385,cs),
(143,359,o),
(125,343,o),
(103,337,c),
(138,266,l),
(162,273,l),
(512,273,l),
(512,21,l),
(71,21,l),
(71,-53,l)
);
},
{
closed = 1;
nodes = (
(923,364,l),
(900,459,o),
(863,554,o),
(828,637,c),
(758,602,l),
(796,525,o),
(827,428,o),
(848,336,c)
);
}
);
vertWidth = 1000;
width = 1000;
}
);
note = cid11124;
unicode = 20986;
},
{
glyphname = uni51FE;
lastChange = "2025-08-21 03:21:36 +0000";
layers = (
{
.lastUpdate = 777603456.374;
layerId = m01;
shapes = (
{
closed = 1;
nodes = (
(931,87,l),
(708,41,o),
(424,51,o),
(280,95,cs),
(194,122,o),
(161,187,o),
(156,346,c),
(74,332,l),
(77,159,o),
(131,56,o),
(250,19,cs),
(398,-28,o),
(703,-41,o),
(931,4,c)
);
},
{
closed = 1;
nodes = (
(521,153,o),
(589,248,o),
(589,397,cs),
(589,498,o),
(556,605,o),
(448,695,c),
(394,662,l),
(492,570,o),
(516,457,o),
(516,397,cs),
(516,285,o),
(472,227,o),
(400,228,cs),
(340,229,o),
(306,268,o),
(306,309,cs),
(306,446,o),
(563,514,o),
(730,507,c),
(730,246,l),
(649,246,l),
(649,179,l),
(923,176,l),
(923,246,l),
(805,246,l),
(805,566,l),
(755,592,l),
(741,578,l),
(546,579,o),
(232,506,o),
(232,309,cs),
(232,219,o),
(293,153,o),
(400,153,cs)
);
},
{
closed = 1;
nodes = (
(414,652,o),
(604,709,o),
(790,782,c),
(721,840,l),
(573,781,o),
(366,714,o),
(188,676,c),
(221,612,l)
);
}
);
width = 1000;
}
);
unicode = (20990,20989);
},
{
glyphname = uni5200;
lastChange = "2025-08-20 16:43:06 +0000";
layers = (
{
.lastUpdate = 777603456.374;
layerId = m01;
shapes = (
{
closed = 1;
nodes = (
(806,-2,o),
(888,96,o),
(888,428,cs),
(888,676,o),
(795,787,o),
(582,787,cs),
(411,787,o),
(255,756,o),
(131,717,c),
(146,643,l),
(276,682,o),
(422,713,o),
(582,713,cs),
(755,713,o),
(811,599,o),
(811,432,cs),
(811,200,o),
(766,74,o),
(680,74,cs),
(626,74,o),
(548,82,o),
(486,100,c),
(486,19,l),
(546,6,o),
(621,-2,o),
(680,-2,cs)
);
},
{
closed = 1;
nodes = (
(354,134,o),
(489,341,o),
(498,598,c),
(418,604,l),
(411,361,o),
(292,183,o),
(75,32,c),
(139,-23,l)
);
}
);
vertWidth = 1000;
width = 1000;
}
);
note = uni5200;
unicode = 20992;
},
{
glyphname = uni5201;
lastChange = "2025-08-20 22:33:48 +0000";
layers = (
{
.lastUpdate = 777603456.374;
layerId = m01;
shapes = (
{
closed = 1;
nodes = (
(806,-2,o),
(888,96,o),
(888,428,cs),
(888,676,o),
(795,787,o),
(582,787,cs),
(411,787,o),
(255,756,o),
(131,717,c),
(146,643,l),
(276,682,o),
(422,713,o),
(582,713,cs),
(755,713,o),
(811,599,o),
(811,432,cs),
(811,200,o),
(766,74,o),
(680,74,cs),
(626,74,o),
(548,82,o),
(486,100,c),
(486,19,l),
(546,6,o),
(621,-2,o),
(680,-2,cs)
);
},
{
closed = 1;
nodes = (
(0,0,o),
(0,0,o)
);
},
{
closed = 1;
nodes = (
(284,180,o),
(491,339,o),
(690,516,c),
(643,575,l),
(438,398,o),
(238,248,o),
(112,173,c),
(168,100,l)
);
}
);
width = 1000;
}
);
unicode = 20993;
},
{
glyphname = uni5203;
lastChange = "2025-08-20 16:43:06 +0000";
layers = (
{
.lastUpdate = 777603456.374;
layerId = m01;
shapes = (
{
closed = 1;
nodes = (
(806,-2,o),
(888,96,o),
(888,428,cs),
(888,676,o),
(795,787,o),
(582,787,cs),
(411,787,o),
(255,756,o),
(131,717,c),
(146,643,l),
(276,682,o),
(422,713,o),
(582,713,cs),
(755,713,o),
(811,599,o),
(811,432,cs),
(811,200,o),
(766,74,o),
(680,74,cs),
(626,74,o),
(548,82,o),
(486,100,c),
(486,19,l),
(546,6,o),
(621,-2,o),
(680,-2,cs)
);
},
{
closed = 1;
nodes = (
(354,134,o),
(489,341,o),
(498,598,c),
(418,604,l),
(411,361,o),
(292,183,o),
(75,32,c),
(139,-23,l)
);
},
{
closed = 1;
nodes = (
(618,341,l),
(514,384,o),
(331,438,o),
(182,476,c),
(146,410,l),
(297,368,o),
(484,310,o),
(581,266,c)
);
}
);
width = 1000;
}
);
unicode = 20995;
},
{
glyphname = uni5205;
lastChange = "2025-08-20 22:38:04 +0000";
layers = (
{
.lastUpdate = 777603456.374;
layerId = m01;
shapes = (
{
closed = 1;
nodes = (
(693,-2,o),
(764,96,o),
(764,428,cs),
(764,676,o),
(684,787,o),
(510,787,cs),
(364,787,o),
(229,756,o),
(123,717,c),
(136,643,l),
(247,682,o),
(373,713,o),
(510,713,cs),
(646,713,o),
(683,599,o),
(683,432,cs),
(683,200,o),
(648,74,o),
(584,74,cs),
(539,74,o),
(482,82,o),
(428,100,c),
(428,19,l),
(480,6,o),
(534,-2,o),
(584,-2,cs)
);
},
{
closed = 1;
nodes = (
(317,134,o),
(434,341,o),
(441,598,c),
(366,604,l),
(360,361,o),
(258,183,o),
(71,32,c),
(133,-23,l)
);
},
{
closed = 1;
nodes = (
(364,351,l),
(303,394,o),
(195,448,o),
(108,486,c),
(77,420,l),
(166,378,o),
(277,320,o),
(334,276,c)
);
},
{
closed = 1;
nodes = (
(953,244,l),
(930,339,o),
(893,434,o),
(858,517,c),
(788,482,l),
(826,405,o),
(857,308,o),
(878,216,c)
);
}
);
width = 1000;
}
);
unicode = 20997;
},
{
glyphname = uni5206;
lastChange = "2025-08-20 16:43:06 +0000";
layers = (
{
.lastUpdate = 777603456.374;
layerId = m01;
shapes = (
{
closed = 1;
nodes = (
(686,-67,o),
(768,33,o),
(768,193,cs),
(768,326,o),
(701,423,o),
(553,423,cs),
(510,423,o),
(471,415,o),
(436,389,c),
(468,436,o),
(523,503,o),
(558,547,c),
(491,600,l),
(415,463,o),
(323,344,o),
(227,254,c),
(300,213,l),
(392,338,o),
(439,348,o),
(553,348,cs),
(642,348,o),
(682,291,o),
(682,193,cs),
(682,89,o),
(630,11,o),
(538,11,cs),
(474,11,o),
(422,20,o),
(364,51,c),
(364,-39,l),
(421,-61,o),
(472,-67,o),
(538,-67,cs)
);
},
{
closed = 1;
nodes = (
(205,463,o),
(320,592,o),
(404,798,c),
(324,820,l),
(266,667,o),
(164,528,o),
(44,442,c),
(108,384,l)
);
},
{
closed = 1;
nodes = (
(961,456,l),
(857,534,o),
(735,687,o),
(673,822,c),
(604,794,l),
(675,646,o),
(795,483,o),
(900,393,c)
);
}
);
vertWidth = 1000;
width = 1000;
}
);
note = cid11143;
unicode = 20998;
},
{
glyphname = uni5207;
lastChange = "2025-08-20 16:43:06 +0000";
layers = (
{
.lastUpdate = 777603456.374;
layerId = m01;
shapes = (
{
closed = 1;
nodes = (
(895,-67,o),
(936,82,o),
(937,420,cs),
(938,674,o),
(877,752,o),
(724,752,cs),
(600,752,o),
(502,729,o),
(420,698,c),
(438,629,l),
(516,658,o),
(628,680,o),
(724,680,cs),
(807,680,o),
(862,623,o),
(861,420,cs),
(860,179,o),
(837,7,o),
(750,7,cs),
(708,7,o),
(662,15,o),
(619,30,c),
(619,-52,l),
(667,-63,o),
(705,-67,o),
(762,-67,cs)
);
},
{
closed = 1;
nodes = (
(442,211,l),
(424,279,l),
(231,195,l),
(231,801,l),
(159,801,l),
(159,205,ls),
(159,170,o),
(133,150,o),
(115,140,c),
(141,73,l)
);
},
{
closed = 1;
nodes = (
(589,67,o),
(662,296,o),
(683,579,c),
(609,584,l),
(589,322,o),
(521,112,o),
(311,-20,c),
(366,-79,l)
);
},
{
closed = 1;
nodes = (
(433,538,l),
(421,605,l),
(28,522,l),
(40,453,l)
);
}
);
vertWidth = 1000;
width = 1000;
}
);
note = cid11146;
unicode = 20999;
},
{
glyphname = uni5211;
lastChange = "2025-08-20 16:43:06 +0000";
layers = (
{
.lastUpdate = 777603456.374;
layerId = m01;
shapes = (
{
closed = 1;
nodes = (
(236,77,o),
(278,210,o),
(278,475,cs),
(278,702,l),
(647,702,l),
(647,779,l),
(76,779,l),
(76,702,l),
(200,702,l),
(200,475,ls),
(200,217,o),
(164,120,o),
(41,-16,c),
(106,-74,l)
);
},
{
closed = 1;
nodes = (
(0,0,o),
(0,0,o)
);
},
{
closed = 1;
nodes = (
(498,-72,o),
(538,-31,o),
(538,52,cs),
(538,629,l),
(460,629,l),
(460,66,ls),
(460,26,o),
(447,5,o),
(410,5,cs),
(386,5,o),
(340,11,o),
(301,23,c),
(301,-58,l),
(334,-68,o),
(374,-72,o),
(422,-72,cs)
);
},
{
closed = 1;
nodes = (
(835,57,o),
(916,121,o),
(916,267,cs),
(916,405,o),
(818,476,o),
(620,476,cs),
(410,476,o),
(206,431,o),
(60,378,c),
(89,307,l),
(222,359,o),
(451,401,o),
(620,401,cs),
(762,401,o),
(834,346,o),
(834,267,cs),
(834,165,o),
(767,100,o),
(623,70,c),
(664,-4,l)
);
},
{
closed = 1;
nodes = (
(966,501,l),
(915,576,o),
(842,655,o),
(766,727,c),
(708,682,l),
(790,603,o),
(848,528,o),
(900,447,c)
);
}
);
width = 1000;
}
);
unicode = 21009;
},
{
glyphname = uni5217;
lastChange = "2025-08-20 22:53:30 +0000";
layers = (
{
.lastUpdate = 777603456.374;
layerId = m01;
shapes = (
{
closed = 1;
nodes = (
(838,-22,o),
(919,34,o),
(919,189,cs),
(919,332,o),
(758,413,o),
(550,413,cs),
(260,413,o),
(55,246,o),
(55,83,cs),
(55,-14,o),
(135,-68,o),
(242,-68,cs),
(338,-68,o),
(443,-25,o),
(488,81,cs),
(551,228,o),
(570,456,o),
(292,547,c),
(259,483,l),
(505,399,o),
(449,202,o),
(417,118,cs),
(390,50,o),
(301,10,o),
(242,10,cs),
(196,10,o),
(137,36,o),
(137,83,cs),
(137,189,o),
(287,338,o),
(550,338,cs),
(706,338,o),
(833,296,o),
(833,189,cs),
(833,74,o),
(766,26,o),
(622,4,c),
(667,-78,l)
);
},
{
closed = 1;
nodes = (
(460,569,o),
(551,668,o),
(607,743,c),
(542,779,l),
(520,774,l),
(77,774,l),
(77,698,l),
(476,698,l),
(429,632,o),
(362,567,o),
(305,520,c),
(372,495,l)
);
},
{
closed = 1;
nodes = (
(966,511,l),
(915,586,o),
(842,665,o),
(766,737,c),
(703,690,l),
(785,611,o),
(843,536,o),
(895,455,c)
);
}
);
width = 1000;
}
);
unicode = (21015,21029,21035);
},
{
glyphname = uni521D;
lastChange = "2025-08-21 00:06:49 +0000";
layers = (
{
.lastUpdate = 777603456.374;
layerId = m01;
shapes = (
{
closed = 1;
nodes = (
(199,221,o),
(317,397,o),
(400,540,c),
(360,586,l),
(345,571,l),
(67,571,l),
(67,502,l),
(301,502,l),
(249,410,o),
(137,257,o),
(35,149,c),
(89,98,l)
);
},
{
closed = 1;
nodes = (
(404,65,l),
(388,130,l),
(293,62,l),
(293,386,l),
(230,386,l),
(230,55,ls),
(230,20,o),
(206,0,o),
(190,-10,c),
(214,-77,l)
);
},
{
closed = 1;
nodes = (
(338,669,l),
(300,709,o),
(223,770,o),
(164,812,c),
(116,763,l),
(176,719,o),
(253,655,o),
(287,615,c)
);
},
{
closed = 1;
nodes = (
(884,-74,o),
(931,63,o),
(931,358,cs),
(931,622,o),
(853,696,o),
(742,696,cs),
(655,696,o),
(584,665,o),
(533,621,c),
(543,552,l),
(596,596,o),
(667,622,o),
(742,622,cs),
(823,622,o),
(857,536,o),
(857,358,cs),
(857,135,o),
(843,0,o),
(764,0,cs),
(708,0,o),
(666,13,o),
(630,37,c),
(613,-36,l),
(649,-56,o),
(693,-74,o),
(768,-74,cs)
);
},
{
closed = 1;
nodes = (
(551,492,o),
(608,657,o),
(647,821,c),
(582,837,l),
(544,669,o),
(483,512,o),
(406,408,c),
(461,362,l)
);
},
{
closed = 1;
nodes = (
(619,74,o),
(679,266,o),
(708,481,c),
(638,487,l),
(609,288,o),
(555,113,o),
(376,-17,c),
(428,-68,l)
);
}
);
width = 1000;
}
);
unicode = 21021;
},
{
glyphname = uni5229;
lastChange = "2025-08-20 16:43:06 +0000";
layers = (
{
.lastUpdate = 777603456.374;
layerId = m01;
shapes = (
{
closed = 1;
nodes = (
(838,-22,o),
(919,44,o),
(919,169,cs),
(919,290,o),
(812,365,o),
(610,365,cs),
(440,365,o),
(281,297,o),
(174,218,c),
(195,263,o),
(220,318,o),
(242,379,c),
(187,404,l),
(154,317,o),
(101,218,o),
(41,138,c),
(98,84,l),
(119,119,l),
(281,230,o),
(461,288,o),
(610,288,cs),
(756,288,o),
(833,236,o),
(833,169,cs),
(833,84,o),
(766,26,o),
(622,4,c),
(667,-78,l)
);
},
{
closed = 1;
nodes = (
(383,-77,o),
(413,-56,o),
(413,12,cs),
(413,760,l),
(337,760,l),
(337,35,ls),
(337,11,o),
(328,-2,o),
(310,-2,cs),
(277,-2,o),
(243,2,o),
(198,16,c),
(198,-65,l),
(244,-74,o),
(286,-77,o),
(331,-77,cs)
);
},
{
closed = 1;
nodes = (
(650,479,l),
(650,553,l),
(60,553,l),
(60,479,l)
);
},
{
closed = 1;
nodes = (
(273,692,o),
(455,723,o),
(589,765,c),
(539,831,l),
(435,794,o),
(243,761,o),
(110,745,c),
(131,678,l)
);
},
{
closed = 1;
nodes = (
(966,501,l),
(915,576,o),
(842,655,o),
(766,727,c),
(703,680,l),
(785,601,o),
(843,526,o),
(895,445,c)
);
}
);
vertWidth = 1000;
width = 1000;
}
);
note = cid11189;
unicode = 21033;
},
{
glyphname = uni522A;
lastChange = "2025-08-21 22:32:48 +0000";
layers = (
{
.lastUpdate = 777603456.374;
layerId = m01;
shapes = (
{
closed = 1;
nodes = (
(429,134,o),
(486,194,o),
(486,435,cs),
(486,640,o),
(409,755,o),
(295,755,cs),
(211,755,o),
(156,722,o),
(126,683,c),
(126,615,l),
(160,648,o),
(218,681,o),
(295,681,cs),
(361,681,o),
(415,601,o),
(415,435,cs),
(415,258,o),
(386,211,o),
(357,211,cs),
(339,211,o),
(322,263,o),
(322,325,cs),
(322,540,o),
(399,696,o),
(517,696,cs),
(597,696,o),
(616,598,o),
(616,436,cs),
(616,143,o),
(597,5,o),
(533,5,cs),
(490,5,o),
(445,14,o),
(402,34,c),
(402,-52,l),
(448,-65,o),
(488,-70,o),
(537,-70,cs),
(650,-70,o),
(694,53,o),
(694,436,cs),
(694,653,o),
(643,776,o),
(517,776,cs),
(384,776,o),
(254,629,o),
(254,325,cs),
(254,206,o),
(311,134,o),
(357,134,cs)
);
},
{
closed = 1;
nodes = (
(108,-52,l),
(181,-52,l),
(181,774,l),
(108,774,l)
);
},
{
closed = 1;
nodes = (
(848,36,o),
(919,126,o),
(919,258,cs),
(919,386,o),
(832,485,o),
(630,485,cs),
(392,485,o),
(209,428,o),
(41,335,c),
(71,263,l),
(234,358,o),
(429,409,o),
(630,409,cs),
(776,409,o),
(838,329,o),
(838,258,cs),
(838,168,o),
(776,87,o),
(712,44,c),
(757,-33,l)
);
},
{
closed = 1;
nodes = (
(944,565,l),
(905,627,o),
(849,690,o),
(791,749,c),
(736,702,l),
(799,639,o),
(844,578,o),
(884,512,c)
);
}
);
width = 1000;
}
);
unicode = (21034,21024);
},
{
glyphname = uni5236;
lastChange = "2025-08-20 23:36:16 +0000";
layers = (
{
.lastUpdate = 777603456.374;
layerId = m01;
shapes = (
{
closed = 1;
nodes = (
(806,-24,o),
(919,40,o),
(919,148,cs),
(919,257,o),
(832,324,o),
(630,324,cs),
(460,324,o),
(281,258,o),
(174,187,c),
(195,228,o),
(220,277,o),
(242,332,c),
(187,354,l),
(154,276,o),
(101,187,o),
(41,116,c),
(98,67,l),
(119,99,l),
(281,198,o),
(481,250,o),
(630,250,cs),
(776,250,o),
(833,208,o),
(833,148,cs),
(833,76,o),
(734,19,o),
(572,2,c),
(617,-72,l)
);
},
{
closed = 1;
nodes = (
(412,-77,o),
(442,-58,o),
(442,3,cs),
(442,838,l),
(366,838,l),
(366,23,ls),
(366,2,o),
(357,-10,o),
(339,-10,cs),
(306,-10,o),
(272,-6,o),
(227,6,c),
(227,-66,l),
(273,-74,o),
(315,-77,o),
(360,-77,cs)
);
},
{
closed = 1;
nodes = (
(154,602,o),
(191,703,o),
(212,802,c),
(142,816,l),
(121,719,o),
(87,619,o),
(41,552,c),
(108,524,l)
);
},
{
closed = 1;
nodes = (
(654,423,l),
(654,492,l),
(125,492,l),
(125,423,l)
);
},
{
closed = 1;
nodes = (
(675,627,l),
(675,696,l),
(142,696,l),
(142,627,l)
);
},
{
closed = 1;
nodes = (
(932,432,l),
(914,520,o),
(882,619,o),
(847,693,c),
(775,668,l),
(810,590,o),
(839,486,o),
(853,403,c)
);
}
);
vertWidth = 1000;
width = 1000;
}
);
note = cid11206;
unicode = 21046;
},
{
glyphname = uni5237;
lastChange = "2025-08-21 19:15:09 +0000";
layers = (
{
.lastUpdate = 777603456.374;
layerId = m01;
shapes = (
{
closed = 1;
nodes = (
(171,20,o),
(184,117,o),
(184,282,cs),
(184,722,l),
(737,722,l),
(737,794,l),
(114,794,l),
(114,298,ls),
(114,142,o),
(108,65,o),
(55,-39,c),
(118,-83,l)
);
},
{
closed = 1;
nodes = (
(317,172,l),
(317,385,l),
(403,475,o),
(456,491,o),
(519,491,cs),
(564,491,o),
(599,456,o),
(599,407,cs),
(599,342,o),
(551,269,o),
(447,269,c),
(447,192,l),
(575,194,o),
(670,286,o),
(670,410,cs),
(670,518,o),
(588,564,o),
(519,564,cs),
(452,564,o),
(394,540,o),
(317,457,c),
(317,566,l),
(249,566,l),
(249,172,l)
);
},
{
closed = 1;
nodes = (
(379,-8,l),
(441,-49,l),
(551,71,o),
(671,146,o),
(757,146,cs),
(844,146,o),
(862,115,o),
(862,85,cs),
(862,44,o),
(843,15,o),
(747,-19,c),
(797,-78,l),
(911,-34,o),
(935,10,o),
(935,85,cs),
(935,158,o),
(891,219,o),
(757,219,cs),
(663,219,o),
(551,157,o),
(480,85,c),
(483,682,l),
(412,682,l),
(412,31,l)
);
},
{
closed = 1;
nodes = (
(933,364,l),
(899,432,o),
(850,501,o),
(800,566,c),
(738,520,l),
(792,451,o),
(831,383,o),
(866,312,c)
);
}
);
width = 1000;
}
);
unicode = 21047;
},
{
glyphname = uni523A;
lastChange = "2025-08-21 02:04:30 +0000";
layers = (
{
.lastUpdate = 777603456.375;
layerId = m01;
shapes = (
{
closed = 1;
nodes = (
(151,391,o),
(173,474,o),
(185,541,c),
(117,548,l),
(107,487,o),
(86,408,o),
(61,360,c),
(125,341,l)
);
},
{
closed = 1;
nodes = (
(577,622,l),
(577,691,l),
(84,691,l),
(84,622,l)
);
},
{
closed = 1;
nodes = (
(567,355,l),
(556,410,o),
(536,487,o),
(509,551,c),
(443,539,l),
(469,473,o),
(488,394,o),
(497,340,c)
);
},
{
closed = 1;
nodes = (
(306,96,l),
(353,168,o),
(403,257,o),
(434,327,c),
(383,384,l),
(360,377,l),
(289,377,l),
(338,485,o),
(380,656,o),
(408,814,c),
(330,822,l),
(305,668,o),
(258,474,o),
(203,363,c),
(243,295,l),
(265,306,l),
(347,306,l),
(328,255,o),
(295,184,o),
(247,113,c)
);
},
{
closed = 1;
nodes = (
(926,469,l),
(875,544,o),
(802,623,o),
(726,695,c),
(673,650,l),
(755,571,o),
(813,496,o),
(865,415,c)
);
},
{
closed = 1;
nodes = (
(121,12,c),
(184,-44,l),
(338,132,o),
(594,258,o),
(722,258,cs),
(818,258,o),
(845,219,o),
(845,159,cs),
(833,84,o),
(766,26,o),
(622,4,c),
(667,-78,l),
(838,-22,o),
(922,44,o),
(922,159,cs),
(922,267,o),
(867,333,o),
(722,333,cs),
(540,333,o),
(278,180,o)
);
}
);
width = 1000;
}
);
unicode = (21050,21068);
},
{
glyphname = uni5247;
lastChange = "2025-08-20 16:43:06 +0000";
layers = (
{
.lastUpdate = 777603456.375;
layerId = m01;
shapes = (
{
closed = 1;
nodes = (
(775,-34,o),
(910,1,o),
(910,132,cs),
(910,219,o),
(821,289,o),
(628,287,cs),
(526,286,o),
(425,266,o),
(334,228,c),
(390,277,o),
(426,345,o),
(426,435,cs),
(426,587,l),
(351,587,l),
(351,439,ls),
(351,333,o),
(302,235,o),
(233,191,cs),
(167,149,o),
(109,121,o),
(48,74,c),
(90,14,l),
(265,147,o),
(455,212,o),
(628,212,cs),
(786,212,o),
(831,174,o),
(831,132,cs),
(831,57,o),
(717,24,o),
(564,7,c),
(593,-62,l)
);
},
{
closed = 1;
nodes = (
(171,394,l),
(171,771,l),
(97,771,l),
(97,394,l)
);
},
{
closed = 1;
nodes = (
(568,343,o),
(678,417,o),
(678,596,cs),
(678,728,o),
(590,800,o),
(429,800,cs),
(306,800,o),
(218,753,o),
(171,692,c),
(171,611,l),
(233,686,o),
(319,728,o),
(429,728,cs),
(551,728,o),
(598,680,o),
(598,596,cs),
(598,455,o),
(510,418,o),
(279,448,c),
(279,382,l)
);
},
{
closed = 1;
nodes = (
(934,435,l),
(916,523,o),
(884,622,o),
(849,696,c),
(775,668,l),
(810,590,o),
(839,486,o),
(853,403,c)
);
}
);
width = 1000;
}
);
unicode = (21063,21017);
},
{
glyphname = uni524D;
lastChange = "2025-08-20 16:43:06 +0000";
layers = (
{
.lastUpdate = 777603456.375;
layerId = m01;
shapes = (
{
closed = 1;
nodes = (
(814,-71,o),
(910,-3,o),
(910,135,cs),
(910,243,o),
(836,307,o),
(658,306,cs),
(414,305,o),
(94,172,o),
(94,51,cs),
(94,-31,o),
(170,-70,o),
(288,-70,cs),
(448,-70,o),
(611,44,o),
(611,185,cs),
(611,317,o),
(584,410,o),
(466,500,c),
(417,447,l),
(512,374,o),
(525,268,o),
(525,185,cs),
(525,61,o),
(370,0,o),
(288,0,cs),
(209,0,o),
(174,19,o),
(174,51,cs),
(174,123,o),
(427,231,o),
(658,231,cs),
(788,231,o),
(823,190,o),
(823,135,cs),
(823,79,o),
(783,-6,o),
(633,-1,c),
(633,-76,l)
);
},
{
closed = 1;
nodes = (
(438,382,o),
(624,535,o),
(772,759,c),
(709,813,l),
(697,797,l),
(212,797,l),
(212,723,l),
(642,723,l),
(564,593,o),
(354,433,o),
(172,369,c),
(200,291,l)
);
},
{
closed = 1;
nodes = (
(917,541,l),
(917,614,l),
(83,614,l),
(83,541,l)
);
}
);
vertWidth = 1000;
width = 1000;
}
);
note = cid11237;
unicode = 21069;
},
{
glyphname = uni5293;
lastChange = "2025-08-21 00:00:14 +0000";
layers = (
{
.lastUpdate = 777603456.375;
layerId = m01;
shapes = (
{
closed = 1;
nodes = (
(864,-65,o),
(898,-33,o),
(898,36,cs),
(898,808,l),
(829,808,l),
(829,43,ls),
(829,24,o),
(817,10,o),
(798,9,cs),
(751,7,o),
(707,14,o),
(653,34,c),
(653,-50,l),
(704,-63,o),
(750,-67,o),
(812,-66,cs)
);
},
{
closed = 1;
nodes = (
(675,167,l),
(744,167,l),
(744,656,l),
(675,656,l)
);
},
{
closed = 1;
nodes = (
(189,695,l),
(241,721,o),
(322,735,o),
(389,734,cs),
(487,733,o),
(537,704,o),
(537,643,cs),
(537,586,o),
(511,541,o),
(393,541,cs),
(330,541,o),
(258,551,o),
(209,558,c),
(209,487,l),
(258,480,o),
(312,475,o),
(393,475,cs),
(539,475,o),
(602,553,o),
(602,643,cs),
(602,742,o),
(531,799,o),
(389,799,cs),
(307,799,o),
(232,783,o),
(176,748,c)
);
},
{
closed = 1;
nodes = (
(590,219,l),
(602,239,o),
(609,262,o),
(609,286,cs),
(609,379,o),
(539,423,o),
(394,423,cs),
(273,423,o),
(162,383,o),
(90,334,c),
(102,272,l),
(172,317,o),
(286,360,o),
(394,359,cs),
(493,358,o),
(542,333,o),
(542,286,cs),
(542,271,o),
(540,260,o),
(531,247,c)
);
},
{
closed = 1;
nodes = (
(117,84,o),
(131,132,o),
(268,132,cs),
(624,132,l),
(624,200,l),
(267,200,ls),
(105,200,o),
(54,129,o),
(54,41,cs),
(54,-23,o),
(88,-76,o),
(154,-76,cs),
(233,-76,o),
(295,15,o),
(295,296,c),
(227,296,l),
(227,49,o),
(193,-3,o),
(154,-3,cs),
(131,-3,o),
(117,14,o),
(117,41,cs)
);
},
{
closed = 1;
nodes = (
(403,-83,l),
(467,-83,l),
(467,293,l),
(403,293,l)
);
},
{
closed = 1;
nodes = (
(322,441,o),
(359,523,o),
(392,613,c),
(330,635,l),
(301,540,o),
(264,463,o),
(212,385,c),
(273,353,l)
);
},
{
closed = 1;
nodes = (
(224,741,o),
(258,821,c),
(192,841,l),
(166,760,o),
(126,692,o),
(79,625,c),
(136,596,l),
(187,666,o)
);
}
);
width = 1000;
}
);
unicode = 21139;
},
{
glyphname = uni529B;
lastChange = "2025-08-20 16:43:06 +0000";
layers = (
{
.lastUpdate = 777603456.375;
layerId = m01;
shapes = (
{
closed = 1;
nodes = (
(878,-64,o),
(905,166,o),
(905,355,cs),
(905,515,o),
(811,604,o),
(634,604,cs),
(446,604,o),
(277,576,o),
(98,531,c),
(116,452,l),
(292,497,o),
(461,525,o),
(629,525,cs),
(779,525,o),
(817,455,o),
(817,345,cs),
(817,223,o),
(804,10,o),
(682,10,cs),
(627,10,o),
(569,20,o),
(507,39,c),
(507,-46,l),
(567,-59,o),
(622,-64,o),
(689,-64,cs)
);
},
{
closed = 1;
nodes = (
(402,101,o),
(512,354,o),
(573,834,c),
(490,844,l),
(429,364,o),
(325,145,o),
(53,-17,c),
(111,-76,l)
);
}
);
width = 1000;
}
);
unicode = 21147;
},
{
glyphname = uni52A0;
lastChange = "2025-08-20 16:43:06 +0000";
layers = (
{
.lastUpdate = 777603456.375;
layerId = m01;
shapes = (
{
closed = 1;
nodes = (
(479,-72,o),
(515,150,o),
(515,327,cs),
(515,478,o),
(512,628,o),
(355,628,cs),
(249,628,o),
(145,613,o),
(51,587,c),
(60,507,l),
(158,533,o),
(251,547,o),
(345,547,cs),
(435,547,o),
(439,429,o),
(439,327,cs),
(439,164,o),
(410,2,o),
(359,2,cs),
(335,2,o),
(308,8,o),
(267,20,c),
(267,-62,l),
(308,-69,o),
(335,-72,o),
(377,-72,cs)
);
},
{
closed = 1;
nodes = (
(260,93,o),
(314,357,o),
(348,835,c),
(272,841,l),
(238,364,o),
(183,125,o),
(31,-37,c),
(97,-84,l)
);
},
{
closed = 1;
nodes = (
(678,243,l),
(678,640,l),
(604,640,l),
(604,243,l)
);
},
{
closed = 1;
nodes = (
(842,53,o),
(951,111,o),
(951,414,cs),
(951,604,o),
(884,669,o),
(783,669,cs),
(730,669,o),
(672,632,o),
(639,557,c),
(657,514,l),
(690,569,o),
(749,589,o),
(789,589,cs),
(849,589,o),
(876,534,o),
(876,394,cs),
(876,152,o),
(779,112,o),
(644,91,c),
(670,23,l)
);
}
);
vertWidth = 1000;
width = 1000;
}
);
note = cid11382;
unicode = 21152;
},
{
glyphname = uni52A3;
lastChange = "2025-08-21 01:46:25 +0000";
layers = (
{
.lastUpdate = 777603456.375;
layerId = m01;
shapes = (
{
closed = 1;
nodes = (
(324,579,l),
(299,633,o),
(251,705,o),
(191,764,c),
(125,727,l),
(183,667,o),
(230,598,o),
(254,542,c)
);
},
{
closed = 1;
nodes = (
(539,481,l),
(539,830,l),
(459,830,l),
(459,481,l)
);
},
{
closed = 1;
nodes = (
(397,331,o),
(724,580,o),
(887,755,c),
(821,795,l),
(672,627,o),
(356,403,o),
(155,306,c),
(207,246,l)
);
},
{
closed = 1;
nodes = (
(339,323,l),
(449,341,o),
(556,352,o),
(664,352,cs),
(785,352,o),
(825,306,o),
(825,227,cs),
(825,139,o),
(816,3,o),
(710,3,cs),
(662,3,o),
(611,10,o),
(557,23,c),
(557,-54,l),
(609,-64,o),
(658,-67,o),
(716,-67,cs),
(881,-67,o),
(905,98,o),
(905,234,cs),
(905,349,o),
(839,421,o),
(668,421,cs),
(550,421,o),
(439,411,o),
(328,392,c)
);
},
{
closed = 1;
nodes = (
(395,61,o),
(742,253,o),
(884,508,c),
(812,546,l),
(669,291,o),
(328,112,o),
(80,6,c),
(130,-56,l)
);
}
);
width = 1000;
}
);
unicode = 21155;
},
{
glyphname = uni52A6;
lastChange = "2025-08-21 01:55:04 +0000";
layers = (
{
.lastUpdate = 777603456.375;
layerId = m01;
shapes = (
{
closed = 1;
nodes = (
(750,425,o),
(780,525,o),
(780,611,cs),
(780,687,o),
(710,735,o),
(578,735,cs),
(437,735,o),
(311,722,o),
(177,701,c),
(191,632,l),
(323,653,o),
(449,669,o),
(574,669,cs),
(682,669,o),
(710,642,o),
(710,606,cs),
(710,551,o),
(691,487,o),
(614,487,cs),
(573,487,o),
(529,491,o),
(483,500,c),
(483,433,l),
(528,427,o),
(569,425,o),
(619,425,cs)
);
},
{
closed = 1;
nodes = (
(372,460,o),
(517,621,o),
(562,839,c),
(484,844,l),
(439,625,o),
(307,505,o),
(104,401,c),
(154,350,l)
);
},
{
closed = 1;
nodes = (
(683,-73,o),
(723,-76,o),
(771,-76,cs),
(877,-76,o),
(919,19,o),
(919,133,cs),
(919,256,o),
(808,323,o),
(624,323,cs),
(266,323,o),
(55,188,o),
(55,49,cs),
(55,-27,o),
(106,-70,o),
(190,-70,cs),
(343,-70,o),
(435,70,o),
(435,217,cs),
(435,320,o),
(379,420,o),
(241,466,c),
(215,402,l),
(330,363,o),
(362,296,o),
(362,217,cs),
(362,93,o),
(290,-5,o),
(190,-5,cs),
(149,-5,o),
(129,15,o),
(129,49,cs),
(129,133,o),
(287,250,o),
(624,250,cs),
(756,250,o),
(843,217,o),
(845,133,cs),
(846,75,o),
(820,-12,o),
(767,-12,cs),
(722,-12,o),
(684,-5,o),
(644,7,c),
(644,-66,l)
);
},
{
closed = 1;
nodes = (
(625,45,o),
(755,193,o),
(800,411,c),
(728,426,l),
(683,207,o),
(566,81,o),
(428,-23,c),
(497,-65,l)
);
}
);
width = 1000;
}
);
unicode = 21158;
},
{
glyphname = uni52A9;
lastChange = "2025-08-21 02:01:51 +0000";
layers = (
{
.lastUpdate = 777603456.375;
layerId = m01;
shapes = (
{
closed = 1;
nodes = (
(858,577,o),
(859,492,o),
(859,413,cs),
(859,288,o),
(830,176,o),
(779,176,cs),
(750,176,o),
(724,179,o),
(687,188,c),
(687,115,l),
(724,109,o),
(751,107,o),
(797,107,cs),
(899,107,o),
(935,278,o),
(935,413,cs),
(935,529,o),
(928,648,o),
(771,648,cs),
(487,648,o),
(230,518,o),
(230,284,cs),
(230,211,o),
(267,170,o),
(337,170,cs),
(451,170,o),
(493,339,o),
(493,463,cs),
(493,605,o),
(440,719,o),
(318,719,cs),
(254,719,o),
(200,679,o),
(163,590,c),
(190,773,l),
(110,773,l),
(83,469,o),
(83,306,o),
(93,129,c),
(168,129,l),
(160,288,o),
(144,337,o),
(174,464,cs),
(189,529,o),
(247,643,o),
(318,643,cs),
(380,643,o),
(418,575,o),
(418,463,cs),
(418,348,o),
(372,250,o),
(337,250,cs),
(314,250,o),
(304,261,o),
(304,284,cs),
(304,492,o),
(548,577,o),
(768,577,cs)
);
},
{
closed = 1;
nodes = (
(670,234,o),
(724,436,o),
(758,803,c),
(682,807,l),
(648,441,o),
(593,258,o),
(441,133,c),
(507,98,l)
);
},
{
closed = 1;
nodes = (
(71,-34,l),
(929,-34,l),
(929,43,l),
(71,43,l)
);
}
);
width = 1000;
}
);
unicode = 21161;
},
{
glyphname = uni52AB;
lastChange = "2025-08-21 02:08:41 +0000";
layers = (
{
.lastUpdate = 777603456.375;
layerId = m01;
shapes = (
{
closed = 1;
nodes = (
(879,-72,o),
(915,130,o),
(915,307,cs),
(915,448,o),
(912,598,o),
(755,598,cs),
(642,598,o),
(555,583,o),
(471,557,c),
(480,477,l),
(568,503,o),
(651,517,o),
(745,517,cs),
(835,517,o),
(839,399,o),
(839,307,cs),
(839,144,o),
(810,2,o),
(759,2,cs),
(735,2,o),
(708,8,o),
(667,20,c),
(667,-62,l),
(708,-69,o),
(735,-72,o),
(777,-72,cs)
);
},
{
closed = 1;
nodes = (
(660,93,o),
(714,357,o),
(748,835,c),
(672,841,l),
(638,364,o),
(583,125,o),
(431,-37,c),
(497,-84,l)
);
},
{
closed = 1;
nodes = (
(507,600,l),
(507,677,l),
(64,677,l),
(64,600,l)
);
},
{
closed = 1;
nodes = (
(244,39,l),
(302,125,o),
(374,259,o),
(414,352,c),
(363,411,l),
(340,404,l),
(239,404,l),
(288,505,o),
(330,651,o),
(358,814,c),
(280,822,l),
(255,663,o),
(205,491,o),
(142,369,c),
(193,319,l),
(215,331,l),
(317,331,l),
(302,278,o),
(239,145,o),
(185,56,c)
);
},
{
closed = 1;
nodes = (
(51,13,l),
(78,-67,l),
(480,121,l),
(463,189,l)
);
}
);
width = 1000;
}
);
unicode = 21163;
},
{
glyphname = uni52D2;
lastChange = "2025-08-21 02:24:43 +0000";
layers = (
{
.lastUpdate = 777603456.375;
layerId = m01;
shapes = (
{
closed = 1;
nodes = (
(89,103,l),
(483,235,l),
(469,297,l),
(71,174,l)
);
},
{
closed = 1;
nodes = (
(334,-82,o),
(354,-57,o),
(354,4,cs),
(354,495,l),
(286,495,l),
(286,5,ls),
(286,-8,o),
(281,-12,o),
(266,-12,cs),
(243,-12,o),
(214,-8,o),
(176,5,c),
(177,-71,l),
(216,-79,o),
(251,-82,o),
(287,-82,cs)
);
},
{
closed = 1;
nodes = (
(141,347,l),
(445,347,l),
(445,414,l),
(177,414,l),
(211,468,o),
(236,513,o),
(263,579,c),
(484,579,l),
(484,648,l),
(63,648,l),
(63,579,l),
(188,579,l),
(163,509,o),
(141,458,o),
(122,429,cs),
(113,415,o),
(103,407,o),
(92,400,c),
(112,336,l)
);
},
{
closed = 1;
nodes = (
(260,688,l),
(245,725,o),
(213,785,o),
(179,829,c),
(114,811,l),
(147,766,o),
(178,711,o),
(191,671,c)
);
},
{
closed = 1;
nodes = (
(379,648,l),
(412,699,o),
(449,762,o),
(480,819,c),
(399,836,l),
(378,778,o),
(336,703,o),
(302,648,c)
);
},
{
closed = 1;
nodes = (
(880,-72,o),
(915,130,o),
(915,307,cs),
(915,448,o),
(912,594,o),
(759,594,cs),
(649,594,o),
(564,579,o),
(482,553,c),
(491,477,l),
(577,503,o),
(658,517,o),
(749,517,cs),
(837,517,o),
(841,399,o),
(841,307,cs),
(841,144,o),
(813,-2,o),
(763,-2,cs),
(734,-2,o),
(703,4,o),
(673,16,c),
(673,-62,l),
(706,-70,o),
(734,-72,o),
(780,-72,cs)
);
},
{
closed = 1;
nodes = (
(664,95,o),
(717,359,o),
(750,837,c),
(678,841,l),
(645,364,o),
(591,125,o),
(443,-37,c),
(505,-82,l)
);
}
);
width = 1000;
}
);
unicode = 21202;
},
{
glyphname = uni52D9;
lastChange = "2025-08-21 02:25:03 +0000";
layers = (
{
.lastUpdate = 777603456.375;
layerId = m01;
shapes = (
{
closed = 1;
nodes = (
(225,318,l),
(344,311,o),
(433,391,o),
(433,485,cs),
(433,584,o),
(367,625,o),
(253,626,c),
(253,552,l),
(343,554,o),
(365,520,o),
(365,485,cs),
(365,426,o),
(317,392,o),
(225,382,c)
);
},
{
closed = 1;
nodes = (
(301,571,l),
(349,618,o),
(400,673,o),
(447,734,c),
(402,798,l),
(380,785,l),
(84,785,l),
(84,713,l),
(361,713,l),
(328,668,o),
(297,631,o),
(262,595,c)
);
},
{
closed = 1;
nodes = (
(55,106,l),
(412,216,l),
(400,279,l),
(42,179,l)
);
},
{
closed = 1;
nodes = (
(897,-74,o),
(941,63,o),
(941,358,cs),
(941,622,o),
(867,696,o),
(762,696,cs),
(680,696,o),
(613,665,o),
(565,621,c),
(574,552,l),
(624,596,o),
(691,622,o),
(762,622,cs),
(839,622,o),
(866,536,o),
(866,358,cs),
(866,135,o),
(843,0,o),
(783,0,cs),
(730,0,o),
(690,13,o),
(656,37,c),
(640,-36,l),
(674,-56,o),
(716,-74,o),
(787,-74,cs)
);
},
{
closed = 1;
nodes = (
(590,492,o),
(643,657,o),
(680,821,c),
(611,837,l),
(575,669,o),
(517,512,o),
(444,408,c),
(504,362,l)
);
},
{
closed = 1;
nodes = (
(646,74,o),
(703,266,o),
(730,481,c),
(658,487,l),
(630,288,o),
(579,113,o),
(410,-17,c),
(465,-68,l)
);
},
{
closed = 1;
nodes = (
(244,-82,o),
(266,-59,o),
(266,-5,cs),
(266,487,l),
(199,487,l),
(199,2,ls),
(199,-10,o),
(191,-14,o),
(176,-14,cs),
(153,-14,o),
(124,-10,o),
(86,2,c),
(87,-72,l),
(126,-79,o),
(161,-82,o),
(197,-82,cs)
);
}
);
width = 1000;
}
);
unicode = 21209;
},
{
glyphname = uni52DE;
lastChange = "2025-08-21 02:14:33 +0000";
layers = (
{
.lastUpdate = 777603456.375;
layerId = m01;
shapes = (
{
closed = 1;
nodes = (
(878,-64,o),
(905,80,o),
(905,240,cs),
(905,375,o),
(817,450,o),
(630,450,cs),
(442,450,o),
(277,426,o),
(98,388,c),
(116,312,l),
(292,350,o),
(461,373,o),
(629,373,cs),
(779,373,o),
(817,324,o),
(817,231,cs),
(817,128,o),
(804,9,o),
(682,9,cs),
(627,9,o),
(569,18,o),
(507,34,c),
(507,-49,l),
(567,-60,o),
(622,-64,o),
(689,-64,cs)
);
},
{
closed = 1;
nodes = (
(524,101,o),
(712,354,o),
(799,834,c),
(717,844,l),
(630,364,o),
(460,155,o),
(53,-7,c),
(106,-76,l)
);
},
{
closed = 1;
nodes = (
(438,697,l),
(394,743,o),
(330,790,o),
(264,833,c),
(207,790,l),
(278,742,o),
(329,698,o),
(374,648,c)
);
},
{
closed = 1;
nodes = (
(453,453,o),
(528,535,o),
(574,600,c),
(520,630,l),
(502,626,l),
(116,626,l),
(116,555,l),
(451,555,l),
(412,501,o),
(367,452,o),
(319,410,c),
(380,389,l)
);
}
);
width = 1000;
}
);
unicode = (21214,21171);
},
{
glyphname = uni52F9;
lastChange = "2025-08-21 02:25:57 +0000";
layers = (
{
.lastUpdate = 777603456.375;
layerId = m01;
shapes = (
{
closed = 1;
nodes = (
(832,-74,o),
(896,113,o),
(896,358,cs),
(896,602,o),
(776,696,o),
(601,696,cs),
(449,696,o),
(307,665,o),
(218,621,c),
(236,552,l),
(329,596,o),
(470,622,o),
(601,622,cs),
(742,622,o),
(818,516,o),
(818,358,cs),
(818,155,o),
(760,0,o),
(622,0,cs),
(525,0,o),
(451,13,o),
(389,37,c),
(359,-36,l),
(421,-56,o),
(498,-74,o),
(629,-74,cs)
);
},
{
closed = 1;
nodes = (
(231,486,o),
(312,651,o),
(366,815,c),
(290,837,l),
(238,669,o),
(153,512,o),
(44,408,c),
(107,356,l)
);
}
);
width = 1000;
}
);
unicode = 21241;
},
{
glyphname = uni52FA;
lastChange = "2025-08-20 16:43:06 +0000";
layers = (
{
.lastUpdate = 777603456.376;
layerId = m01;
shapes = (
{
closed = 1;
nodes = (
(832,-74,o),
(896,113,o),
(896,358,cs),
(896,602,o),
(776,696,o),
(601,696,cs),
(449,696,o),
(307,665,o),
(218,621,c),
(236,552,l),
(329,596,o),
(470,622,o),
(601,622,cs),
(742,622,o),
(818,516,o),
(818,358,cs),
(818,155,o),
(760,0,o),
(622,0,cs),
(525,0,o),
(451,13,o),
(389,37,c),
(359,-36,l),
(421,-56,o),
(498,-74,o),
(629,-74,cs)
);
},
{
closed = 1;
nodes = (
(589,213,l),
(548,294,o),
(473,398,o),
(398,468,c),
(333,432,l),
(408,355,o),
(477,250,o),
(517,172,c)
);
},
{
closed = 1;
nodes = (
(231,486,o),
(312,651,o),
(366,815,c),
(290,837,l),
(238,669,o),
(153,512,o),
(44,408,c),
(107,356,l)
);
}
);
vertWidth = 1000;
width = 1000;
}
);
note = cid11519;
unicode = 21242;
},
{
glyphname = uni52FB;
lastChange = "2025-08-21 02:28:37 +0000";
layers = (
{
.lastUpdate = 777603456.376;
layerId = m01;
shapes = (
{
closed = 1;
nodes = (
(832,-74,o),
(896,113,o),
(896,358,cs),
(896,602,o),
(776,696,o),
(601,696,cs),
(449,696,o),
(307,665,o),
(218,621,c),
(236,552,l),
(329,596,o),
(470,622,o),
(601,622,cs),
(742,622,o),
(818,516,o),
(818,358,cs),
(818,155,o),
(760,0,o),
(622,0,cs),
(525,0,o),
(451,13,o),
(389,37,c),
(359,-36,l),
(421,-56,o),
(498,-74,o),
(629,-74,cs)
);
},
{
closed = 1;
nodes = (
(231,486,o),
(312,651,o),
(366,815,c),
(290,837,l),
(238,669,o),
(153,512,o),
(44,408,c),
(107,356,l)
);
},
{
closed = 1;
nodes = (
(305,381,l),
(658,381,l),
(658,458,l),
(305,458,l)
);
},
{
closed = 1;
nodes = (
(305,198,l),
(658,198,l),
(658,275,l),
(305,275,l)
);
}
);
width = 1000;
}
);
unicode = (21243,21248);
},
